%TF.GenerationSoftware,KiCad,Pcbnew,7.0.9*%
%TF.CreationDate,2024-01-04T19:56:31-05:00*%
%TF.ProjectId,Thermistor Ring,54686572-6d69-4737-946f-722052696e67,rev?*%
%TF.SameCoordinates,Original*%
%TF.FileFunction,Copper,L1,Top*%
%TF.FilePolarity,Positive*%
%FSLAX46Y46*%
G04 Gerber Fmt 4.6, Leading zero omitted, Abs format (unit mm)*
G04 Created by KiCad (PCBNEW 7.0.9) date 2024-01-04 19:56:31*
%MOMM*%
%LPD*%
G01*
G04 APERTURE LIST*
G04 Aperture macros list*
%AMRoundRect*
0 Rectangle with rounded corners*
0 $1 Rounding radius*
0 $2 $3 $4 $5 $6 $7 $8 $9 X,Y pos of 4 corners*
0 Add a 4 corners polygon primitive as box body*
4,1,4,$2,$3,$4,$5,$6,$7,$8,$9,$2,$3,0*
0 Add four circle primitives for the rounded corners*
1,1,$1+$1,$2,$3*
1,1,$1+$1,$4,$5*
1,1,$1+$1,$6,$7*
1,1,$1+$1,$8,$9*
0 Add four rect primitives between the rounded corners*
20,1,$1+$1,$2,$3,$4,$5,0*
20,1,$1+$1,$4,$5,$6,$7,0*
20,1,$1+$1,$6,$7,$8,$9,0*
20,1,$1+$1,$8,$9,$2,$3,0*%
%AMHorizOval*
0 Thick line with rounded ends*
0 $1 width*
0 $2 $3 position (X,Y) of the first rounded end (center of the circle)*
0 $4 $5 position (X,Y) of the second rounded end (center of the circle)*
0 Add line between two ends*
20,1,$1,$2,$3,$4,$5,0*
0 Add two circle primitives to create the rounded ends*
1,1,$1,$2,$3*
1,1,$1,$4,$5*%
%AMRotRect*
0 Rectangle, with rotation*
0 The origin of the aperture is its center*
0 $1 length*
0 $2 width*
0 $3 Rotation angle, in degrees counterclockwise*
0 Add horizontal line*
21,1,$1,$2,0,0,$3*%
G04 Aperture macros list end*
%TA.AperFunction,SMDPad,CuDef*%
%ADD10C,0.162560*%
%TD*%
%TA.AperFunction,SMDPad,CuDef*%
%ADD11RoundRect,0.250000X-0.203174X0.496835X-0.524568X0.113813X0.203174X-0.496835X0.524568X-0.113813X0*%
%TD*%
%TA.AperFunction,SMDPad,CuDef*%
%ADD12RoundRect,0.225000X0.296936X0.157969X-0.125926X0.311878X-0.296936X-0.157969X0.125926X-0.311878X0*%
%TD*%
%TA.AperFunction,SMDPad,CuDef*%
%ADD13RoundRect,0.250000X0.536151X-0.025833X0.324842X0.427321X-0.536151X0.025833X-0.324842X-0.427321X0*%
%TD*%
%TA.AperFunction,SMDPad,CuDef*%
%ADD14RoundRect,0.250000X-0.290448X-0.451404X0.207650X-0.494981X0.290448X0.451404X-0.207650X0.494981X0*%
%TD*%
%TA.AperFunction,SMDPad,CuDef*%
%ADD15RoundRect,0.225000X-0.264994X-0.207131X0.178170X-0.285273X0.264994X0.207131X-0.178170X0.285273X0*%
%TD*%
%TA.AperFunction,ComponentPad*%
%ADD16RoundRect,0.250000X-0.464990X-0.818175X0.716780X-0.609797X0.464990X0.818175X-0.716780X0.609797X0*%
%TD*%
%TA.AperFunction,ComponentPad*%
%ADD17HorizOval,1.700000X-0.021706X0.123101X0.021706X-0.123101X0*%
%TD*%
%TA.AperFunction,SMDPad,CuDef*%
%ADD18RoundRect,0.225000X-0.321666X0.098265X-0.131488X-0.309574X0.321666X-0.098265X0.131488X0.309574X0*%
%TD*%
%TA.AperFunction,ComponentPad*%
%ADD19RoundRect,0.250000X0.600000X0.725000X-0.600000X0.725000X-0.600000X-0.725000X0.600000X-0.725000X0*%
%TD*%
%TA.AperFunction,ComponentPad*%
%ADD20O,1.700000X1.950000*%
%TD*%
%TA.AperFunction,SMDPad,CuDef*%
%ADD21RotRect,1.805236X0.612132X250.000000*%
%TD*%
%TA.AperFunction,SMDPad,CuDef*%
%ADD22RoundRect,0.250000X-0.490341X-0.175988X-0.088168X-0.513452X0.490341X0.175988X0.088168X0.513452X0*%
%TD*%
%TA.AperFunction,SMDPad,CuDef*%
%ADD23RoundRect,0.250000X-0.473137X-0.218055X-0.043082X-0.519182X0.473137X0.218055X0.043082X0.519182X0*%
%TD*%
%TA.AperFunction,SMDPad,CuDef*%
%ADD24RoundRect,0.250000X0.245703X-0.477237X0.532491X-0.067661X-0.245703X0.477237X-0.532491X0.067661X0*%
%TD*%
%TA.AperFunction,SMDPad,CuDef*%
%ADD25RoundRect,0.250000X-0.513452X-0.088168X-0.175988X-0.490341X0.513452X0.088168X0.175988X0.490341X0*%
%TD*%
%TA.AperFunction,ViaPad*%
%ADD26C,0.600000*%
%TD*%
%TA.AperFunction,Conductor*%
%ADD27C,0.160000*%
%TD*%
%TA.AperFunction,Conductor*%
%ADD28C,0.100000*%
%TD*%
G04 APERTURE END LIST*
D10*
%TO.P,IC5,A1,VDD*%
%TO.N,/VDD*%
X106835808Y-87125408D03*
%TO.P,IC5,A2,A0*%
X106576000Y-87275408D03*
%TO.P,IC5,A3,A1*%
X106316192Y-87425408D03*
%TO.P,IC5,B1,INT*%
%TO.N,/INT*%
X106685808Y-86865600D03*
%TO.P,IC5,B2,GND_1*%
%TO.N,GND*%
X106426000Y-87015600D03*
%TO.P,IC5,B3,GND_2*%
X106166192Y-87165600D03*
%TO.P,IC5,C1,SDA*%
%TO.N,/SDA*%
X106535808Y-86605792D03*
%TO.P,IC5,C2,SCL*%
%TO.N,/SCL*%
X106276000Y-86755792D03*
%TO.P,IC5,C3,CVT/PDB*%
%TO.N,/CVT{slash}PDB*%
X106016192Y-86905792D03*
%TD*%
D11*
%TO.P,C1,1*%
%TO.N,/VDD*%
X110693200Y-34984658D03*
%TO.P,C1,2*%
%TO.N,GND*%
X109471904Y-36440142D03*
%TD*%
D12*
%TO.P,C8,1*%
%TO.N,/VDD*%
X62895789Y-53185349D03*
%TO.P,C8,2*%
%TO.N,GND*%
X61439267Y-52655219D03*
%TD*%
D10*
%TO.P,IC3,A1,VDD*%
%TO.N,/VDD*%
X121615200Y-59842400D03*
%TO.P,IC3,A2,A0*%
%TO.N,/SCL*%
X121915200Y-59842400D03*
%TO.P,IC3,A3,A1*%
%TO.N,GND*%
X122215200Y-59842400D03*
%TO.P,IC3,B1,INT*%
%TO.N,/INT*%
X121615200Y-60142400D03*
%TO.P,IC3,B2,GND_1*%
%TO.N,GND*%
X121915200Y-60142400D03*
%TO.P,IC3,B3,GND_2*%
X122215200Y-60142400D03*
%TO.P,IC3,C1,SDA*%
%TO.N,/SDA*%
X121615200Y-60442400D03*
%TO.P,IC3,C2,SCL*%
%TO.N,/SCL*%
X121915200Y-60442400D03*
%TO.P,IC3,C3,CVT/PDB*%
%TO.N,/CVT{slash}PDB*%
X122215200Y-60442400D03*
%TD*%
D13*
%TO.P,C3,1*%
%TO.N,/VDD*%
X102606174Y-89961584D03*
%TO.P,C3,2*%
%TO.N,GND*%
X101803200Y-88239600D03*
%TD*%
D14*
%TO.P,C2,1*%
%TO.N,/VDD*%
X120770415Y-63264802D03*
%TO.P,C2,2*%
%TO.N,GND*%
X122663185Y-63430398D03*
%TD*%
D15*
%TO.P,C6,1*%
%TO.N,/VDD*%
X59333174Y-56050223D03*
%TO.P,C6,2*%
%TO.N,GND*%
X60859626Y-56319377D03*
%TD*%
D10*
%TO.P,IC6,A1,VDD*%
%TO.N,/VDD*%
X74982192Y-33219792D03*
%TO.P,IC6,A2,A0*%
%TO.N,/SCL*%
X75242000Y-33069792D03*
%TO.P,IC6,A3,A1*%
%TO.N,/VDD*%
X75501808Y-32919792D03*
%TO.P,IC6,B1,INT*%
%TO.N,/INT*%
X75132192Y-33479600D03*
%TO.P,IC6,B2,GND_1*%
%TO.N,GND*%
X75392000Y-33329600D03*
%TO.P,IC6,B3,GND_2*%
X75651808Y-33179600D03*
%TO.P,IC6,C1,SDA*%
%TO.N,/SDA*%
X75282192Y-33739408D03*
%TO.P,IC6,C2,SCL*%
%TO.N,/SCL*%
X75542000Y-33589408D03*
%TO.P,IC6,C3,CVT/PDB*%
%TO.N,/CVT{slash}PDB*%
X75801808Y-33439408D03*
%TD*%
D16*
%TO.P,J1,1,Pin_1*%
%TO.N,GND*%
X82479142Y-30309161D03*
D17*
%TO.P,J1,2,Pin_2*%
%TO.N,/Power 3.3-5V*%
X84941161Y-29875041D03*
%TO.P,J1,3,Pin_3*%
%TO.N,/SDA*%
X87403181Y-29440920D03*
%TO.P,J1,4,Pin_4*%
%TO.N,/SCL*%
X89865200Y-29006800D03*
%TD*%
D18*
%TO.P,C5,1*%
%TO.N,/VDD*%
X77955271Y-31047611D03*
%TO.P,C5,2*%
%TO.N,GND*%
X78610329Y-32452389D03*
%TD*%
D10*
%TO.P,IC1,A1,VDD*%
%TO.N,/VDD*%
X106781745Y-33034060D03*
%TO.P,IC1,A2,A0*%
%TO.N,GND*%
X106729650Y-33329502D03*
%TO.P,IC1,A3,A1*%
X106677556Y-33624945D03*
%TO.P,IC1,B1,INT*%
%TO.N,/INT*%
X106486302Y-32981966D03*
%TO.P,IC1,B2,GND_1*%
%TO.N,GND*%
X106434208Y-33277408D03*
%TO.P,IC1,B3,GND_2*%
X106382114Y-33572850D03*
%TO.P,IC1,C1,SDA*%
%TO.N,/SDA*%
X106190860Y-32929871D03*
%TO.P,IC1,C2,SCL*%
%TO.N,/SCL*%
X106138766Y-33225314D03*
%TO.P,IC1,C3,CVT/PDB*%
%TO.N,/CVT{slash}PDB*%
X106086671Y-33520756D03*
%TD*%
D19*
%TO.P,J3,1,Pin_1*%
%TO.N,/CVT{slash}PDB*%
X93573600Y-91135200D03*
D20*
%TO.P,J3,2,Pin_2*%
%TO.N,/INT*%
X91073600Y-91135200D03*
%TO.P,J3,3,Pin_3*%
%TO.N,/ENABLE*%
X88573600Y-91135200D03*
%TD*%
D12*
%TO.P,C7,1*%
%TO.N,/Power 3.3-5V*%
X65287654Y-47621222D03*
%TO.P,C7,2*%
%TO.N,GND*%
X63831132Y-47091092D03*
%TD*%
D10*
%TO.P,IC2,A1,VDD*%
%TO.N,/VDD*%
X75501808Y-87425408D03*
%TO.P,IC2,A2,A0*%
X75242000Y-87275408D03*
%TO.P,IC2,A3,A1*%
%TO.N,GND*%
X74982192Y-87125408D03*
%TO.P,IC2,B1,INT*%
%TO.N,/INT*%
X75651808Y-87165600D03*
%TO.P,IC2,B2,GND_1*%
%TO.N,GND*%
X75392000Y-87015600D03*
%TO.P,IC2,B3,GND_2*%
X75132192Y-86865600D03*
%TO.P,IC2,C1,SDA*%
%TO.N,/SDA*%
X75801808Y-86905792D03*
%TO.P,IC2,C2,SCL*%
%TO.N,/SCL*%
X75542000Y-86755792D03*
%TO.P,IC2,C3,CVT/PDB*%
%TO.N,/CVT{slash}PDB*%
X75282192Y-86605792D03*
%TD*%
D21*
%TO.P,U1,1,IN*%
%TO.N,/Power 3.3-5V*%
X63804800Y-49225200D03*
%TO.P,U1,2,GND*%
%TO.N,GND*%
X62912091Y-48900281D03*
%TO.P,U1,3,EN*%
%TO.N,/ENABLE*%
X62019382Y-48575361D03*
%TO.P,U1,4,NC*%
%TO.N,GND*%
X61232406Y-50737562D03*
%TO.P,U1,5,OUT*%
%TO.N,/VDD*%
X63017824Y-51387401D03*
%TD*%
D22*
%TO.P,R3,1*%
%TO.N,/Power 3.3-5V*%
X67259200Y-38963600D03*
%TO.P,R3,2*%
%TO.N,/SDA*%
X68657232Y-40136688D03*
%TD*%
D23*
%TO.P,R2,1*%
%TO.N,/Power 3.3-5V*%
X64719200Y-42062400D03*
%TO.P,R2,2*%
%TO.N,/SCL*%
X66214152Y-43109176D03*
%TD*%
D24*
%TO.P,C4,1*%
%TO.N,/VDD*%
X72316204Y-86087588D03*
%TO.P,C4,2*%
%TO.N,GND*%
X73406000Y-84531200D03*
%TD*%
D25*
%TO.P,R1,1*%
%TO.N,/Power 3.3-5V*%
X70658112Y-35635168D03*
%TO.P,R1,2*%
%TO.N,/INT*%
X71831200Y-37033200D03*
%TD*%
D10*
%TO.P,IC4,A1,VDD*%
%TO.N,/VDD*%
X59639200Y-59796400D03*
%TO.P,IC4,A2,A0*%
%TO.N,GND*%
X59939200Y-59796400D03*
%TO.P,IC4,A3,A1*%
%TO.N,/VDD*%
X60239200Y-59796400D03*
%TO.P,IC4,B1,INT*%
%TO.N,/INT*%
X59639200Y-60096400D03*
%TO.P,IC4,B2,GND_1*%
%TO.N,GND*%
X59939200Y-60096400D03*
%TO.P,IC4,B3,GND_2*%
X60239200Y-60096400D03*
%TO.P,IC4,C1,SDA*%
%TO.N,/SDA*%
X59639200Y-60396400D03*
%TO.P,IC4,C2,SCL*%
%TO.N,/SCL*%
X59939200Y-60396400D03*
%TO.P,IC4,C3,CVT/PDB*%
%TO.N,/CVT{slash}PDB*%
X60239200Y-60396400D03*
%TD*%
D26*
%TO.N,/VDD*%
X64312800Y-55524400D03*
X59537600Y-54305200D03*
X78282800Y-36118800D03*
X102585795Y-84450195D03*
X104343200Y-89001600D03*
X106121200Y-37795200D03*
X107340400Y-84988400D03*
X107899200Y-35204400D03*
X70408800Y-84683600D03*
X117551200Y-64922400D03*
X120497600Y-58013600D03*
X77571600Y-33629600D03*
X60756800Y-57912000D03*
X77470000Y-88290400D03*
X105765600Y-82651600D03*
X79330378Y-84601222D03*
X73591530Y-80891270D03*
X117883517Y-58928000D03*
X64058800Y-58013600D03*
X120548400Y-65786000D03*
%TO.N,GND*%
X121208800Y-68732400D03*
X63042800Y-44907200D03*
X68466855Y-47029255D03*
X58674000Y-58166000D03*
X61163200Y-59182000D03*
X97739200Y-85293200D03*
X108966000Y-41249600D03*
X111658400Y-38150800D03*
X87071200Y-85852000D03*
X116078000Y-67106800D03*
X77368400Y-32105600D03*
X86410800Y-89814400D03*
X80213200Y-30937200D03*
X61163200Y-59182000D03*
X98856800Y-89103200D03*
X108966000Y-41249600D03*
X81737200Y-35763200D03*
X76352400Y-33020000D03*
%TO.N,/INT*%
X67411600Y-35610800D03*
X76911200Y-86918800D03*
X109118400Y-87833200D03*
X124053600Y-60045600D03*
X68935600Y-37236400D03*
X75625234Y-89322366D03*
X107188000Y-86309200D03*
X120548400Y-59690000D03*
%TO.N,/SDA*%
X102412800Y-33477200D03*
X105257600Y-34950400D03*
X92710000Y-31140400D03*
X88747600Y-31191200D03*
%TO.N,/SCL*%
X121920000Y-58115200D03*
X74828400Y-32105600D03*
X104606436Y-84591236D03*
X120853200Y-61671200D03*
X76776826Y-35984426D03*
X104749600Y-86309200D03*
X60147200Y-61417200D03*
X118908749Y-59334400D03*
X118908124Y-61569600D03*
X62941200Y-61315600D03*
X75996800Y-85598000D03*
X75234800Y-35255200D03*
X76702265Y-84282935D03*
%TO.N,/CVT{slash}PDB*%
X74371200Y-85699600D03*
X97536000Y-90431761D03*
X61264800Y-60401200D03*
X106172000Y-29667200D03*
X104546400Y-32359600D03*
X72385853Y-88599347D03*
X105054400Y-33832800D03*
X125069600Y-61264800D03*
X65938400Y-37033200D03*
X56946800Y-60452000D03*
X122885200Y-61315600D03*
X98247200Y-93319600D03*
X76657200Y-34239200D03*
%TO.N,/ENABLE*%
X65989200Y-52628800D03*
X60045600Y-50647600D03*
X85699600Y-85598000D03*
X84531200Y-90525600D03*
%TD*%
D27*
%TO.N,/VDD*%
X63957200Y-60350400D02*
X63957200Y-59334400D01*
X115671600Y-48869600D02*
X116332000Y-50647600D01*
X108661200Y-33375600D02*
X109029756Y-33667444D01*
X114858800Y-72796400D02*
X113944400Y-74320400D01*
X112674400Y-43992800D02*
X113944400Y-45872400D01*
X113944400Y-74320400D02*
X112928400Y-75793600D01*
X117856000Y-62992000D02*
X117652800Y-64109600D01*
X75234800Y-82296000D02*
X74015600Y-81280000D01*
X76448653Y-31704547D02*
X77955271Y-31047611D01*
X86512400Y-86817200D02*
X84937600Y-86461600D01*
X117856000Y-58267600D02*
X117957600Y-60706000D01*
X107492800Y-87020400D02*
X108254800Y-86512400D01*
X69900800Y-77165200D02*
X69291200Y-76352400D01*
D28*
X121615200Y-59842400D02*
X120904000Y-59283600D01*
D27*
X68224400Y-74828400D02*
X67513200Y-73710800D01*
X64008000Y-61417200D02*
X63957200Y-60350400D01*
X86512400Y-33426400D02*
X89712800Y-33172400D01*
X112268000Y-76657200D02*
X111556800Y-77571600D01*
X68681600Y-44704000D02*
X70713600Y-42164000D01*
X77622400Y-36474400D02*
X78282800Y-36118800D01*
X116840000Y-67868800D02*
X116535200Y-68783200D01*
X104495600Y-83413600D02*
X102717600Y-84378800D01*
X108305600Y-39370000D02*
X109423200Y-40436800D01*
X114808000Y-47294800D02*
X115671600Y-48869600D01*
X64262000Y-64008000D02*
X64008000Y-62534800D01*
X95605600Y-86715600D02*
X94030800Y-86969600D01*
X71882000Y-79298800D02*
X71323200Y-78790800D01*
X108254800Y-86512400D02*
X107340400Y-84988400D01*
X59588400Y-59029600D02*
X60350400Y-59029600D01*
X78282800Y-36118800D02*
X79451200Y-35560000D01*
X66294000Y-49022000D02*
X67310000Y-46939200D01*
D28*
X64109600Y-56845200D02*
X64312800Y-55524400D01*
X64058800Y-58013600D02*
X64109600Y-56845200D01*
X74982192Y-33219792D02*
X74218800Y-32969200D01*
X75501808Y-87425408D02*
X75242000Y-87275408D01*
X106576000Y-87275408D02*
X106835808Y-87125408D01*
D27*
X101498400Y-85039200D02*
X100482400Y-85445600D01*
X79044800Y-84480400D02*
X77012800Y-83413600D01*
X66802000Y-72339200D02*
X66090800Y-70662800D01*
D28*
X75501808Y-32919792D02*
X76729390Y-32185810D01*
D27*
X109029756Y-33667444D02*
X110693200Y-34984658D01*
D28*
X76098400Y-87680800D02*
X75501808Y-87425408D01*
D27*
X77470000Y-88290400D02*
X76098400Y-87680800D01*
X75438000Y-31089600D02*
X73812400Y-31851600D01*
X107899200Y-35204400D02*
X109029756Y-33667444D01*
X82854800Y-85852000D02*
X80365600Y-85039200D01*
X116535200Y-68783200D02*
X116128800Y-70053200D01*
X76962000Y-36931600D02*
X77622400Y-36474400D01*
X107899200Y-81076800D02*
X106984800Y-81838800D01*
X74015600Y-81280000D02*
X72796400Y-80162400D01*
X79451200Y-35560000D02*
X82905600Y-34239200D01*
X109880400Y-79349600D02*
X108915200Y-80264000D01*
X117551200Y-64922400D02*
X117246400Y-66395600D01*
X99009200Y-85902800D02*
X97891600Y-86207600D01*
D28*
X104343200Y-89001600D02*
X102606174Y-89961584D01*
D27*
X117246400Y-66395600D02*
X116840000Y-67868800D01*
X77012800Y-83413600D02*
X75234800Y-82296000D01*
X71323200Y-78790800D02*
X70662800Y-78130400D01*
X68783200Y-75539600D02*
X68224400Y-74828400D01*
X99161600Y-34391600D02*
X101803200Y-35255200D01*
X120497600Y-58013600D02*
X120904000Y-59283600D01*
X84937600Y-86461600D02*
X82854800Y-85852000D01*
X65532000Y-69240400D02*
X65074800Y-67868800D01*
X88290400Y-87071200D02*
X86512400Y-86817200D01*
X117500400Y-55321200D02*
X117856000Y-58267600D01*
X72796400Y-80162400D02*
X72288400Y-79705200D01*
X73406000Y-32664400D02*
X74218800Y-32969200D01*
X64516000Y-65328800D02*
X64262000Y-64008000D01*
X116941600Y-52882800D02*
X117500400Y-55321200D01*
X70662800Y-78130400D02*
X69900800Y-77165200D01*
X100482400Y-85445600D02*
X99009200Y-85902800D01*
X67513200Y-73710800D02*
X66802000Y-72339200D01*
X110642400Y-78486000D02*
X109880400Y-79349600D01*
X110490000Y-41656000D02*
X112674400Y-43992800D01*
X107340400Y-33172400D02*
X108661200Y-33375600D01*
X117957600Y-60706000D02*
X117856000Y-62992000D01*
D28*
X106781745Y-33034060D02*
X107340400Y-33172400D01*
D27*
X69291200Y-76352400D02*
X68783200Y-75539600D01*
X92862400Y-87122000D02*
X91135200Y-87172800D01*
X66090800Y-70662800D02*
X65532000Y-69240400D01*
X64770000Y-66700400D02*
X64516000Y-65328800D01*
D28*
X60239200Y-59796400D02*
X60350400Y-59029600D01*
D27*
X72288400Y-79705200D02*
X71882000Y-79298800D01*
X97891600Y-86207600D02*
X95605600Y-86715600D01*
X76448653Y-31704547D02*
X76149200Y-31191200D01*
X104698800Y-36880800D02*
X106121200Y-37795200D01*
X107391200Y-38658800D02*
X108305600Y-39370000D01*
D28*
X70408800Y-84683600D02*
X72316204Y-86087588D01*
D27*
X101803200Y-35255200D02*
X104698800Y-36880800D01*
D28*
X106316192Y-87425408D02*
X106576000Y-87275408D01*
D27*
X96672400Y-33680400D02*
X99161600Y-34391600D01*
X82905600Y-34239200D02*
X86512400Y-33426400D01*
X115519200Y-71526400D02*
X114858800Y-72796400D01*
X65430400Y-51206400D02*
X66294000Y-49022000D01*
X120548400Y-65786000D02*
X120770415Y-63264802D01*
X63957200Y-59334400D02*
X64058800Y-58013600D01*
X112928400Y-75793600D02*
X112268000Y-76657200D01*
X109423200Y-40436800D02*
X110490000Y-41656000D01*
D28*
X59639200Y-59796400D02*
X59588400Y-59029600D01*
D27*
X111556800Y-77571600D02*
X110642400Y-78486000D01*
X116332000Y-50647600D02*
X116941600Y-52882800D01*
X64719200Y-53543200D02*
X65430400Y-51206400D01*
X77571600Y-33629600D02*
X76729390Y-32185810D01*
X76729390Y-32185810D02*
X76448653Y-31704547D01*
X89712800Y-33172400D02*
X93675200Y-33274000D01*
X93675200Y-33274000D02*
X96672400Y-33680400D01*
X80365600Y-85039200D02*
X79044800Y-84480400D01*
X73812400Y-31851600D02*
X73406000Y-32664400D01*
X60350400Y-59029600D02*
X60756800Y-57912000D01*
X70713600Y-42164000D02*
X72796400Y-40233600D01*
X76149200Y-31191200D02*
X75438000Y-31089600D01*
D28*
X59537600Y-54305200D02*
X59333174Y-56050223D01*
D27*
X94030800Y-86969600D02*
X92862400Y-87122000D01*
X105816400Y-82651600D02*
X104495600Y-83413600D01*
X65074800Y-67868800D02*
X64770000Y-66700400D01*
X106121200Y-37795200D02*
X107391200Y-38658800D01*
X106984800Y-81838800D02*
X105816400Y-82651600D01*
X108915200Y-80264000D02*
X107899200Y-81076800D01*
X67310000Y-46939200D02*
X68681600Y-44704000D01*
D28*
X106835808Y-87125408D02*
X107492800Y-87020400D01*
D27*
X91135200Y-87172800D02*
X88290400Y-87071200D01*
X117652800Y-64109600D02*
X117551200Y-64922400D01*
X116128800Y-70053200D02*
X115519200Y-71526400D01*
X72796400Y-40233600D02*
X76962000Y-36931600D01*
X62895789Y-53185349D02*
X64719200Y-53543200D01*
X113944400Y-45872400D02*
X114808000Y-47294800D01*
X102717600Y-84378800D02*
X101498400Y-85039200D01*
X64008000Y-62534800D02*
X64008000Y-61417200D01*
%TO.N,GND*%
X81686400Y-88900000D02*
X80162400Y-88493600D01*
X97739200Y-85293200D02*
X96621600Y-85496400D01*
X75488800Y-88290400D02*
X74523600Y-87833200D01*
X103682800Y-82854800D02*
X102108000Y-83566000D01*
X116484400Y-55219600D02*
X116738400Y-56845200D01*
X96621600Y-85496400D02*
X95453200Y-85750400D01*
X73609200Y-86207600D02*
X73406000Y-84531200D01*
X59334400Y-57353200D02*
X60859626Y-56319377D01*
X81737200Y-35763200D02*
X83769200Y-35102800D01*
X115620800Y-68630800D02*
X114757200Y-70713600D01*
X61163200Y-59232800D02*
X61163200Y-59182000D01*
X110845600Y-43332400D02*
X111658400Y-44348400D01*
D28*
X122215200Y-59842400D02*
X122215200Y-60142400D01*
X75651808Y-33179600D02*
X76250800Y-33020000D01*
D27*
X83769200Y-35102800D02*
X85598000Y-34696400D01*
D28*
X75392000Y-33329600D02*
X75651808Y-33179600D01*
D27*
X73914000Y-87325200D02*
X74029614Y-86549186D01*
X107746800Y-36068000D02*
X106934000Y-35102800D01*
X91389200Y-86156800D02*
X89865200Y-86055200D01*
X80162400Y-88493600D02*
X79197200Y-89154000D01*
X70764400Y-43840400D02*
X69443600Y-45618400D01*
D28*
X121915200Y-60142400D02*
X122215200Y-60142400D01*
D27*
X102870000Y-36982400D02*
X105054400Y-38252400D01*
X99974400Y-84531200D02*
X97739200Y-85293200D01*
X87579200Y-85953600D02*
X87071200Y-85852000D01*
X69443600Y-45618400D02*
X68466855Y-47029255D01*
D28*
X74982192Y-87125408D02*
X74422000Y-86868000D01*
D27*
X78079600Y-89458800D02*
X76911200Y-89154000D01*
X109471904Y-36440142D02*
X107746800Y-36068000D01*
X74422000Y-86868000D02*
X74029614Y-86549186D01*
X97028000Y-34798000D02*
X99314000Y-35509200D01*
X73202800Y-41198800D02*
X72339200Y-42011600D01*
X114757200Y-49580800D02*
X115366800Y-51257200D01*
X81127600Y-30530800D02*
X82479142Y-30309161D01*
D28*
X106677556Y-33624945D02*
X106476800Y-34340800D01*
D27*
X116890800Y-58877200D02*
X116941600Y-60604400D01*
X74523600Y-87833200D02*
X73914000Y-87325200D01*
X108915200Y-41249600D02*
X108966000Y-41249600D01*
X115874800Y-52882800D02*
X116484400Y-55219600D01*
X95453200Y-85750400D02*
X93014800Y-86055200D01*
X89865200Y-86055200D02*
X87579200Y-85953600D01*
X81737200Y-35763200D02*
X80162400Y-36372800D01*
X76911200Y-89154000D02*
X76301600Y-88646000D01*
X105054400Y-38252400D02*
X108254800Y-40640000D01*
X113538000Y-73050400D02*
X112217200Y-75082400D01*
D28*
X122215200Y-60142400D02*
X122834400Y-60147200D01*
D27*
X72339200Y-42011600D02*
X71577200Y-42824400D01*
X78181200Y-37490400D02*
X76657200Y-38404800D01*
X112217200Y-75082400D02*
X110439200Y-77368400D01*
X109829600Y-42214800D02*
X110845600Y-43332400D01*
X112572800Y-45669200D02*
X113182400Y-46532800D01*
X77368400Y-32105600D02*
X78610329Y-32452389D01*
X108254800Y-40640000D02*
X108915200Y-41249600D01*
X116433600Y-65430400D02*
X116078000Y-67106800D01*
X85598000Y-34696400D02*
X87782400Y-34340800D01*
X111658400Y-44348400D02*
X112572800Y-45669200D01*
X85140800Y-89458800D02*
X81686400Y-88900000D01*
X105156000Y-81991200D02*
X103682800Y-82854800D01*
D28*
X106166192Y-87165600D02*
X105511600Y-87274400D01*
X74982192Y-87125408D02*
X75132192Y-86865600D01*
D27*
X113893600Y-47752000D02*
X114757200Y-49580800D01*
X116738400Y-56845200D02*
X116890800Y-58877200D01*
X60858400Y-59893200D02*
X61163200Y-59232800D01*
D28*
X59939200Y-59796400D02*
X59939200Y-60096400D01*
D27*
X74218800Y-40284400D02*
X73202800Y-41198800D01*
X110439200Y-77368400D02*
X109372400Y-78536800D01*
X116078000Y-67106800D02*
X115620800Y-68630800D01*
D28*
X75392000Y-87015600D02*
X75132192Y-86865600D01*
D27*
X93014800Y-86055200D02*
X91389200Y-86156800D01*
X86410800Y-89814400D02*
X85140800Y-89458800D01*
X98856800Y-89103200D02*
X101803200Y-88239600D01*
X99314000Y-35509200D02*
X102870000Y-36982400D01*
X76301600Y-88646000D02*
X75488800Y-88290400D01*
X79197200Y-89154000D02*
X78079600Y-89458800D01*
X80162400Y-36372800D02*
X78181200Y-37490400D01*
X76250800Y-33020000D02*
X76352400Y-33020000D01*
X108966000Y-41249600D02*
X109829600Y-42214800D01*
X111658400Y-38150800D02*
X109471904Y-36440142D01*
X87782400Y-34340800D02*
X91846400Y-34137600D01*
X74029614Y-86549186D02*
X73609200Y-86207600D01*
X80010000Y-31750000D02*
X78610329Y-32452389D01*
X80213200Y-30937200D02*
X81127600Y-30530800D01*
X94437200Y-34391600D02*
X97028000Y-34798000D01*
X107035600Y-80619600D02*
X105156000Y-81991200D01*
D28*
X106677556Y-33624945D02*
X106382114Y-33572850D01*
X106426000Y-87015600D02*
X106166192Y-87165600D01*
D27*
X71577200Y-42824400D02*
X70764400Y-43840400D01*
X113182400Y-46532800D02*
X113893600Y-47752000D01*
X75133200Y-39522400D02*
X74218800Y-40284400D01*
X91846400Y-34137600D02*
X94437200Y-34391600D01*
X116941600Y-60604400D02*
X116687600Y-63398400D01*
D28*
X106382114Y-33572850D02*
X106434208Y-33277408D01*
D27*
X58674000Y-58166000D02*
X59334400Y-57353200D01*
D28*
X60239200Y-60096400D02*
X60858400Y-59893200D01*
D27*
X80213200Y-30937200D02*
X80010000Y-31750000D01*
X114757200Y-70713600D02*
X113538000Y-73050400D01*
D28*
X106434208Y-33277408D02*
X106729650Y-33329502D01*
D27*
X102108000Y-83566000D02*
X99974400Y-84531200D01*
X76657200Y-38404800D02*
X75133200Y-39522400D01*
X115366800Y-51257200D02*
X115874800Y-52882800D01*
X109372400Y-78536800D02*
X107035600Y-80619600D01*
X63042800Y-44907200D02*
X63831132Y-47091092D01*
X121208800Y-68732400D02*
X122663185Y-63430398D01*
D28*
X59939200Y-60096400D02*
X60239200Y-60096400D01*
D27*
X116687600Y-63398400D02*
X116433600Y-65430400D01*
%TO.N,/Power 3.3-5V*%
X68224400Y-36118800D02*
X70103730Y-34696130D01*
X73914000Y-31191200D02*
X75031600Y-30683200D01*
X65430400Y-39166800D02*
X66426522Y-38080122D01*
X76454000Y-30480000D02*
X77622400Y-29819600D01*
X66426522Y-38080122D02*
X68224400Y-36118800D01*
X63802705Y-41298305D02*
X65430400Y-39166800D01*
X82550000Y-28194000D02*
X84937600Y-27787600D01*
X65287654Y-47621222D02*
X63813062Y-43891200D01*
X84937600Y-27787600D02*
X84941161Y-29875041D01*
X70103730Y-34696130D02*
X70658112Y-35635168D01*
X63296800Y-41960800D02*
X63802705Y-41298305D01*
X72542400Y-32766000D02*
X73050400Y-32004000D01*
X75031600Y-30683200D02*
X76454000Y-30480000D01*
X66426522Y-38080122D02*
X67259200Y-38963600D01*
X63652400Y-43484800D02*
X63296800Y-41960800D01*
X71170800Y-33832800D02*
X72542400Y-32766000D01*
X63813062Y-43891200D02*
X63652400Y-43484800D01*
X73050400Y-32004000D02*
X73914000Y-31191200D01*
X70103730Y-34696130D02*
X71170800Y-33832800D01*
X77622400Y-29819600D02*
X82550000Y-28194000D01*
X63802705Y-41298305D02*
X64719200Y-42062400D01*
%TO.N,/INT*%
X73355200Y-88138000D02*
X70967600Y-86512400D01*
X79095600Y-90982800D02*
X77520800Y-90271600D01*
D28*
X106685808Y-86865600D02*
X107032406Y-86560006D01*
D27*
X60960000Y-74168000D02*
X60502800Y-72999600D01*
X70967600Y-86512400D02*
X68478400Y-84429600D01*
X119227600Y-43180000D02*
X118618000Y-42113200D01*
X75692000Y-89357200D02*
X73355200Y-88138000D01*
X111404400Y-86258400D02*
X112369600Y-85496400D01*
X86360000Y-26314400D02*
X90424000Y-25958800D01*
X103479600Y-28448000D02*
X104292400Y-28854400D01*
X115163600Y-37592000D02*
X113741200Y-36118800D01*
X123342400Y-53848000D02*
X123037600Y-52324000D01*
D28*
X58928000Y-60096400D02*
X59639200Y-60096400D01*
D27*
X109118400Y-87833200D02*
X110185200Y-87122000D01*
X67411600Y-35610800D02*
X68580000Y-34442400D01*
X87782400Y-93065600D02*
X86106000Y-92862400D01*
X60502800Y-72999600D02*
X59944000Y-71526400D01*
X68478400Y-84429600D02*
X66243200Y-82346800D01*
X84175600Y-92506800D02*
X79095600Y-90982800D01*
X108661200Y-32410400D02*
X107899200Y-31800800D01*
X123037600Y-52324000D02*
X122580400Y-50647600D01*
X123901200Y-62941200D02*
X123952000Y-61976000D01*
X123952000Y-61976000D02*
X124053600Y-60655200D01*
X77317600Y-28956000D02*
X81330800Y-27533600D01*
X77520800Y-90271600D02*
X75692000Y-89357200D01*
X70205600Y-33172400D02*
X71526400Y-32156400D01*
X71526400Y-32156400D02*
X73152000Y-31038800D01*
X123850400Y-57099200D02*
X123647200Y-55524400D01*
X101854000Y-91338400D02*
X104343200Y-90373200D01*
X95453200Y-26212800D02*
X99212400Y-27076400D01*
X61671200Y-75590400D02*
X60960000Y-74168000D01*
X59385200Y-69951600D02*
X59029600Y-68783200D01*
X122580400Y-69392800D02*
X123698000Y-65024000D01*
X69900800Y-38150800D02*
X69483416Y-37755384D01*
X110236000Y-33324800D02*
X108661200Y-32410400D01*
D28*
X106486302Y-32981966D02*
X106730800Y-32258000D01*
D27*
X65024000Y-80822800D02*
X63804800Y-79095600D01*
X123698000Y-65024000D02*
X123799600Y-64109600D01*
X57835800Y-60045600D02*
X58928000Y-60096400D01*
X58013600Y-63601600D02*
X57810400Y-60858400D01*
X71018400Y-36423600D02*
X69483416Y-37755384D01*
D28*
X107032406Y-86560006D02*
X107086400Y-86512400D01*
D27*
X112369600Y-85496400D02*
X116636800Y-80975200D01*
X124053600Y-59232800D02*
X123952000Y-58216800D01*
X104292400Y-28854400D02*
X105105200Y-30276800D01*
X104343200Y-90373200D02*
X105664000Y-89712800D01*
X58521600Y-66598800D02*
X58013600Y-63601600D01*
X76911200Y-86918800D02*
X76606400Y-86969600D01*
X120548400Y-59690000D02*
X120853200Y-60045600D01*
X69483416Y-37755384D02*
X68935600Y-37236400D01*
X63804800Y-79095600D02*
X62636400Y-77266800D01*
X118618000Y-42113200D02*
X117297200Y-40081200D01*
X91135200Y-93167200D02*
X91073600Y-91135200D01*
D28*
X75132192Y-33479600D02*
X74269600Y-33934400D01*
D27*
X90271600Y-93167200D02*
X89001600Y-93116400D01*
X66243200Y-82346800D02*
X65024000Y-80822800D01*
X106883200Y-31902400D02*
X107340400Y-31597600D01*
X123952000Y-58216800D02*
X123850400Y-57099200D01*
X122580400Y-50647600D02*
X121767600Y-48514000D01*
X117297200Y-40081200D02*
X115163600Y-37592000D01*
X105664000Y-89712800D02*
X109118400Y-87833200D01*
X123647200Y-55524400D02*
X123545600Y-54660800D01*
X119735600Y-44094400D02*
X119227600Y-43180000D01*
X73152000Y-31038800D02*
X74980800Y-30022800D01*
X57810400Y-60858400D02*
X57835800Y-60045600D01*
X105714800Y-31496000D02*
X106527600Y-31800800D01*
X81330800Y-27533600D02*
X86360000Y-26314400D01*
X118516400Y-78486000D02*
X119938800Y-76098400D01*
X120954800Y-46380400D02*
X120294400Y-45008800D01*
X90424000Y-25958800D02*
X95453200Y-26212800D01*
X106527600Y-31800800D02*
X106883200Y-31902400D01*
X69900800Y-38150800D02*
X71831200Y-37033200D01*
X120802400Y-74320400D02*
X122580400Y-69392800D01*
X123799600Y-64109600D02*
X123901200Y-62941200D01*
X106883200Y-31902400D02*
X106730800Y-32258000D01*
X105105200Y-30276800D02*
X105714800Y-31496000D01*
X94437200Y-93014800D02*
X98958400Y-92202000D01*
X123545600Y-54660800D02*
X123342400Y-53848000D01*
X98958400Y-92202000D02*
X101854000Y-91338400D01*
X74980800Y-30022800D02*
X77317600Y-28956000D01*
X62636400Y-77266800D02*
X61671200Y-75590400D01*
X89001600Y-93116400D02*
X87782400Y-93065600D01*
X116636800Y-80975200D02*
X118516400Y-78486000D01*
X124053600Y-60655200D02*
X124053600Y-59232800D01*
X107899200Y-31800800D02*
X107340400Y-31597600D01*
X59944000Y-71526400D02*
X59385200Y-69951600D01*
X121361200Y-47345600D02*
X120954800Y-46380400D01*
X91135200Y-93167200D02*
X90271600Y-93167200D01*
X86106000Y-92862400D02*
X84175600Y-92506800D01*
X110185200Y-87122000D02*
X111404400Y-86258400D01*
D28*
X107188000Y-86309200D02*
X107032406Y-86560006D01*
D27*
X120294400Y-45008800D02*
X119735600Y-44094400D01*
X74269600Y-33934400D02*
X72034400Y-35509200D01*
D28*
X75651808Y-87165600D02*
X76200000Y-87274400D01*
D27*
X68580000Y-34442400D02*
X70205600Y-33172400D01*
X99212400Y-27076400D02*
X103479600Y-28448000D01*
X72034400Y-35509200D02*
X71018400Y-36423600D01*
D28*
X76200000Y-87274400D02*
X76606400Y-86969600D01*
X120853200Y-60045600D02*
X121615200Y-60142400D01*
D27*
X119938800Y-76098400D02*
X120802400Y-74320400D01*
X121767600Y-48514000D02*
X121361200Y-47345600D01*
X91135200Y-93167200D02*
X94437200Y-93014800D01*
X59029600Y-68783200D02*
X58521600Y-66598800D01*
X113741200Y-36118800D02*
X110236000Y-33324800D01*
%TO.N,/SDA*%
X111861600Y-80416400D02*
X110591600Y-81686400D01*
X62026800Y-63296800D02*
X61947425Y-62026800D01*
X100025200Y-87680800D02*
X98856800Y-88036400D01*
X76945641Y-85512759D02*
X76301600Y-86360000D01*
X69088000Y-79146400D02*
X68021200Y-77927200D01*
X80568800Y-33020000D02*
X83921600Y-31851600D01*
X59182000Y-62179200D02*
X59436000Y-61163200D01*
X88696800Y-89052400D02*
X87020400Y-88900000D01*
X61874400Y-60858400D02*
X61925200Y-58470800D01*
X105257600Y-34950400D02*
X105156000Y-34950400D01*
X102768400Y-86614000D02*
X101193600Y-87274400D01*
X111302800Y-39471600D02*
X112471200Y-40690800D01*
X69799200Y-80010000D02*
X69088000Y-79146400D01*
X112471200Y-40690800D02*
X113741200Y-42113200D01*
X92710000Y-31140400D02*
X95250000Y-31445200D01*
X62382400Y-66141600D02*
X62026800Y-63296800D01*
X104648000Y-85750400D02*
X103327200Y-86410800D01*
X74218800Y-36626800D02*
X74832234Y-36224234D01*
X97891600Y-88341200D02*
X96774000Y-88595200D01*
X119227600Y-66852800D02*
X119024400Y-67716400D01*
X108000800Y-83718400D02*
X107289600Y-84124800D01*
X74832234Y-36224234D02*
X77470000Y-34493200D01*
X119634000Y-64719200D02*
X119481600Y-65684400D01*
X98856800Y-32156400D02*
X102412800Y-33477200D01*
X116789200Y-46939200D02*
X118160800Y-49987200D01*
X93675200Y-89052400D02*
X93065600Y-89103200D01*
X61947425Y-62026800D02*
X59182000Y-62179200D01*
X68657232Y-40136688D02*
X69596000Y-40589200D01*
X109626400Y-37998400D02*
X111302800Y-39471600D01*
X110591600Y-81686400D02*
X108610400Y-83312000D01*
X119928105Y-60502800D02*
X119938800Y-60807600D01*
X98958400Y-28143200D02*
X104140000Y-29870400D01*
D28*
X121615200Y-60442400D02*
X119928105Y-60502800D01*
D27*
X87630000Y-31242000D02*
X88747600Y-31191200D01*
X105800634Y-85074234D02*
X106222800Y-85902800D01*
X78841600Y-86512400D02*
X77317600Y-85750400D01*
X70866000Y-81026000D02*
X69799200Y-80010000D01*
X68021200Y-77927200D02*
X67106800Y-76708000D01*
X115570000Y-75692000D02*
X113639600Y-78282800D01*
X114909600Y-43738800D02*
X116789200Y-46939200D01*
X101193600Y-87274400D02*
X100025200Y-87680800D01*
X75488800Y-84582000D02*
X74472800Y-83870800D01*
X107238800Y-36169600D02*
X108305600Y-37033200D01*
X118313200Y-69900800D02*
X117805200Y-71272400D01*
X80314800Y-87223600D02*
X78841600Y-86512400D01*
X119938800Y-60807600D02*
X119888000Y-61925200D01*
D28*
X106535808Y-86605792D02*
X106222800Y-85902800D01*
D27*
X104851200Y-31191200D02*
X105308400Y-32054800D01*
X108610400Y-83312000D02*
X108000800Y-83718400D01*
X113639600Y-78282800D02*
X111861600Y-80416400D01*
X71983600Y-81991200D02*
X70866000Y-81026000D01*
X96774000Y-88595200D02*
X94792800Y-88950800D01*
X105359200Y-85344000D02*
X104648000Y-85750400D01*
X66294000Y-75438000D02*
X65024000Y-73355200D01*
X98856800Y-88036400D02*
X97891600Y-88341200D01*
X106273600Y-84785200D02*
X105800634Y-85074234D01*
X69596000Y-40589200D02*
X71831200Y-38557200D01*
X119024400Y-67716400D02*
X118719600Y-68681600D01*
X74472800Y-83870800D02*
X73152000Y-83007200D01*
X74015600Y-35001200D02*
X74371200Y-34645600D01*
X104140000Y-29870400D02*
X104851200Y-31191200D01*
X95250000Y-31445200D02*
X98856800Y-32156400D01*
X87630000Y-31242000D02*
X87403181Y-29440920D01*
X83921600Y-31851600D02*
X87071200Y-31394400D01*
X105156000Y-34950400D02*
X107238800Y-36169600D01*
X61947425Y-62026800D02*
X61874400Y-60858400D01*
X91084400Y-27127200D02*
X95097600Y-27330400D01*
X118719600Y-68681600D02*
X118313200Y-69900800D01*
X116535200Y-74015600D02*
X115570000Y-75692000D01*
X74832234Y-36224234D02*
X74015600Y-35001200D01*
X87274400Y-27381200D02*
X91084400Y-27127200D01*
D28*
X59639200Y-60396400D02*
X59436000Y-61163200D01*
D27*
X84632800Y-88493600D02*
X81686400Y-87680800D01*
X119735600Y-63246000D02*
X119634000Y-64719200D01*
X103327200Y-86410800D02*
X102768400Y-86614000D01*
X119837200Y-57912000D02*
X119928105Y-60502800D01*
X119481600Y-65684400D02*
X119227600Y-66852800D01*
X107289600Y-84124800D02*
X106273600Y-84785200D01*
X117805200Y-71272400D02*
X117348000Y-72339200D01*
X76945641Y-85512759D02*
X75488800Y-84582000D01*
X77317600Y-85750400D02*
X76945641Y-85512759D01*
X119684800Y-55676800D02*
X119837200Y-57912000D01*
X87020400Y-88900000D02*
X86055200Y-88747600D01*
X118160800Y-49987200D02*
X119126000Y-52984400D01*
D28*
X76301600Y-86360000D02*
X75801808Y-86905792D01*
D27*
X95097600Y-27330400D02*
X98958400Y-28143200D01*
X73152000Y-83007200D02*
X71983600Y-81991200D01*
X86055200Y-88747600D02*
X84632800Y-88493600D01*
X94792800Y-88950800D02*
X93675200Y-89052400D01*
D28*
X106190860Y-32929871D02*
X106375200Y-32207200D01*
D27*
X65024000Y-73355200D02*
X64262000Y-71475600D01*
X108305600Y-37033200D02*
X109626400Y-37998400D01*
X93065600Y-89103200D02*
X91744800Y-89154000D01*
X63347600Y-69291200D02*
X62382400Y-66141600D01*
X67106800Y-76708000D02*
X66294000Y-75438000D01*
X105800634Y-85074234D02*
X105359200Y-85344000D01*
X81686400Y-87680800D02*
X80314800Y-87223600D01*
X113741200Y-42113200D02*
X114909600Y-43738800D01*
X71831200Y-38557200D02*
X74218800Y-36626800D01*
X64262000Y-71475600D02*
X63347600Y-69291200D01*
X119888000Y-61925200D02*
X119735600Y-63246000D01*
D28*
X74371200Y-34645600D02*
X75282192Y-33739408D01*
D27*
X117348000Y-72339200D02*
X116535200Y-74015600D01*
X119126000Y-52984400D02*
X119684800Y-55676800D01*
X105308400Y-32054800D02*
X106375200Y-32207200D01*
X90220800Y-89154000D02*
X88696800Y-89052400D01*
X77470000Y-34493200D02*
X80568800Y-33020000D01*
X87071200Y-31394400D02*
X87630000Y-31242000D01*
X91744800Y-89154000D02*
X90220800Y-89154000D01*
X87403181Y-29440920D02*
X87274400Y-27381200D01*
%TO.N,/SCL*%
X116179600Y-72339200D02*
X115519200Y-73660000D01*
X97078800Y-87477600D02*
X94691200Y-87934800D01*
X118770400Y-57708800D02*
X118973600Y-60096400D01*
X64414400Y-69138800D02*
X64058800Y-68072000D01*
D28*
X121818400Y-61163200D02*
X121915200Y-60442400D01*
D27*
X116992400Y-49834800D02*
X118211600Y-54203600D01*
D28*
X121915200Y-59842400D02*
X121920000Y-58470800D01*
D27*
X107848400Y-37846000D02*
X108966000Y-38658800D01*
X99822000Y-86715600D02*
X97078800Y-87477600D01*
X71069200Y-40538400D02*
X74472800Y-37541200D01*
X97891600Y-33020000D02*
X101650800Y-34290000D01*
X66802000Y-74320400D02*
X66243200Y-73304400D01*
X113030000Y-77165200D02*
X112166400Y-78232000D01*
X105156000Y-84277200D02*
X104606436Y-84591236D01*
D28*
X74828400Y-32105600D02*
X75242000Y-33069792D01*
D27*
X118364000Y-65887600D02*
X118160800Y-66649600D01*
D28*
X102885834Y-34883766D02*
X103936800Y-33172400D01*
X75844400Y-34239200D02*
X75542000Y-33589408D01*
D27*
X74472800Y-37541200D02*
X78232000Y-35001200D01*
X85191600Y-87528400D02*
X82854800Y-86918800D01*
X68173600Y-76555600D02*
X67411600Y-75387200D01*
X66214152Y-43109176D02*
X68376800Y-43484800D01*
X109118400Y-81432400D02*
X107696000Y-82651600D01*
X103733600Y-85090000D02*
X102666800Y-85547200D01*
X94691200Y-87934800D02*
X92506800Y-88188800D01*
X74117200Y-82448400D02*
X73152000Y-81788000D01*
D28*
X105918000Y-86461600D02*
X106276000Y-86755792D01*
D27*
X89966800Y-32105600D02*
X89865200Y-29006800D01*
X64058800Y-68072000D02*
X63550800Y-66141600D01*
X116738400Y-71170800D02*
X116179600Y-72339200D01*
X72186800Y-80924400D02*
X71475600Y-80264000D01*
X93218000Y-32156400D02*
X95148400Y-32359600D01*
X85293200Y-32613600D02*
X89204800Y-32105600D01*
X68376800Y-43484800D02*
X71069200Y-40538400D01*
X108966000Y-38658800D02*
X110693200Y-40284400D01*
X121920000Y-58115200D02*
X121920000Y-58470800D01*
X73152000Y-81788000D02*
X72186800Y-80924400D01*
X80873600Y-86258400D02*
X78079600Y-84988400D01*
X117246400Y-69799200D02*
X116738400Y-71170800D01*
X62992000Y-62382400D02*
X62890400Y-59893200D01*
X70154800Y-78943200D02*
X69291200Y-77876400D01*
X121564400Y-61772800D02*
X121818400Y-61163200D01*
D28*
X75234800Y-35255200D02*
X75844400Y-34239200D01*
D27*
X114452400Y-44958000D02*
X115874800Y-47396400D01*
X113233200Y-43129200D02*
X114452400Y-44958000D01*
D28*
X75996800Y-85598000D02*
X75542000Y-86755792D01*
D27*
X118973600Y-60096400D02*
X118878773Y-62230000D01*
D28*
X59939200Y-60396400D02*
X59944000Y-61264800D01*
D27*
X66243200Y-73304400D02*
X65430400Y-71729600D01*
X118770400Y-63601600D02*
X118618000Y-64465200D01*
X117602000Y-68732400D02*
X117246400Y-69799200D01*
X89204800Y-32105600D02*
X89966800Y-32105600D01*
X78232000Y-35001200D02*
X81838800Y-33477200D01*
X75996800Y-83921600D02*
X74117200Y-82448400D01*
X118211600Y-54203600D02*
X118770400Y-57708800D01*
X82854800Y-86918800D02*
X80873600Y-86258400D01*
X104292400Y-35560000D02*
X106680000Y-36982400D01*
X89966800Y-32105600D02*
X93218000Y-32156400D01*
X110693200Y-40284400D02*
X112115600Y-41910000D01*
X120853200Y-61671200D02*
X121564400Y-61772800D01*
X106680000Y-36982400D02*
X107848400Y-37846000D01*
X114808000Y-74777600D02*
X113893600Y-76047600D01*
X107696000Y-82651600D02*
X105156000Y-84277200D01*
X75996800Y-85598000D02*
X75844400Y-85852000D01*
X81838800Y-33477200D02*
X85293200Y-32613600D01*
X78079600Y-84988400D02*
X75996800Y-83921600D01*
X118618000Y-64465200D02*
X118364000Y-65887600D01*
X87884000Y-88087200D02*
X85191600Y-87528400D01*
X63550800Y-66141600D02*
X63195200Y-64008000D01*
X118160800Y-66649600D02*
X117957600Y-67462400D01*
X69291200Y-77876400D02*
X68580000Y-77063600D01*
X95148400Y-32359600D02*
X97891600Y-33020000D01*
X63195200Y-64008000D02*
X62992000Y-62382400D01*
X115519200Y-73660000D02*
X114808000Y-74777600D01*
X104749600Y-86309200D02*
X105410000Y-86461600D01*
X115874800Y-47396400D02*
X116992400Y-49834800D01*
X112166400Y-78232000D02*
X111607600Y-78841600D01*
X110845600Y-79806800D02*
X109118400Y-81432400D01*
X101650800Y-34290000D02*
X102885834Y-34883766D01*
X62890400Y-59893200D02*
X62941200Y-58572400D01*
X67411600Y-75387200D02*
X66802000Y-74320400D01*
X113893600Y-76047600D02*
X113030000Y-77165200D01*
X102666800Y-85547200D02*
X99822000Y-86715600D01*
X118878773Y-62230000D02*
X118770400Y-63601600D01*
X111607600Y-78841600D02*
X110845600Y-79806800D01*
X117957600Y-67462400D02*
X117602000Y-68732400D01*
X118878773Y-62230000D02*
X118872000Y-62382400D01*
X92506800Y-88188800D02*
X87884000Y-88087200D01*
X112115600Y-41910000D02*
X113233200Y-43129200D01*
D28*
X103936800Y-33172400D02*
X106138766Y-33225314D01*
D27*
X71475600Y-80264000D02*
X70154800Y-78943200D01*
X64871600Y-70408800D02*
X64414400Y-69138800D01*
X65430400Y-71729600D02*
X64871600Y-70408800D01*
X102885834Y-34883766D02*
X104292400Y-35560000D01*
D28*
X105410000Y-86461600D02*
X105918000Y-86461600D01*
D27*
X104606436Y-84591236D02*
X103733600Y-85090000D01*
X68580000Y-77063600D02*
X68173600Y-76555600D01*
X59944000Y-61264800D02*
X60147200Y-61417200D01*
%TO.N,/CVT{slash}PDB*%
X67970400Y-85242400D02*
X67157600Y-84429600D01*
X60909200Y-60350400D02*
X61264800Y-60401200D01*
X65430400Y-82651600D02*
X64871600Y-81991200D01*
X63855600Y-39522400D02*
X65633600Y-37388800D01*
X95859600Y-93776800D02*
X93675200Y-94030800D01*
D28*
X106086671Y-33520756D02*
X105054400Y-33832800D01*
D27*
X70408800Y-87274400D02*
X69697600Y-86715600D01*
X57912000Y-52324000D02*
X58216800Y-51003200D01*
X106832400Y-30022800D02*
X106172000Y-29667200D01*
X57353200Y-65430400D02*
X57200800Y-64516000D01*
X93573600Y-91135200D02*
X97180400Y-90525600D01*
X75742800Y-90525600D02*
X73253600Y-89103200D01*
X107238800Y-90119200D02*
X110286800Y-88239600D01*
X83718400Y-93319600D02*
X81330800Y-92760800D01*
X81330800Y-92760800D02*
X78028800Y-91592400D01*
X66040000Y-83312000D02*
X65430400Y-82651600D01*
D28*
X60909200Y-60350400D02*
X60239200Y-60396400D01*
D27*
X63601600Y-80365600D02*
X62992000Y-79552800D01*
X125120400Y-60147200D02*
X125018800Y-57861200D01*
X57150000Y-56134000D02*
X57912000Y-52324000D01*
X120243600Y-42570400D02*
X117957600Y-39420800D01*
X124358400Y-53441600D02*
X124053600Y-52171600D01*
X56946800Y-58674000D02*
X57150000Y-56134000D01*
X98247200Y-93319600D02*
X100076000Y-92862400D01*
X59232800Y-48056800D02*
X59893200Y-46431200D01*
X111861600Y-33172400D02*
X109677200Y-31496000D01*
X104495600Y-91389200D02*
X107238800Y-90119200D01*
X97078800Y-93573600D02*
X95859600Y-93776800D01*
X110286800Y-88239600D02*
X113182400Y-85953600D01*
X125069600Y-61264800D02*
X125120400Y-60147200D01*
X71678800Y-88188800D02*
X71069200Y-87731600D01*
X124815600Y-55727600D02*
X124358400Y-53441600D01*
X88442800Y-94030800D02*
X86512400Y-93827600D01*
X85039200Y-93624400D02*
X83718400Y-93319600D01*
X102666800Y-92100400D02*
X104495600Y-91389200D01*
X61468000Y-43027600D02*
X62788800Y-40995600D01*
X65938400Y-37084000D02*
X65938400Y-37033200D01*
X66548000Y-83769200D02*
X66040000Y-83312000D01*
X102971600Y-88646000D02*
X104648000Y-87223600D01*
X67157600Y-84429600D02*
X66548000Y-83769200D01*
X115671600Y-36576000D02*
X113995200Y-35001200D01*
X89712800Y-94081600D02*
X88442800Y-94030800D01*
X68783200Y-86004400D02*
X67970400Y-85242400D01*
X59029600Y-71932800D02*
X58521600Y-70408800D01*
X76657200Y-34239200D02*
X76352400Y-33934400D01*
X78028800Y-91592400D02*
X75742800Y-90525600D01*
X121818400Y-74676000D02*
X123291600Y-70612000D01*
X64262000Y-81178400D02*
X63601600Y-80365600D01*
D28*
X104902000Y-86969600D02*
X106016192Y-86905792D01*
X75801808Y-33439408D02*
X76352400Y-33934400D01*
D27*
X123291600Y-70612000D02*
X124663200Y-65328800D01*
X74371200Y-85699600D02*
X74777600Y-86004400D01*
X71069200Y-87731600D02*
X70408800Y-87274400D01*
X123444000Y-49987200D02*
X122580400Y-47599600D01*
X117957600Y-39420800D02*
X115671600Y-36576000D01*
X61722000Y-77470000D02*
X61163200Y-76504800D01*
X59893200Y-46431200D02*
X60553600Y-45008800D01*
X86512400Y-93827600D02*
X85039200Y-93624400D01*
X120243600Y-77470000D02*
X121818400Y-74676000D01*
X73253600Y-89103200D02*
X71678800Y-88188800D01*
X69697600Y-86715600D02*
X68783200Y-86004400D01*
X62992000Y-79552800D02*
X62636400Y-78994000D01*
X124663200Y-65328800D02*
X125069600Y-61264800D01*
X100838000Y-89560400D02*
X102971600Y-88646000D01*
X97180400Y-90525600D02*
X97536000Y-90431761D01*
X62788800Y-40995600D02*
X63855600Y-39522400D01*
X97536000Y-90431761D02*
X100838000Y-89560400D01*
X125018800Y-57861200D02*
X124815600Y-55727600D01*
X57200800Y-64516000D02*
X56997600Y-62788800D01*
X58623200Y-49733200D02*
X59232800Y-48056800D01*
X121208800Y-44754800D02*
X120243600Y-42570400D01*
X58216800Y-51003200D02*
X58623200Y-49733200D01*
X118059200Y-80873600D02*
X120243600Y-77470000D01*
X57759600Y-67614800D02*
X57353200Y-65430400D01*
X98247200Y-93319600D02*
X97078800Y-93573600D01*
X61163200Y-76504800D02*
X60401200Y-75133200D01*
X56946800Y-61569600D02*
X56946800Y-58674000D01*
X104648000Y-87223600D02*
X104902000Y-86969600D01*
X59334400Y-72796400D02*
X59029600Y-71932800D01*
X64871600Y-81991200D02*
X64262000Y-81178400D01*
X109677200Y-31496000D02*
X108254800Y-30734000D01*
X124053600Y-52171600D02*
X123444000Y-49987200D01*
X113995200Y-35001200D02*
X111861600Y-33172400D01*
X122580400Y-47599600D02*
X121208800Y-44754800D01*
D28*
X122215200Y-60442400D02*
X122885200Y-61315600D01*
D27*
X113182400Y-85953600D02*
X115824000Y-83261200D01*
X56997600Y-62788800D02*
X56946800Y-61569600D01*
X58166000Y-69189600D02*
X57759600Y-67614800D01*
X93675200Y-94030800D02*
X91592400Y-94132400D01*
X100076000Y-92862400D02*
X102666800Y-92100400D01*
X115824000Y-83261200D02*
X118059200Y-80873600D01*
X58521600Y-70408800D02*
X58166000Y-69189600D01*
X65633600Y-37388800D02*
X65938400Y-37084000D01*
X91592400Y-94132400D02*
X89712800Y-94081600D01*
X60553600Y-45008800D02*
X61468000Y-43027600D01*
D28*
X74777600Y-86004400D02*
X75282192Y-86605792D01*
D27*
X60401200Y-75133200D02*
X59334400Y-72796400D01*
X62636400Y-78994000D02*
X61722000Y-77470000D01*
X108254800Y-30734000D02*
X106832400Y-30022800D01*
%TO.N,/ENABLE*%
X68630800Y-73406000D02*
X67259200Y-70612000D01*
X85699600Y-85598000D02*
X83108800Y-84937600D01*
X79806800Y-83515200D02*
X77724000Y-82499200D01*
X65379600Y-65227200D02*
X64922400Y-61417200D01*
X74726800Y-80416400D02*
X71069200Y-76911200D01*
X67259200Y-70612000D02*
X66243200Y-68275200D01*
X65684400Y-53797200D02*
X65989200Y-52628800D01*
X66243200Y-68275200D02*
X65379600Y-65227200D01*
X64922400Y-61417200D02*
X64973200Y-59740800D01*
X88573600Y-91135200D02*
X84531200Y-90525600D01*
X60045600Y-50647600D02*
X60604400Y-48920400D01*
X83108800Y-84937600D02*
X79806800Y-83515200D01*
X65278000Y-55829200D02*
X65684400Y-53797200D01*
X60604400Y-48920400D02*
X62019382Y-48575361D01*
X71069200Y-76911200D02*
X68630800Y-73406000D01*
X77724000Y-82499200D02*
X74726800Y-80416400D01*
X64973200Y-59740800D02*
X65278000Y-55829200D01*
%TD*%
%TA.AperFunction,Conductor*%
%TO.N,/ENABLE*%
G36*
X61882447Y-45632417D02*
G01*
X62713654Y-45859983D01*
X62773113Y-45896669D01*
X62797542Y-45937478D01*
X62858324Y-46105860D01*
X62862571Y-46175600D01*
X62859676Y-46186110D01*
X61850823Y-49306330D01*
X61811469Y-49364062D01*
X61747149Y-49391353D01*
X61697778Y-49387123D01*
X61530495Y-49337814D01*
X61309166Y-49272575D01*
X61299254Y-49270081D01*
X61269770Y-49262663D01*
X61268751Y-49262599D01*
X61267129Y-49262250D01*
X61264167Y-49261788D01*
X61264193Y-49261620D01*
X61232993Y-49254920D01*
X61134063Y-49217733D01*
X61078236Y-49175719D01*
X61053987Y-49110192D01*
X61060653Y-49060705D01*
X61497630Y-47812145D01*
X61497629Y-47812144D01*
X61101433Y-47715631D01*
X61040957Y-47680639D01*
X61009000Y-47618506D01*
X61015257Y-47550095D01*
X61734185Y-45706955D01*
X61776884Y-45651653D01*
X61842705Y-45628215D01*
X61882447Y-45632417D01*
G37*
%TD.AperFunction*%
%TD*%
%TA.AperFunction,Conductor*%
%TO.N,/VDD*%
G36*
X63411334Y-50587902D02*
G01*
X63508819Y-50623385D01*
X63560792Y-50636212D01*
X63614376Y-50649437D01*
X63620720Y-50651367D01*
X63622634Y-50652063D01*
X63627397Y-50653797D01*
X63683667Y-50695211D01*
X63708614Y-50760475D01*
X63701528Y-50812736D01*
X63246401Y-52063163D01*
X63896610Y-52299818D01*
X63952873Y-52341243D01*
X63977809Y-52406512D01*
X63971770Y-52455749D01*
X63420738Y-54099632D01*
X63380767Y-54156939D01*
X63316159Y-54183539D01*
X63260756Y-54176744D01*
X62061826Y-53740368D01*
X62005562Y-53698942D01*
X61980627Y-53633673D01*
X61994937Y-53565284D01*
X62027326Y-53526581D01*
X62081692Y-53483595D01*
X62186882Y-53350561D01*
X62230405Y-53260662D01*
X62434484Y-52699957D01*
X62458930Y-52603114D01*
X62460508Y-52548843D01*
X62482133Y-52482407D01*
X62523260Y-52444603D01*
X62538410Y-52436007D01*
X62638473Y-52332620D01*
X62705356Y-52205229D01*
X63252050Y-50662993D01*
X63293002Y-50606385D01*
X63358059Y-50580902D01*
X63411334Y-50587902D01*
G37*
%TD.AperFunction*%
%TD*%
%TA.AperFunction,Conductor*%
%TO.N,/Power 3.3-5V*%
G36*
X64980127Y-46411189D02*
G01*
X65751886Y-46686066D01*
X65808434Y-46727103D01*
X65833819Y-46792198D01*
X65826802Y-46845289D01*
X65095308Y-48855049D01*
X65053882Y-48911313D01*
X64988613Y-48936248D01*
X64936376Y-48929160D01*
X64336857Y-48710954D01*
X63840646Y-50074260D01*
X63799219Y-50130524D01*
X63733950Y-50155459D01*
X63681713Y-50148371D01*
X63632679Y-50130524D01*
X63293990Y-50007249D01*
X63237728Y-49965824D01*
X63212793Y-49900556D01*
X63219810Y-49848515D01*
X63882771Y-48017643D01*
X63924103Y-47961314D01*
X63989330Y-47936270D01*
X64043577Y-47944015D01*
X64220910Y-48011703D01*
X64823149Y-46482559D01*
X64866029Y-46427399D01*
X64931927Y-46404177D01*
X64980127Y-46411189D01*
G37*
%TD.AperFunction*%
%TD*%
%TA.AperFunction,Conductor*%
%TO.N,GND*%
G36*
X64248749Y-46338327D02*
G01*
X62228905Y-52036336D01*
X60540761Y-51475964D01*
X61166243Y-49757449D01*
X61947398Y-49987705D01*
X61460905Y-51324322D01*
X61716964Y-51363458D01*
X63437228Y-46042960D01*
X64248749Y-46338327D01*
G37*
%TD.AperFunction*%
%TD*%
%TA.AperFunction,Conductor*%
%TO.N,GND*%
G36*
X73757861Y-86229074D02*
G01*
X73793436Y-86253914D01*
X73868938Y-86329416D01*
X73916490Y-86359295D01*
X74013416Y-86420198D01*
X74021678Y-86425389D01*
X74162635Y-86474712D01*
X74191945Y-86484968D01*
X74191950Y-86484969D01*
X74371196Y-86505165D01*
X74371198Y-86505165D01*
X74371198Y-86505164D01*
X74371200Y-86505165D01*
X74403721Y-86501500D01*
X74472539Y-86513553D01*
X74512595Y-86545017D01*
X74532951Y-86569278D01*
X74543827Y-86582241D01*
X74571837Y-86646250D01*
X74560794Y-86715242D01*
X74547211Y-86737427D01*
X74474445Y-86832259D01*
X74415874Y-86973662D01*
X74415874Y-86973663D01*
X74395896Y-87125407D01*
X74395896Y-87125408D01*
X74415874Y-87277152D01*
X74415874Y-87277153D01*
X74474445Y-87418557D01*
X74567618Y-87539981D01*
X74689042Y-87633154D01*
X74811957Y-87684067D01*
X74839987Y-87700249D01*
X74948600Y-87783592D01*
X75073298Y-87835242D01*
X75101330Y-87851427D01*
X75208406Y-87933591D01*
X75208409Y-87933593D01*
X75297650Y-87970557D01*
X75349933Y-87992213D01*
X75444336Y-88004641D01*
X75476941Y-88013583D01*
X75684219Y-88102316D01*
X75725309Y-88130893D01*
X75730225Y-88136067D01*
X75827869Y-88195815D01*
X76444009Y-88469655D01*
X76680031Y-88574554D01*
X76733298Y-88619770D01*
X76741390Y-88634065D01*
X76744210Y-88639921D01*
X76790590Y-88713734D01*
X76840184Y-88792662D01*
X76967738Y-88920216D01*
X77013339Y-88948869D01*
X77114350Y-89012339D01*
X77120478Y-89016189D01*
X77255159Y-89063316D01*
X77290745Y-89075768D01*
X77290750Y-89075769D01*
X77469996Y-89095965D01*
X77470000Y-89095965D01*
X77470004Y-89095965D01*
X77649249Y-89075769D01*
X77649252Y-89075768D01*
X77649255Y-89075768D01*
X77819522Y-89016189D01*
X77972262Y-88920216D01*
X78099816Y-88792662D01*
X78195789Y-88639922D01*
X78255368Y-88469655D01*
X78264579Y-88387908D01*
X78275565Y-88290403D01*
X78275565Y-88290396D01*
X78255369Y-88111150D01*
X78255368Y-88111145D01*
X78213752Y-87992213D01*
X78195789Y-87940878D01*
X78099816Y-87788138D01*
X77972262Y-87660584D01*
X77959667Y-87652670D01*
X77819521Y-87564610D01*
X77664039Y-87510205D01*
X77607262Y-87469483D01*
X77581515Y-87404530D01*
X77594971Y-87335969D01*
X77600000Y-87327190D01*
X77636988Y-87268324D01*
X77636989Y-87268322D01*
X77696568Y-87098055D01*
X77697063Y-87093662D01*
X77716765Y-86918803D01*
X77716765Y-86918797D01*
X77704148Y-86806822D01*
X77716202Y-86738000D01*
X77763551Y-86686621D01*
X77831161Y-86668996D01*
X77882822Y-86682029D01*
X78548331Y-87014783D01*
X78554623Y-87018404D01*
X78554965Y-87018629D01*
X78585589Y-87033413D01*
X78616023Y-87048630D01*
X78616419Y-87048767D01*
X78623117Y-87051530D01*
X79638637Y-87541781D01*
X80061741Y-87746038D01*
X80095156Y-87762289D01*
X80095988Y-87762626D01*
X80096673Y-87762905D01*
X80096690Y-87762910D01*
X80096691Y-87762911D01*
X80131957Y-87774553D01*
X81478967Y-88223556D01*
X81483481Y-88225260D01*
X81491902Y-88228821D01*
X81495353Y-88230281D01*
X81510873Y-88234562D01*
X81515739Y-88235904D01*
X81518857Y-88236853D01*
X81538924Y-88243542D01*
X81551590Y-88245988D01*
X81556280Y-88247087D01*
X82743345Y-88574554D01*
X84467687Y-89050235D01*
X84471493Y-89051444D01*
X84493299Y-89058372D01*
X84499452Y-89059470D01*
X84501486Y-89059834D01*
X84507081Y-89061102D01*
X84515105Y-89063316D01*
X84541741Y-89067022D01*
X85918096Y-89312800D01*
X85924759Y-89314375D01*
X85927082Y-89315062D01*
X85927088Y-89315063D01*
X85927092Y-89315064D01*
X85958852Y-89320078D01*
X85964958Y-89321168D01*
X85990608Y-89325749D01*
X85993030Y-89325859D01*
X85999854Y-89326552D01*
X86909267Y-89470143D01*
X86913170Y-89470890D01*
X86929953Y-89474671D01*
X86946772Y-89476199D01*
X86950786Y-89476699D01*
X86967446Y-89479330D01*
X86984603Y-89479771D01*
X86988627Y-89480005D01*
X87929183Y-89565510D01*
X87994163Y-89591182D01*
X88034950Y-89647912D01*
X88038591Y-89717687D01*
X88003931Y-89778354D01*
X87970361Y-89801381D01*
X87895776Y-89836161D01*
X87895769Y-89836165D01*
X87702197Y-89971705D01*
X87535108Y-90138794D01*
X87419120Y-90304443D01*
X87364543Y-90348067D01*
X87299055Y-90355933D01*
X85213341Y-90041404D01*
X85149986Y-90011943D01*
X85144150Y-90006472D01*
X85088958Y-89951280D01*
X85033462Y-89895784D01*
X84989161Y-89867948D01*
X84880723Y-89799811D01*
X84710454Y-89740231D01*
X84710449Y-89740230D01*
X84531204Y-89720035D01*
X84531196Y-89720035D01*
X84351950Y-89740230D01*
X84351945Y-89740231D01*
X84181676Y-89799811D01*
X84028937Y-89895784D01*
X83901384Y-90023337D01*
X83805411Y-90176076D01*
X83745831Y-90346345D01*
X83745830Y-90346350D01*
X83725635Y-90525596D01*
X83725635Y-90525603D01*
X83745830Y-90704849D01*
X83745831Y-90704854D01*
X83805411Y-90875123D01*
X83897633Y-91021892D01*
X83901384Y-91027862D01*
X84028938Y-91155416D01*
X84181678Y-91251389D01*
X84351939Y-91310966D01*
X84351945Y-91310968D01*
X84351950Y-91310969D01*
X84531196Y-91331165D01*
X84531200Y-91331165D01*
X84531204Y-91331165D01*
X84710449Y-91310969D01*
X84710451Y-91310968D01*
X84710455Y-91310968D01*
X84710458Y-91310966D01*
X84710462Y-91310966D01*
X84777040Y-91287668D01*
X84880722Y-91251389D01*
X84952161Y-91206500D01*
X85019394Y-91187500D01*
X85036616Y-91188879D01*
X87165335Y-91509894D01*
X87228689Y-91539355D01*
X87266058Y-91598392D01*
X87266619Y-91600415D01*
X87299694Y-91723855D01*
X87299696Y-91723859D01*
X87299697Y-91723863D01*
X87323600Y-91775122D01*
X87399564Y-91938028D01*
X87399565Y-91938030D01*
X87535103Y-92131599D01*
X87535104Y-92131600D01*
X87535105Y-92131601D01*
X87644412Y-92240908D01*
X87677896Y-92302229D01*
X87672912Y-92371921D01*
X87631041Y-92427855D01*
X87565577Y-92452272D01*
X87541809Y-92451687D01*
X86195486Y-92288496D01*
X86191713Y-92287921D01*
X84315326Y-91942271D01*
X84308738Y-91940681D01*
X82970984Y-91539355D01*
X79303309Y-90439052D01*
X79295605Y-90436171D01*
X77770176Y-89747269D01*
X76423504Y-89073933D01*
X76372346Y-89026346D01*
X76361917Y-89003978D01*
X76361085Y-89001600D01*
X76351023Y-88972844D01*
X76335958Y-88948869D01*
X76304519Y-88898833D01*
X76255050Y-88820104D01*
X76127496Y-88692550D01*
X76127397Y-88692488D01*
X75974757Y-88596577D01*
X75804488Y-88536997D01*
X75804483Y-88536996D01*
X75625238Y-88516801D01*
X75625230Y-88516801D01*
X75445979Y-88536997D01*
X75441020Y-88538129D01*
X75371281Y-88533853D01*
X75356074Y-88527174D01*
X75336192Y-88516801D01*
X74902257Y-88290400D01*
X73657040Y-87640721D01*
X73650821Y-87636999D01*
X73205368Y-87333712D01*
X73122422Y-87277238D01*
X73078086Y-87223239D01*
X73069983Y-87153841D01*
X73098387Y-87093664D01*
X73147997Y-87036259D01*
X73492152Y-86544753D01*
X73542508Y-86454531D01*
X73586966Y-86306028D01*
X73625048Y-86247455D01*
X73688756Y-86218766D01*
X73757861Y-86229074D01*
G37*
%TD.AperFunction*%
%TA.AperFunction,Conductor*%
G36*
X104041808Y-86783556D02*
G01*
X104081631Y-86840967D01*
X104084093Y-86910793D01*
X104048414Y-86970866D01*
X104044184Y-86974624D01*
X102759506Y-88064653D01*
X102731686Y-88082484D01*
X101810310Y-88512129D01*
X100656972Y-89006417D01*
X100639765Y-89012339D01*
X97974260Y-89715735D01*
X97904417Y-89713807D01*
X97888825Y-89707562D01*
X97885520Y-89705970D01*
X97715262Y-89646394D01*
X97715249Y-89646391D01*
X97536004Y-89626196D01*
X97535996Y-89626196D01*
X97356750Y-89646391D01*
X97356745Y-89646392D01*
X97186476Y-89705972D01*
X97033737Y-89801945D01*
X96906186Y-89929496D01*
X96906184Y-89929499D01*
X96897975Y-89942563D01*
X96845638Y-89988851D01*
X96813649Y-89998852D01*
X95038143Y-90298938D01*
X94968760Y-90290701D01*
X94914845Y-90246260D01*
X94899772Y-90215676D01*
X94858414Y-90090866D01*
X94766312Y-89941544D01*
X94642256Y-89817488D01*
X94577289Y-89777416D01*
X94530566Y-89725469D01*
X94519343Y-89656506D01*
X94547187Y-89592424D01*
X94605256Y-89553568D01*
X94631155Y-89548388D01*
X94832643Y-89530071D01*
X94857905Y-89528891D01*
X94867860Y-89527103D01*
X94873175Y-89526386D01*
X94883247Y-89525471D01*
X94907902Y-89519917D01*
X96849671Y-89171393D01*
X96854871Y-89170687D01*
X96865550Y-89169697D01*
X96888315Y-89164522D01*
X96891013Y-89163973D01*
X96914002Y-89159848D01*
X96924232Y-89156587D01*
X96929267Y-89155214D01*
X98005088Y-88910710D01*
X98007995Y-88910124D01*
X98030126Y-88906212D01*
X98041141Y-88902733D01*
X98046075Y-88901396D01*
X98047450Y-88901083D01*
X98057352Y-88898833D01*
X98078458Y-88891023D01*
X98081251Y-88890067D01*
X99028755Y-88590855D01*
X100166061Y-88244718D01*
X100171526Y-88243325D01*
X100179971Y-88241580D01*
X100205148Y-88232822D01*
X100230618Y-88225071D01*
X100238448Y-88221513D01*
X100243703Y-88219411D01*
X100356140Y-88180302D01*
X100425925Y-88176872D01*
X100486488Y-88211714D01*
X100518599Y-88273767D01*
X100520038Y-88283025D01*
X100532297Y-88387908D01*
X100566194Y-88485431D01*
X100566196Y-88485435D01*
X100587316Y-88530727D01*
X100587317Y-88530728D01*
X101924122Y-87907368D01*
X102807771Y-87495316D01*
X102786650Y-87450022D01*
X102757608Y-87401366D01*
X102740151Y-87333712D01*
X102762041Y-87267360D01*
X102816125Y-87223462D01*
X102978606Y-87155325D01*
X102981337Y-87154256D01*
X103521230Y-86957932D01*
X103552777Y-86947030D01*
X103553749Y-86946543D01*
X103560315Y-86943720D01*
X103560619Y-86943609D01*
X103561338Y-86943348D01*
X103590979Y-86927928D01*
X103908508Y-86769163D01*
X103977269Y-86756789D01*
X104041808Y-86783556D01*
G37*
%TD.AperFunction*%
%TA.AperFunction,Conductor*%
G36*
X122810494Y-63192330D02*
G01*
X122875563Y-63217782D01*
X122916542Y-63274373D01*
X122923215Y-63326665D01*
X122805467Y-64672523D01*
X122855252Y-64676879D01*
X122855265Y-64676880D01*
X122958496Y-64675380D01*
X122986635Y-64668711D01*
X123056407Y-64672403D01*
X123113106Y-64713231D01*
X123138732Y-64778232D01*
X123138475Y-64803062D01*
X123126017Y-64915179D01*
X123124460Y-64923708D01*
X122025643Y-69219087D01*
X122023896Y-69224768D01*
X120267912Y-74091351D01*
X120265360Y-74097400D01*
X119428599Y-75820145D01*
X119426092Y-75824791D01*
X118035707Y-78158652D01*
X118031919Y-78164286D01*
X116194807Y-80597217D01*
X116190414Y-80602416D01*
X111982799Y-85060487D01*
X111969457Y-85072700D01*
X111057810Y-85792421D01*
X111055229Y-85794352D01*
X109856373Y-86643543D01*
X109294511Y-87018117D01*
X109227812Y-87038925D01*
X109211845Y-87038163D01*
X109118404Y-87027635D01*
X109118396Y-87027635D01*
X108939150Y-87047830D01*
X108939142Y-87047832D01*
X108840283Y-87082424D01*
X108770504Y-87085985D01*
X108709877Y-87051256D01*
X108677650Y-86989262D01*
X108684056Y-86919687D01*
X108696298Y-86896385D01*
X108728631Y-86848104D01*
X108730313Y-86845715D01*
X108766718Y-86796585D01*
X108766966Y-86795955D01*
X108779287Y-86772465D01*
X108779306Y-86772435D01*
X108779656Y-86771914D01*
X108799379Y-86714006D01*
X108800372Y-86711305D01*
X108822827Y-86654407D01*
X108822903Y-86653740D01*
X108828721Y-86627863D01*
X108828938Y-86627228D01*
X108833001Y-86566215D01*
X108833267Y-86563284D01*
X108840226Y-86502551D01*
X108840127Y-86501891D01*
X108839051Y-86475384D01*
X108839096Y-86474717D01*
X108827224Y-86414711D01*
X108826725Y-86411829D01*
X108822944Y-86386420D01*
X108817729Y-86351368D01*
X108817458Y-86350743D01*
X108809565Y-86325442D01*
X108809555Y-86325394D01*
X108809433Y-86324775D01*
X108782449Y-86269914D01*
X108781214Y-86267243D01*
X108772150Y-86246360D01*
X108766346Y-86236687D01*
X108763879Y-86232156D01*
X108741973Y-86187618D01*
X108733158Y-86177545D01*
X108720144Y-86159682D01*
X108147225Y-85204817D01*
X108129613Y-85137204D01*
X108130334Y-85127137D01*
X108145965Y-84988403D01*
X108145965Y-84988396D01*
X108125769Y-84809150D01*
X108125768Y-84809145D01*
X108088577Y-84702860D01*
X108066189Y-84638878D01*
X108052401Y-84616934D01*
X108001249Y-84535526D01*
X107982249Y-84468289D01*
X108002617Y-84401454D01*
X108044719Y-84361894D01*
X108271539Y-84232282D01*
X108274867Y-84230515D01*
X108291146Y-84222510D01*
X108304418Y-84213661D01*
X108308000Y-84211447D01*
X108321842Y-84203539D01*
X108336275Y-84192564D01*
X108339366Y-84190361D01*
X108924729Y-83800121D01*
X108949208Y-83784903D01*
X108953980Y-83780987D01*
X108958929Y-83777321D01*
X108958928Y-83777321D01*
X108964060Y-83773901D01*
X108985743Y-83754925D01*
X109011612Y-83733699D01*
X110952498Y-82141178D01*
X110975165Y-82123784D01*
X110975172Y-82123779D01*
X110979737Y-82119213D01*
X110984235Y-82115135D01*
X110989234Y-82111035D01*
X111008765Y-82090185D01*
X112263817Y-80835133D01*
X112283195Y-80817256D01*
X112288908Y-80810400D01*
X112292666Y-80806284D01*
X112298979Y-80799972D01*
X112304570Y-80792685D01*
X112315027Y-80779058D01*
X113181386Y-79739426D01*
X114069821Y-78673303D01*
X114072964Y-78669812D01*
X114082361Y-78660147D01*
X114094656Y-78643644D01*
X114096726Y-78641017D01*
X114109910Y-78625198D01*
X114117105Y-78613817D01*
X114119785Y-78609918D01*
X116033261Y-76041832D01*
X116054090Y-76014621D01*
X116054140Y-76014532D01*
X116058166Y-76008407D01*
X116058225Y-76008329D01*
X116074947Y-75978395D01*
X117028665Y-74321936D01*
X117030612Y-74318779D01*
X117040943Y-74303092D01*
X117047599Y-74289361D01*
X117049647Y-74285494D01*
X117057258Y-74272277D01*
X117064429Y-74254902D01*
X117065932Y-74251548D01*
X117858517Y-72616842D01*
X117860984Y-72612256D01*
X117866576Y-72602841D01*
X117875670Y-72581618D01*
X117876855Y-72579020D01*
X117886941Y-72558222D01*
X117890387Y-72547839D01*
X117892243Y-72542949D01*
X117904431Y-72514511D01*
X118328544Y-71524912D01*
X118330699Y-71520398D01*
X118336349Y-71509695D01*
X118343977Y-71489097D01*
X118345116Y-71486247D01*
X118353751Y-71466099D01*
X118357024Y-71454448D01*
X118358572Y-71449689D01*
X118846629Y-70131933D01*
X118849004Y-70126373D01*
X118851879Y-70120465D01*
X118856384Y-70106948D01*
X118860891Y-70093431D01*
X118870775Y-70066742D01*
X118870777Y-70066737D01*
X118872233Y-70060334D01*
X118873862Y-70054511D01*
X119258617Y-68900246D01*
X119261252Y-68893640D01*
X119261698Y-68892688D01*
X119271783Y-68860750D01*
X119282342Y-68829075D01*
X119282538Y-68828055D01*
X119284287Y-68821152D01*
X119572536Y-67908363D01*
X119573652Y-67905143D01*
X119580754Y-67886393D01*
X119583962Y-67872755D01*
X119585186Y-67868305D01*
X119589412Y-67854926D01*
X119592901Y-67835181D01*
X119593589Y-67831837D01*
X119784281Y-67021402D01*
X119786291Y-67014622D01*
X119786769Y-67013294D01*
X119790914Y-66994221D01*
X119793805Y-66980929D01*
X119798097Y-66962683D01*
X119801383Y-66948722D01*
X119801525Y-66947302D01*
X119802623Y-66940360D01*
X119894682Y-66516890D01*
X119928159Y-66455563D01*
X119989477Y-66422069D01*
X120059170Y-66427044D01*
X120081820Y-66438236D01*
X120109395Y-66455563D01*
X120198875Y-66511788D01*
X120369145Y-66571368D01*
X120369150Y-66571369D01*
X120548396Y-66591565D01*
X120548400Y-66591565D01*
X120548404Y-66591565D01*
X120727649Y-66571369D01*
X120727652Y-66571368D01*
X120727655Y-66571368D01*
X120897922Y-66511789D01*
X121050662Y-66415816D01*
X121178216Y-66288262D01*
X121274189Y-66135522D01*
X121333768Y-65965255D01*
X121353965Y-65786000D01*
X121343830Y-65696050D01*
X121333769Y-65606750D01*
X121333768Y-65606745D01*
X121311628Y-65543472D01*
X121274189Y-65436478D01*
X121272878Y-65434392D01*
X121197910Y-65315081D01*
X121178910Y-65247845D01*
X121179382Y-65238232D01*
X121191280Y-65103127D01*
X121241469Y-64533173D01*
X121266958Y-64468119D01*
X121309341Y-64433240D01*
X121313716Y-64431043D01*
X121393279Y-64391086D01*
X121527675Y-64278314D01*
X121529994Y-64275198D01*
X121532134Y-64273587D01*
X121532636Y-64273056D01*
X121532726Y-64273141D01*
X121585813Y-64233176D01*
X121655491Y-64228003D01*
X121716905Y-64261321D01*
X121740272Y-64293587D01*
X121741856Y-64296742D01*
X121854549Y-64431043D01*
X121995185Y-64535742D01*
X122156173Y-64605186D01*
X122257587Y-64624592D01*
X122307370Y-64628947D01*
X122425117Y-63283088D01*
X122450569Y-63218019D01*
X122507160Y-63177040D01*
X122559452Y-63170367D01*
X122810494Y-63192330D01*
G37*
%TD.AperFunction*%
%TA.AperFunction,Conductor*%
G36*
X93625248Y-33853410D02*
G01*
X93631978Y-33853952D01*
X94797994Y-34012055D01*
X96544225Y-34248831D01*
X96561616Y-34252475D01*
X98991613Y-34946761D01*
X101557125Y-35785485D01*
X101579288Y-35795218D01*
X104381318Y-37368288D01*
X104397875Y-37377583D01*
X104401052Y-37379494D01*
X104894917Y-37696978D01*
X105158176Y-37866216D01*
X105302632Y-37959080D01*
X105348379Y-38011890D01*
X105352619Y-38022431D01*
X105395410Y-38144721D01*
X105395412Y-38144724D01*
X105458324Y-38244847D01*
X105491384Y-38297462D01*
X105618938Y-38425016D01*
X105771678Y-38520989D01*
X105850529Y-38548580D01*
X105941945Y-38580568D01*
X105941950Y-38580569D01*
X106121197Y-38600765D01*
X106121200Y-38600765D01*
X106121201Y-38600765D01*
X106168379Y-38595449D01*
X106206220Y-38591185D01*
X106275042Y-38603239D01*
X106289831Y-38611866D01*
X107047823Y-39127300D01*
X107051004Y-39129616D01*
X107923547Y-39808260D01*
X107928288Y-39812348D01*
X108786980Y-40632009D01*
X109001482Y-40836761D01*
X109005335Y-40840784D01*
X110032372Y-42014542D01*
X110036144Y-42019304D01*
X110039940Y-42024612D01*
X110039945Y-42024618D01*
X110039947Y-42024620D01*
X110059420Y-42045451D01*
X110078183Y-42066895D01*
X110083092Y-42071209D01*
X110087436Y-42075423D01*
X111386364Y-43464973D01*
X112212366Y-44348603D01*
X112224526Y-44363859D01*
X112772892Y-45175441D01*
X113441593Y-46165119D01*
X113454662Y-46184460D01*
X113456286Y-46186995D01*
X114305163Y-47585143D01*
X115137840Y-49103555D01*
X115145356Y-49120003D01*
X115777821Y-50822791D01*
X115779517Y-50828068D01*
X116378426Y-53024072D01*
X116927011Y-55417899D01*
X116928132Y-55424324D01*
X117276658Y-58312107D01*
X117277051Y-58316957D01*
X117278271Y-58346240D01*
X117261395Y-58414041D01*
X117257307Y-58419999D01*
X117157728Y-58578476D01*
X117098148Y-58748745D01*
X117098147Y-58748750D01*
X117077952Y-58927996D01*
X117077952Y-58928003D01*
X117098147Y-59107249D01*
X117098148Y-59107254D01*
X117157728Y-59277523D01*
X117253701Y-59430262D01*
X117292273Y-59468834D01*
X117325758Y-59530157D01*
X117328485Y-59551353D01*
X117376450Y-60702532D01*
X117376442Y-60707868D01*
X117278006Y-62922691D01*
X117277066Y-62931038D01*
X117085995Y-63981921D01*
X117084987Y-63986481D01*
X117081503Y-63999837D01*
X117081502Y-63999838D01*
X117078994Y-64019896D01*
X117078474Y-64023289D01*
X117074856Y-64043189D01*
X117074856Y-64043192D01*
X117074180Y-64056998D01*
X117073775Y-64061654D01*
X117049611Y-64254969D01*
X117021764Y-64319049D01*
X117014251Y-64327270D01*
X116921384Y-64420137D01*
X116825411Y-64572876D01*
X116765831Y-64743145D01*
X116765830Y-64743150D01*
X116745635Y-64922396D01*
X116745635Y-64922403D01*
X116765830Y-65101649D01*
X116765833Y-65101662D01*
X116825409Y-65271920D01*
X116844517Y-65302330D01*
X116863517Y-65369567D01*
X116860951Y-65393424D01*
X116682182Y-66257481D01*
X116681235Y-66261408D01*
X116284893Y-67698144D01*
X116283943Y-67701263D01*
X115996591Y-68563320D01*
X115994492Y-68568571D01*
X115993909Y-68570052D01*
X115983386Y-68602941D01*
X115972461Y-68635710D01*
X115972170Y-68636821D01*
X115970638Y-68642770D01*
X115584014Y-69850974D01*
X115582252Y-69855786D01*
X114993523Y-71278549D01*
X114991240Y-71283450D01*
X114352802Y-72511215D01*
X114350958Y-72514511D01*
X113457090Y-74004290D01*
X113454964Y-74007592D01*
X112459473Y-75451054D01*
X112457684Y-75453517D01*
X111808373Y-76302616D01*
X111123134Y-77183636D01*
X111118030Y-77189417D01*
X110247485Y-78059962D01*
X110244383Y-78062859D01*
X110232294Y-78073396D01*
X110232293Y-78073397D01*
X110220384Y-78086893D01*
X110217740Y-78089708D01*
X110205026Y-78102422D01*
X110205012Y-78102438D01*
X110195255Y-78115152D01*
X110192560Y-78118426D01*
X109464139Y-78943969D01*
X109460287Y-78947960D01*
X109048638Y-79337944D01*
X108535476Y-79824097D01*
X108531574Y-79827496D01*
X107564414Y-80601224D01*
X107558832Y-80605204D01*
X107556812Y-80606482D01*
X107556793Y-80606495D01*
X107532015Y-80627144D01*
X107506861Y-80647267D01*
X107506850Y-80647277D01*
X107505197Y-80648999D01*
X107500176Y-80653676D01*
X107417111Y-80722898D01*
X106634644Y-81374954D01*
X106630357Y-81378222D01*
X105969389Y-81838025D01*
X105903115Y-81860150D01*
X105884694Y-81859453D01*
X105765603Y-81846035D01*
X105765596Y-81846035D01*
X105586350Y-81866230D01*
X105586345Y-81866231D01*
X105416076Y-81925811D01*
X105263337Y-82021784D01*
X105135784Y-82149337D01*
X105039812Y-82302075D01*
X105039811Y-82302076D01*
X104999170Y-82418221D01*
X104958448Y-82474996D01*
X104944095Y-82484672D01*
X104212026Y-82907020D01*
X102841577Y-83650977D01*
X102773268Y-83665661D01*
X102768535Y-83665219D01*
X102585799Y-83644630D01*
X102585791Y-83644630D01*
X102406545Y-83664825D01*
X102406540Y-83664826D01*
X102236271Y-83724406D01*
X102083532Y-83820379D01*
X101955979Y-83947932D01*
X101860007Y-84100670D01*
X101860006Y-84100671D01*
X101840233Y-84157179D01*
X101799510Y-84213955D01*
X101782251Y-84225255D01*
X101254701Y-84511011D01*
X101248192Y-84514063D01*
X100290569Y-84897113D01*
X100285917Y-84898763D01*
X98846741Y-85345405D01*
X97753590Y-85643535D01*
X97750726Y-85644243D01*
X95498114Y-86144824D01*
X95494536Y-86145510D01*
X93947027Y-86395109D01*
X92819301Y-86542204D01*
X92813101Y-86542698D01*
X91976129Y-86567315D01*
X91139025Y-86591935D01*
X91135006Y-86591923D01*
X88345247Y-86492288D01*
X88338688Y-86491704D01*
X86620012Y-86246179D01*
X86615121Y-86245279D01*
X86456006Y-86209350D01*
X86394949Y-86175382D01*
X86361949Y-86113797D01*
X86367483Y-86044147D01*
X86378326Y-86022422D01*
X86425388Y-85947524D01*
X86425389Y-85947522D01*
X86484968Y-85777255D01*
X86495951Y-85679779D01*
X86505165Y-85598003D01*
X86505165Y-85597996D01*
X86484969Y-85418750D01*
X86484968Y-85418745D01*
X86456687Y-85337922D01*
X86425389Y-85248478D01*
X86329416Y-85095738D01*
X86201862Y-84968184D01*
X86140154Y-84929410D01*
X86093864Y-84877076D01*
X86083216Y-84808022D01*
X86111591Y-84744174D01*
X86169981Y-84705802D01*
X86230620Y-84702860D01*
X86359410Y-84728811D01*
X86481084Y-84753328D01*
X86684546Y-84785968D01*
X86699892Y-84788921D01*
X86725886Y-84792851D01*
X86753124Y-84796969D01*
X87311121Y-84886485D01*
X87462856Y-84910827D01*
X87485732Y-84913569D01*
X87671413Y-84935826D01*
X87689187Y-84938515D01*
X87748680Y-84945088D01*
X88450115Y-85029170D01*
X88663442Y-85046172D01*
X88683675Y-85048409D01*
X88748990Y-85052990D01*
X89441297Y-85108169D01*
X89659094Y-85116834D01*
X89681762Y-85118425D01*
X89752250Y-85120541D01*
X90434837Y-85147700D01*
X90656806Y-85147700D01*
X90681852Y-85148452D01*
X90757006Y-85147700D01*
X91429163Y-85147700D01*
X91655022Y-85138713D01*
X91681933Y-85138445D01*
X91682344Y-85138441D01*
X91690741Y-85138020D01*
X91761552Y-85134474D01*
X92422703Y-85108169D01*
X92652034Y-85089890D01*
X92680659Y-85088458D01*
X92681633Y-85088410D01*
X92713551Y-85085527D01*
X92764471Y-85080929D01*
X93413885Y-85029170D01*
X93646332Y-85001306D01*
X93678119Y-84998437D01*
X93764092Y-84987190D01*
X94401143Y-84910827D01*
X94636293Y-84873103D01*
X94666920Y-84869098D01*
X94670209Y-84868668D01*
X94690384Y-84865202D01*
X94758914Y-84853432D01*
X95382916Y-84753328D01*
X95620370Y-84705481D01*
X95649573Y-84700466D01*
X95656312Y-84699309D01*
X95685835Y-84693012D01*
X95747238Y-84679917D01*
X96357651Y-84556921D01*
X96596985Y-84498706D01*
X96634849Y-84490632D01*
X96638172Y-84489783D01*
X96727493Y-84466962D01*
X97323807Y-84321918D01*
X97564635Y-84253091D01*
X97604253Y-84242971D01*
X97698182Y-84214925D01*
X98279856Y-84048689D01*
X98521687Y-83969048D01*
X98562973Y-83956723D01*
X98657855Y-83924205D01*
X99224287Y-83737667D01*
X99466610Y-83647035D01*
X99509473Y-83632347D01*
X99604815Y-83595345D01*
X100155606Y-83389344D01*
X100397959Y-83287543D01*
X100427305Y-83276155D01*
X100442237Y-83270361D01*
X100469497Y-83258505D01*
X100537667Y-83228859D01*
X101072340Y-83004271D01*
X101199272Y-82944911D01*
X101314257Y-82891138D01*
X101359770Y-82871345D01*
X101395751Y-82853954D01*
X101454828Y-82825398D01*
X101973041Y-82583055D01*
X102214013Y-82458457D01*
X102248089Y-82441987D01*
X102260605Y-82435939D01*
X102298822Y-82415541D01*
X102354998Y-82385559D01*
X102856283Y-82126364D01*
X103095788Y-81990193D01*
X103143297Y-81964839D01*
X103236635Y-81910115D01*
X103720671Y-81634919D01*
X103958192Y-81487082D01*
X104006435Y-81458800D01*
X104098410Y-81399808D01*
X104564837Y-81109498D01*
X104799805Y-80949950D01*
X104848635Y-80918633D01*
X104938883Y-80855513D01*
X105387447Y-80550931D01*
X105619311Y-80379637D01*
X105668549Y-80345202D01*
X105756833Y-80278041D01*
X106187199Y-79960102D01*
X106415440Y-79777022D01*
X106464863Y-79739426D01*
X106550857Y-79668399D01*
X106962830Y-79337944D01*
X107186878Y-79143094D01*
X107236303Y-79102275D01*
X107319804Y-79027493D01*
X107713113Y-78685442D01*
X107760290Y-78640998D01*
X107932391Y-78478868D01*
X107981633Y-78434770D01*
X108014941Y-78402445D01*
X108062295Y-78356491D01*
X108436862Y-78003627D01*
X108650813Y-77785378D01*
X108699660Y-77737977D01*
X108777284Y-77656367D01*
X109132932Y-77293577D01*
X109341026Y-77063693D01*
X109389233Y-77013014D01*
X109463562Y-76928326D01*
X109800223Y-76556416D01*
X110001869Y-76315022D01*
X110049249Y-76261043D01*
X110120145Y-76173431D01*
X110437679Y-75793308D01*
X110449753Y-75777627D01*
X110632259Y-75540595D01*
X110650280Y-75518323D01*
X110678650Y-75483267D01*
X110745958Y-75392924D01*
X111044292Y-75005460D01*
X111231260Y-74741555D01*
X111276429Y-74680932D01*
X111340003Y-74588065D01*
X111619104Y-74194118D01*
X111797881Y-73919224D01*
X111841628Y-73855322D01*
X111901268Y-73760252D01*
X112161205Y-73360566D01*
X112331247Y-73074858D01*
X112373342Y-73007760D01*
X112428946Y-72910702D01*
X112669739Y-72506120D01*
X112830460Y-72209873D01*
X112870720Y-72139603D01*
X112922216Y-72040745D01*
X113143900Y-71632132D01*
X113294738Y-71325621D01*
X113332965Y-71252241D01*
X113380253Y-71151850D01*
X113582940Y-70739984D01*
X113723344Y-70423501D01*
X113759337Y-70347095D01*
X113802322Y-70245479D01*
X113986165Y-69831087D01*
X114115614Y-69504894D01*
X114118674Y-69497661D01*
X114149152Y-69425615D01*
X114187766Y-69323079D01*
X114352936Y-68906878D01*
X114470872Y-68571363D01*
X114501788Y-68489277D01*
X114536047Y-68385948D01*
X114682673Y-67968818D01*
X114788567Y-67624360D01*
X114816679Y-67539579D01*
X114846557Y-67435727D01*
X114974856Y-67018390D01*
X115068183Y-66665412D01*
X115093320Y-66578044D01*
X115094955Y-66571368D01*
X115118813Y-66473923D01*
X115229022Y-66057097D01*
X115309289Y-65695979D01*
X115331270Y-65606209D01*
X115352385Y-65502091D01*
X115444770Y-65086460D01*
X115511481Y-64717659D01*
X115530146Y-64625633D01*
X115546921Y-64521734D01*
X115621758Y-64108013D01*
X115674429Y-63732027D01*
X115689631Y-63637885D01*
X115702117Y-63534386D01*
X115759706Y-63123303D01*
X115797877Y-62740619D01*
X115809468Y-62644547D01*
X115817710Y-62541784D01*
X115858397Y-62133887D01*
X115881622Y-61744995D01*
X115889466Y-61647210D01*
X115890783Y-61614323D01*
X115893541Y-61545421D01*
X115917674Y-61141329D01*
X115925518Y-60746830D01*
X115927080Y-60707868D01*
X115929498Y-60647470D01*
X115930171Y-60512875D01*
X115932382Y-60401720D01*
X115937443Y-60147200D01*
X115930170Y-59781509D01*
X115929498Y-59646930D01*
X115928253Y-59615830D01*
X115925518Y-59547573D01*
X115917674Y-59153071D01*
X115893541Y-58748986D01*
X115889466Y-58647190D01*
X115881622Y-58549406D01*
X115858397Y-58160513D01*
X115817709Y-57752602D01*
X115810811Y-57666603D01*
X115809468Y-57649853D01*
X115797879Y-57553803D01*
X115759706Y-57171097D01*
X115702114Y-56759994D01*
X115689631Y-56656515D01*
X115674429Y-56562371D01*
X115621758Y-56186387D01*
X115546917Y-55772645D01*
X115530146Y-55668767D01*
X115511476Y-55576713D01*
X115444770Y-55207940D01*
X115352396Y-54792358D01*
X115331270Y-54688191D01*
X115309281Y-54598385D01*
X115229022Y-54237303D01*
X115118812Y-53820475D01*
X115117245Y-53814074D01*
X115093320Y-53716356D01*
X115068186Y-53628999D01*
X114974856Y-53276010D01*
X114846570Y-52858714D01*
X114833797Y-52814319D01*
X114816679Y-52754821D01*
X114788554Y-52669997D01*
X114682673Y-52325582D01*
X114666396Y-52279276D01*
X114536064Y-51908497D01*
X114501788Y-51805123D01*
X114470862Y-51723007D01*
X114352936Y-51387522D01*
X114347327Y-51373388D01*
X114187774Y-50971338D01*
X114149152Y-50868785D01*
X114133020Y-50830651D01*
X114115610Y-50789495D01*
X113986165Y-50463313D01*
X113802334Y-50048945D01*
X113759337Y-49947305D01*
X113746913Y-49920930D01*
X113723337Y-49870881D01*
X113582940Y-49554416D01*
X113380254Y-49142549D01*
X113332965Y-49042159D01*
X113294724Y-48968750D01*
X113143900Y-48662268D01*
X112922213Y-48253648D01*
X112870720Y-48154797D01*
X112830446Y-48084499D01*
X112669739Y-47788280D01*
X112428965Y-47383728D01*
X112373342Y-47286640D01*
X112331233Y-47219517D01*
X112161205Y-46933834D01*
X112005004Y-46693654D01*
X111901284Y-46534172D01*
X111841628Y-46439078D01*
X111797876Y-46375167D01*
X111619104Y-46100282D01*
X111340007Y-45706339D01*
X111276429Y-45613468D01*
X111235606Y-45558676D01*
X111231232Y-45552804D01*
X111044292Y-45288940D01*
X110745975Y-44901496D01*
X110678650Y-44811133D01*
X110632259Y-44753805D01*
X110437679Y-44501092D01*
X110120179Y-44121008D01*
X110049249Y-44033356D01*
X110001843Y-43979346D01*
X109800223Y-43737984D01*
X109463607Y-43366122D01*
X109389233Y-43281386D01*
X109374751Y-43266161D01*
X109341007Y-43230685D01*
X109132932Y-43000823D01*
X108777322Y-42638071D01*
X108699660Y-42556423D01*
X108650801Y-42509009D01*
X108528200Y-42383946D01*
X108436862Y-42290773D01*
X108343913Y-42203209D01*
X108062327Y-41937938D01*
X107981633Y-41859631D01*
X107932382Y-41815522D01*
X107713113Y-41608958D01*
X107319803Y-41266906D01*
X107236303Y-41192125D01*
X107186837Y-41151269D01*
X106962830Y-40956456D01*
X106550898Y-40626032D01*
X106464863Y-40554974D01*
X106415426Y-40517365D01*
X106187199Y-40334298D01*
X106174474Y-40324897D01*
X105756839Y-40016363D01*
X105668549Y-39949198D01*
X105619309Y-39914760D01*
X105387447Y-39743469D01*
X105084536Y-39537787D01*
X104938938Y-39438923D01*
X104848634Y-39375766D01*
X104799781Y-39344433D01*
X104564837Y-39184902D01*
X104346526Y-39049022D01*
X104098431Y-38894604D01*
X104096514Y-38893375D01*
X104006435Y-38835600D01*
X103958156Y-38807295D01*
X103720671Y-38659481D01*
X103236684Y-38384311D01*
X103143297Y-38329561D01*
X103123413Y-38318949D01*
X103095761Y-38304190D01*
X102856283Y-38168036D01*
X102765615Y-38121155D01*
X102355040Y-37908862D01*
X102260604Y-37858461D01*
X102213994Y-37835932D01*
X101973041Y-37711345D01*
X101454882Y-37469026D01*
X101359770Y-37423055D01*
X101314257Y-37403262D01*
X101072340Y-37290129D01*
X100537690Y-37065550D01*
X100442236Y-37024039D01*
X100421998Y-37016185D01*
X100397955Y-37006854D01*
X100155606Y-36905056D01*
X99604898Y-36699085D01*
X99509473Y-36662053D01*
X99485943Y-36653989D01*
X99466579Y-36647352D01*
X99224287Y-36556733D01*
X99193724Y-36546668D01*
X98657903Y-36370210D01*
X98562973Y-36337677D01*
X98521641Y-36325336D01*
X98279856Y-36245711D01*
X97698249Y-36079493D01*
X97633023Y-36060019D01*
X97604253Y-36051429D01*
X97598831Y-36050043D01*
X97564612Y-36041300D01*
X97323807Y-35972482D01*
X96727580Y-35827458D01*
X96634850Y-35803768D01*
X96596982Y-35795692D01*
X96357651Y-35737479D01*
X95747285Y-35614491D01*
X95656312Y-35595091D01*
X95620363Y-35588917D01*
X95382916Y-35541072D01*
X94758987Y-35440979D01*
X94670208Y-35425732D01*
X94636270Y-35421292D01*
X94401143Y-35383573D01*
X93764170Y-35307218D01*
X93726009Y-35302227D01*
X93678119Y-35295963D01*
X93650216Y-35293443D01*
X93646312Y-35293091D01*
X93413885Y-35265230D01*
X92764563Y-35213477D01*
X92681632Y-35205990D01*
X92652002Y-35204506D01*
X92422703Y-35186231D01*
X91761588Y-35159926D01*
X91682344Y-35155959D01*
X91654994Y-35155685D01*
X91429163Y-35146700D01*
X90757006Y-35146700D01*
X90681852Y-35145948D01*
X90656806Y-35146700D01*
X90434837Y-35146700D01*
X89752264Y-35173858D01*
X89689999Y-35175727D01*
X89681762Y-35175975D01*
X89678191Y-35176225D01*
X89659091Y-35177565D01*
X89441297Y-35186231D01*
X88748988Y-35241409D01*
X88683673Y-35245991D01*
X88663419Y-35248229D01*
X88450115Y-35265230D01*
X87748727Y-35349305D01*
X87723681Y-35352073D01*
X87689187Y-35355885D01*
X87680947Y-35357130D01*
X87671391Y-35358575D01*
X87462857Y-35383573D01*
X86753203Y-35497417D01*
X86699896Y-35505478D01*
X86684550Y-35508431D01*
X86481084Y-35541072D01*
X85764025Y-35685557D01*
X85717379Y-35694533D01*
X85704453Y-35697561D01*
X85506349Y-35737479D01*
X84782477Y-35913549D01*
X84743210Y-35922749D01*
X84732750Y-35925645D01*
X84540193Y-35972482D01*
X83810362Y-36181060D01*
X83778956Y-36189756D01*
X83770917Y-36192332D01*
X83584144Y-36245711D01*
X82849261Y-36487723D01*
X82826162Y-36495127D01*
X82820484Y-36497201D01*
X82639713Y-36556733D01*
X81900483Y-36833212D01*
X81886329Y-36838382D01*
X81882993Y-36839753D01*
X81708394Y-36905056D01*
X80965622Y-37217056D01*
X80960989Y-37218962D01*
X80959947Y-37219439D01*
X80791660Y-37290129D01*
X79890959Y-37711345D01*
X79014399Y-38164581D01*
X79007717Y-38168036D01*
X78143328Y-38659481D01*
X77299163Y-39184902D01*
X76476553Y-39743469D01*
X75676801Y-40334298D01*
X74901170Y-40956456D01*
X74150887Y-41608958D01*
X73427138Y-42290773D01*
X72731068Y-43000823D01*
X72063777Y-43737984D01*
X71426321Y-44501092D01*
X70819708Y-45288940D01*
X70244896Y-46100282D01*
X69702795Y-46933834D01*
X69194261Y-47788280D01*
X68720100Y-48662268D01*
X68281060Y-49554416D01*
X67877835Y-50463313D01*
X67511064Y-51387522D01*
X67181327Y-52325582D01*
X67015608Y-52864641D01*
X67007724Y-52876572D01*
X67007843Y-52877066D01*
X67002530Y-52907182D01*
X66889144Y-53276010D01*
X66634978Y-54237303D01*
X66419230Y-55207940D01*
X66242242Y-56186387D01*
X66104294Y-57171097D01*
X66005603Y-58160513D01*
X65946326Y-59153071D01*
X65926557Y-60147200D01*
X65946326Y-61141329D01*
X66005603Y-62133887D01*
X66104294Y-63123303D01*
X66242242Y-64108013D01*
X66419230Y-65086460D01*
X66634978Y-66057097D01*
X66889144Y-67018390D01*
X67181327Y-67968818D01*
X67511064Y-68906878D01*
X67877835Y-69831087D01*
X68281060Y-70739984D01*
X68720100Y-71632132D01*
X69194261Y-72506120D01*
X69702795Y-73360566D01*
X70244896Y-74194118D01*
X70819708Y-75005460D01*
X71426321Y-75793308D01*
X72063777Y-76556416D01*
X72731068Y-77293577D01*
X73427138Y-78003627D01*
X74150887Y-78685442D01*
X74901170Y-79337944D01*
X75676801Y-79960102D01*
X76476553Y-80550931D01*
X77299163Y-81109498D01*
X78143328Y-81634919D01*
X78991352Y-82117060D01*
X79007717Y-82126364D01*
X79890959Y-82583055D01*
X80754361Y-82986828D01*
X80791660Y-83004271D01*
X80959948Y-83074961D01*
X80960993Y-83075440D01*
X80965626Y-83077345D01*
X81708394Y-83389344D01*
X81883001Y-83454649D01*
X81886334Y-83456020D01*
X81892028Y-83458099D01*
X81900501Y-83461194D01*
X82587209Y-83718030D01*
X82639713Y-83737667D01*
X82820469Y-83797194D01*
X82824196Y-83798555D01*
X82826154Y-83799270D01*
X82840602Y-83803900D01*
X82849264Y-83806677D01*
X83584143Y-84048689D01*
X83650240Y-84067578D01*
X83770924Y-84102068D01*
X83773781Y-84102984D01*
X83778954Y-84104643D01*
X83787129Y-84106906D01*
X83810344Y-84113334D01*
X84540193Y-84321918D01*
X84732774Y-84368760D01*
X84743210Y-84371651D01*
X84780015Y-84380273D01*
X84782477Y-84380850D01*
X85506348Y-84556921D01*
X85528280Y-84561340D01*
X85549973Y-84565711D01*
X85611803Y-84598249D01*
X85646227Y-84659051D01*
X85642314Y-84728811D01*
X85601307Y-84785381D01*
X85539366Y-84810488D01*
X85520348Y-84812631D01*
X85520337Y-84812633D01*
X85350078Y-84872210D01*
X85343806Y-84875231D01*
X85342921Y-84873393D01*
X85285260Y-84889677D01*
X85255917Y-84885842D01*
X83305932Y-84388786D01*
X83287506Y-84382512D01*
X82386402Y-83994344D01*
X80050353Y-82988046D01*
X80047702Y-82986828D01*
X78027183Y-82001210D01*
X78010786Y-81991590D01*
X75103526Y-79971290D01*
X75088491Y-79958990D01*
X74237197Y-79143167D01*
X71521592Y-76540712D01*
X71505597Y-76521998D01*
X71352983Y-76302616D01*
X69137856Y-73118372D01*
X69128339Y-73102206D01*
X68975530Y-72790929D01*
X67786834Y-70369509D01*
X67785636Y-70366917D01*
X66792754Y-68083287D01*
X66789957Y-68075459D01*
X66759215Y-67966959D01*
X65953187Y-65122154D01*
X65949375Y-65103127D01*
X65949199Y-65101662D01*
X65505058Y-61400482D01*
X65504233Y-61381972D01*
X65552973Y-59773563D01*
X65553125Y-59770760D01*
X65853756Y-55912641D01*
X65854767Y-55905338D01*
X66249990Y-53929226D01*
X66250783Y-53925784D01*
X66399359Y-53356239D01*
X66435328Y-53296342D01*
X66453363Y-53282554D01*
X66491462Y-53258616D01*
X66619016Y-53131062D01*
X66714989Y-52978322D01*
X66766962Y-52829790D01*
X66773461Y-52820729D01*
X66773862Y-52814319D01*
X66794765Y-52628802D01*
X66794765Y-52628796D01*
X66774569Y-52449550D01*
X66774568Y-52449545D01*
X66749333Y-52377427D01*
X66714989Y-52279278D01*
X66689721Y-52239065D01*
X66640566Y-52160835D01*
X66619016Y-52126538D01*
X66491462Y-51998984D01*
X66471360Y-51986353D01*
X66338723Y-51903011D01*
X66168454Y-51843431D01*
X66168449Y-51843430D01*
X66002244Y-51824704D01*
X65937830Y-51797638D01*
X65898274Y-51740043D01*
X65896137Y-51670206D01*
X65897490Y-51665408D01*
X65978165Y-51400335D01*
X65979814Y-51395611D01*
X66824701Y-49258545D01*
X66826628Y-49254170D01*
X67818140Y-47221574D01*
X67820993Y-47216376D01*
X69155458Y-45041693D01*
X69159870Y-45035414D01*
X71134134Y-42567583D01*
X71146669Y-42554104D01*
X73172824Y-40676204D01*
X73176442Y-40673103D01*
X74426312Y-39682352D01*
X77306321Y-37399418D01*
X77309501Y-37397060D01*
X77923333Y-36972100D01*
X77929195Y-36968508D01*
X78024036Y-36917439D01*
X78092393Y-36902988D01*
X78096706Y-36903398D01*
X78282796Y-36924365D01*
X78282800Y-36924365D01*
X78282804Y-36924365D01*
X78462049Y-36904169D01*
X78462052Y-36904168D01*
X78462055Y-36904168D01*
X78632322Y-36844589D01*
X78785062Y-36748616D01*
X78912616Y-36621062D01*
X79008589Y-36468322D01*
X79013900Y-36453140D01*
X79054619Y-36396364D01*
X79077434Y-36382230D01*
X79678215Y-36094899D01*
X79682782Y-36092938D01*
X83065619Y-34799501D01*
X83082614Y-34794366D01*
X86590991Y-34003746D01*
X86608435Y-34001102D01*
X89725129Y-33753745D01*
X89731590Y-33753571D01*
X93625248Y-33853410D01*
G37*
%TD.AperFunction*%
%TA.AperFunction,Conductor*%
G36*
X58722907Y-62541214D02*
G01*
X58745941Y-62563539D01*
X58774999Y-62600118D01*
X58780847Y-62605772D01*
X58780748Y-62605873D01*
X58785241Y-62610055D01*
X58785337Y-62609949D01*
X58791393Y-62615372D01*
X58845313Y-62652217D01*
X58897816Y-62691118D01*
X58904924Y-62695064D01*
X58904854Y-62695188D01*
X58910269Y-62698060D01*
X58910334Y-62697934D01*
X58917585Y-62701603D01*
X58917591Y-62701607D01*
X58979235Y-62723249D01*
X59039993Y-62747227D01*
X59039998Y-62747227D01*
X59047881Y-62749198D01*
X59047846Y-62749337D01*
X59053824Y-62750711D01*
X59053854Y-62750572D01*
X59061803Y-62752239D01*
X59061807Y-62752239D01*
X59061809Y-62752240D01*
X59118963Y-62756583D01*
X59126947Y-62757190D01*
X59128248Y-62757339D01*
X59191848Y-62764626D01*
X59237992Y-62757759D01*
X59243664Y-62757182D01*
X61281096Y-62644901D01*
X61349117Y-62660867D01*
X61397708Y-62711073D01*
X61411678Y-62760978D01*
X61446048Y-63310906D01*
X61446167Y-63315179D01*
X61446063Y-63331039D01*
X61446064Y-63331054D01*
X61448315Y-63349064D01*
X61448673Y-63352884D01*
X61449804Y-63370984D01*
X61452856Y-63386581D01*
X61453532Y-63390799D01*
X61796744Y-66136501D01*
X61797026Y-66155863D01*
X61797260Y-66162413D01*
X61797261Y-66162418D01*
X61797261Y-66162419D01*
X61807899Y-66225734D01*
X61811102Y-66251356D01*
X61813502Y-66260555D01*
X61814652Y-66265931D01*
X61816227Y-66275299D01*
X61816229Y-66275310D01*
X61816230Y-66275316D01*
X61816232Y-66275321D01*
X61823798Y-66300010D01*
X61840006Y-66362121D01*
X61842505Y-66368268D01*
X61850141Y-66385971D01*
X61906957Y-66571369D01*
X62789872Y-69452464D01*
X62797433Y-69480260D01*
X62799819Y-69485961D01*
X62801905Y-69491730D01*
X62803723Y-69497660D01*
X62803723Y-69497661D01*
X62815691Y-69523877D01*
X63725246Y-71696703D01*
X64455416Y-73497791D01*
X64459512Y-73512583D01*
X64459945Y-73512456D01*
X64462234Y-73520248D01*
X64489460Y-73581763D01*
X64500322Y-73608556D01*
X64503334Y-73613866D01*
X64506100Y-73619360D01*
X64508565Y-73624930D01*
X64523609Y-73649603D01*
X64556808Y-73708120D01*
X64561708Y-73714606D01*
X64561346Y-73714878D01*
X64570791Y-73726981D01*
X65780094Y-75710238D01*
X65783292Y-75716190D01*
X65784549Y-75718869D01*
X65784552Y-75718876D01*
X65801665Y-75745615D01*
X65818175Y-75772691D01*
X65818185Y-75772706D01*
X65820024Y-75774987D01*
X65823978Y-75780480D01*
X66608046Y-77005587D01*
X66609856Y-77008600D01*
X66619565Y-77025852D01*
X66619571Y-77025860D01*
X66628093Y-77037225D01*
X66630713Y-77041003D01*
X66638369Y-77052964D01*
X66638374Y-77052971D01*
X66651149Y-77068130D01*
X66653334Y-77070878D01*
X66776332Y-77234875D01*
X67546091Y-78261223D01*
X67548081Y-78264036D01*
X67559270Y-78280823D01*
X67559280Y-78280836D01*
X67568381Y-78291237D01*
X67571319Y-78294861D01*
X67579624Y-78305933D01*
X67579628Y-78305938D01*
X67593749Y-78320373D01*
X67596083Y-78322896D01*
X68278040Y-79102275D01*
X68645425Y-79522143D01*
X69349267Y-80376809D01*
X69371308Y-80404128D01*
X69373204Y-80406186D01*
X69373302Y-80406290D01*
X69373403Y-80406400D01*
X69375277Y-80408394D01*
X69375280Y-80408396D01*
X69375281Y-80408398D01*
X69400963Y-80432369D01*
X70394108Y-81378222D01*
X70446513Y-81428131D01*
X70450059Y-81431797D01*
X70457779Y-81440467D01*
X70474739Y-81455114D01*
X70476959Y-81457128D01*
X70493206Y-81472601D01*
X70502597Y-81479449D01*
X70506584Y-81482617D01*
X71603506Y-82429960D01*
X72633507Y-83325613D01*
X72671179Y-83384457D01*
X72671057Y-83454326D01*
X72645962Y-83500262D01*
X72574605Y-83582833D01*
X72574588Y-83582854D01*
X72545933Y-83623778D01*
X73652607Y-84398682D01*
X73696231Y-84453259D01*
X73703424Y-84522758D01*
X73683058Y-84571380D01*
X73538517Y-84777806D01*
X73483940Y-84821431D01*
X73414442Y-84828625D01*
X73365819Y-84808258D01*
X72259145Y-84033356D01*
X72259144Y-84033356D01*
X72230479Y-84074296D01*
X72180158Y-84164454D01*
X72129876Y-84332413D01*
X72129874Y-84332420D01*
X72119680Y-84507444D01*
X72119680Y-84507445D01*
X72150124Y-84680103D01*
X72151522Y-84683344D01*
X72151817Y-84685758D01*
X72152196Y-84687024D01*
X72151979Y-84687088D01*
X72159999Y-84752698D01*
X72129635Y-84815625D01*
X72070070Y-84852146D01*
X72030454Y-84856246D01*
X72026569Y-84856019D01*
X72026565Y-84856020D01*
X71853796Y-84886483D01*
X71853787Y-84886486D01*
X71767345Y-84923773D01*
X71697991Y-84932251D01*
X71644725Y-84909778D01*
X71246879Y-84616934D01*
X71204558Y-84561340D01*
X71197165Y-84530951D01*
X71196242Y-84522758D01*
X71194168Y-84504345D01*
X71134589Y-84334078D01*
X71038616Y-84181338D01*
X70911062Y-84053784D01*
X70878551Y-84033356D01*
X70758323Y-83957811D01*
X70588054Y-83898231D01*
X70588049Y-83898230D01*
X70408804Y-83878035D01*
X70408796Y-83878035D01*
X70229550Y-83898230D01*
X70229545Y-83898231D01*
X70059276Y-83957811D01*
X69906537Y-84053784D01*
X69778984Y-84181337D01*
X69683009Y-84334080D01*
X69648393Y-84433007D01*
X69607672Y-84489783D01*
X69542719Y-84515530D01*
X69474157Y-84502074D01*
X69451778Y-84487152D01*
X68927761Y-84048689D01*
X68864070Y-83995397D01*
X68861595Y-83993210D01*
X68658433Y-83803900D01*
X66676617Y-81957208D01*
X66664325Y-81943953D01*
X66662375Y-81941516D01*
X65663171Y-80692510D01*
X65489352Y-80475236D01*
X65487113Y-80472258D01*
X64919646Y-79668346D01*
X64287576Y-78772914D01*
X64286012Y-78770586D01*
X63133568Y-76966760D01*
X63132084Y-76964316D01*
X63016016Y-76762725D01*
X62299542Y-75518323D01*
X62183693Y-75317111D01*
X62181969Y-75313902D01*
X62091999Y-75133962D01*
X61492245Y-73934454D01*
X61489970Y-73929337D01*
X61044506Y-72790929D01*
X60488971Y-71326336D01*
X60215724Y-70556276D01*
X59937176Y-69771276D01*
X59936292Y-69768595D01*
X59886283Y-69604281D01*
X59591211Y-68634758D01*
X59590138Y-68630755D01*
X59583670Y-68602941D01*
X59091412Y-66486232D01*
X59090678Y-66482571D01*
X58590983Y-63534372D01*
X58590283Y-63528616D01*
X58525188Y-62649828D01*
X58539866Y-62581519D01*
X58589146Y-62531988D01*
X58657381Y-62516963D01*
X58722907Y-62541214D01*
G37*
%TD.AperFunction*%
%TA.AperFunction,Conductor*%
G36*
X112021564Y-35490428D02*
G01*
X113346664Y-36546668D01*
X113352628Y-36552091D01*
X114732773Y-37981527D01*
X114735245Y-37984244D01*
X116828758Y-40426676D01*
X116833673Y-40433243D01*
X117315195Y-41174046D01*
X118101630Y-42383946D01*
X118121258Y-42414142D01*
X118123090Y-42417145D01*
X118721849Y-43464973D01*
X119214188Y-44351183D01*
X119216658Y-44356137D01*
X119220430Y-44364638D01*
X119231462Y-44382690D01*
X119233997Y-44386838D01*
X119246629Y-44409575D01*
X119252164Y-44417041D01*
X119255258Y-44421629D01*
X119782332Y-45284114D01*
X119785292Y-45289551D01*
X120424764Y-46617684D01*
X120426044Y-46620522D01*
X120818231Y-47551967D01*
X120819649Y-47555660D01*
X121208582Y-48673838D01*
X121210343Y-48679873D01*
X121211585Y-48685101D01*
X121211586Y-48685104D01*
X121222111Y-48712734D01*
X121231814Y-48740629D01*
X121231822Y-48740648D01*
X121234228Y-48745437D01*
X121236764Y-48751198D01*
X121674676Y-49900715D01*
X122026742Y-50824889D01*
X122028620Y-50830651D01*
X122471733Y-52455399D01*
X122472714Y-52459554D01*
X122767920Y-53935580D01*
X122768722Y-53940683D01*
X122770005Y-53951883D01*
X122775526Y-53973970D01*
X122776172Y-53976843D01*
X122780635Y-53999155D01*
X122780638Y-53999163D01*
X122784266Y-54009817D01*
X122785726Y-54014768D01*
X122972454Y-54761684D01*
X122973882Y-54769485D01*
X123065952Y-55552081D01*
X123066253Y-55555413D01*
X123066602Y-55560935D01*
X123066604Y-55560950D01*
X123066604Y-55560953D01*
X123071061Y-55595497D01*
X123075122Y-55630013D01*
X123075123Y-55630015D01*
X123076123Y-55635433D01*
X123076639Y-55638728D01*
X123260755Y-57065625D01*
X123273272Y-57162633D01*
X123370243Y-58229306D01*
X123370461Y-58232795D01*
X123370594Y-58236698D01*
X123374125Y-58272011D01*
X123377329Y-58307247D01*
X123377935Y-58311096D01*
X123378381Y-58314565D01*
X123472792Y-59258676D01*
X123473100Y-59264849D01*
X123473100Y-59442660D01*
X123453415Y-59509699D01*
X123436781Y-59530341D01*
X123423784Y-59543337D01*
X123327811Y-59696076D01*
X123268231Y-59866345D01*
X123268230Y-59866350D01*
X123248035Y-60045596D01*
X123248035Y-60045603D01*
X123268230Y-60224849D01*
X123268231Y-60224854D01*
X123327813Y-60395130D01*
X123329545Y-60398725D01*
X123329965Y-60401279D01*
X123330111Y-60401695D01*
X123330038Y-60401720D01*
X123340897Y-60467666D01*
X123313175Y-60531800D01*
X123255179Y-60570766D01*
X123185324Y-60572191D01*
X123176871Y-60569568D01*
X123064449Y-60530230D01*
X123020540Y-60525283D01*
X122956126Y-60498216D01*
X122936049Y-60477550D01*
X122814804Y-60319533D01*
X122789612Y-60254366D01*
X122790243Y-60227864D01*
X122801496Y-60142399D01*
X122783878Y-60008586D01*
X122783878Y-59976214D01*
X122801496Y-59842400D01*
X122781517Y-59690655D01*
X122781517Y-59690654D01*
X122722946Y-59549250D01*
X122629775Y-59427827D01*
X122516316Y-59340767D01*
X122475114Y-59284339D01*
X122467804Y-59241957D01*
X122468028Y-59178097D01*
X122469530Y-58748676D01*
X122489449Y-58681707D01*
X122505849Y-58661429D01*
X122549815Y-58617463D01*
X122550997Y-58615583D01*
X122645789Y-58464722D01*
X122705368Y-58294455D01*
X122712171Y-58234076D01*
X122725565Y-58115203D01*
X122725565Y-58115196D01*
X122705369Y-57935950D01*
X122705368Y-57935945D01*
X122693542Y-57902147D01*
X122645789Y-57765678D01*
X122549816Y-57612938D01*
X122422262Y-57485384D01*
X122422260Y-57485383D01*
X122269523Y-57389411D01*
X122099254Y-57329831D01*
X122099249Y-57329830D01*
X121920004Y-57309635D01*
X121919996Y-57309635D01*
X121740750Y-57329830D01*
X121740745Y-57329831D01*
X121570476Y-57389411D01*
X121417739Y-57485383D01*
X121339378Y-57563744D01*
X121278054Y-57597228D01*
X121208363Y-57592244D01*
X121152429Y-57550372D01*
X121146703Y-57542033D01*
X121127418Y-57511340D01*
X120999862Y-57383784D01*
X120847123Y-57287811D01*
X120676854Y-57228231D01*
X120676849Y-57228230D01*
X120497604Y-57208035D01*
X120490637Y-57208035D01*
X120490637Y-57205900D01*
X120431949Y-57195608D01*
X120380579Y-57148247D01*
X120363198Y-57092889D01*
X120269421Y-55717493D01*
X120269386Y-55710696D01*
X120263840Y-55635633D01*
X120263250Y-55626984D01*
X120261367Y-55599353D01*
X120261364Y-55599341D01*
X120261141Y-55597678D01*
X120260920Y-55596101D01*
X120260919Y-55596086D01*
X120259934Y-55591342D01*
X120253512Y-55560398D01*
X120246253Y-55524400D01*
X120238740Y-55487139D01*
X120238739Y-55487137D01*
X120238646Y-55486675D01*
X120236850Y-55480117D01*
X119695807Y-52873278D01*
X119690219Y-52842679D01*
X119690216Y-52842667D01*
X119689092Y-52839177D01*
X119687399Y-52832762D01*
X119686657Y-52829189D01*
X119686652Y-52829171D01*
X119676432Y-52799865D01*
X119661926Y-52754821D01*
X118715107Y-49814700D01*
X118705784Y-49783679D01*
X118704851Y-49781605D01*
X118702383Y-49775188D01*
X118701692Y-49773043D01*
X118690374Y-49749153D01*
X118687858Y-49743842D01*
X117321279Y-46707001D01*
X117315633Y-46693654D01*
X117309025Y-46678029D01*
X117307373Y-46675216D01*
X117304293Y-46669256D01*
X117302957Y-46666287D01*
X117286432Y-46639560D01*
X115415855Y-43454526D01*
X115403181Y-43430894D01*
X115398262Y-43424051D01*
X115395140Y-43419255D01*
X115391758Y-43413496D01*
X115390889Y-43412015D01*
X115374423Y-43390884D01*
X114216858Y-41780359D01*
X114199557Y-41754959D01*
X114196837Y-41751913D01*
X114192741Y-41746805D01*
X114190369Y-41743505D01*
X114169348Y-41721125D01*
X113128142Y-40554974D01*
X112924694Y-40327112D01*
X112920959Y-40322504D01*
X112916639Y-40316618D01*
X112897396Y-40296539D01*
X112878885Y-40275805D01*
X112878877Y-40275797D01*
X112873343Y-40271030D01*
X112869041Y-40266950D01*
X111731955Y-39080425D01*
X111730062Y-39078358D01*
X111714577Y-39060665D01*
X111706684Y-39053729D01*
X111702860Y-39050066D01*
X111695589Y-39042479D01*
X111677219Y-39027752D01*
X111675117Y-39025987D01*
X110185212Y-37716677D01*
X110162796Y-37696978D01*
X110125432Y-37637938D01*
X110125919Y-37568070D01*
X110158254Y-37514886D01*
X110217485Y-37457354D01*
X110249611Y-37419068D01*
X109214684Y-36550662D01*
X109175982Y-36492490D01*
X109174874Y-36422629D01*
X109199401Y-36375966D01*
X109361384Y-36182923D01*
X109419555Y-36144221D01*
X109489416Y-36143113D01*
X109536079Y-36167639D01*
X110571005Y-37036042D01*
X110603122Y-36997770D01*
X110603134Y-36997754D01*
X110661115Y-36912332D01*
X110661121Y-36912320D01*
X110725847Y-36749393D01*
X110751259Y-36575911D01*
X110735978Y-36401262D01*
X110734869Y-36397914D01*
X110734785Y-36395482D01*
X110734518Y-36394188D01*
X110734739Y-36394142D01*
X110732467Y-36328085D01*
X110768198Y-36268043D01*
X110830719Y-36236850D01*
X110870548Y-36236219D01*
X110874398Y-36236783D01*
X111049172Y-36221492D01*
X111215708Y-36166307D01*
X111365030Y-36074205D01*
X111365032Y-36074202D01*
X111365036Y-36074200D01*
X111439138Y-36002221D01*
X111439139Y-36002219D01*
X111439145Y-36002214D01*
X111824828Y-35542574D01*
X111841674Y-35517754D01*
X111895611Y-35473340D01*
X111964997Y-35465137D01*
X112021564Y-35490428D01*
G37*
%TD.AperFunction*%
%TA.AperFunction,Conductor*%
G36*
X61283431Y-58612116D02*
G01*
X61328643Y-58665386D01*
X61339300Y-58718379D01*
X61323076Y-59480890D01*
X61301970Y-59547495D01*
X61248204Y-59592117D01*
X61212988Y-59601472D01*
X61085549Y-59615830D01*
X61085542Y-59615832D01*
X61000554Y-59645571D01*
X60930775Y-59649132D01*
X60870148Y-59614403D01*
X60837921Y-59552410D01*
X60836884Y-59510736D01*
X60865609Y-59312658D01*
X60873758Y-59283019D01*
X60876017Y-59277564D01*
X60878280Y-59272710D01*
X60882948Y-59263738D01*
X60891593Y-59239962D01*
X60915958Y-59181141D01*
X60915958Y-59181133D01*
X60916773Y-59178097D01*
X60922278Y-59155577D01*
X61097283Y-58674312D01*
X61138691Y-58618039D01*
X61147847Y-58611696D01*
X61149359Y-58610746D01*
X61216596Y-58591747D01*
X61283431Y-58612116D01*
G37*
%TD.AperFunction*%
%TA.AperFunction,Conductor*%
G36*
X62768197Y-42352365D02*
G01*
X62805666Y-42411338D01*
X62807265Y-42417478D01*
X63041013Y-43419255D01*
X63068755Y-43538147D01*
X63069970Y-43545142D01*
X63070736Y-43551793D01*
X63088160Y-43621316D01*
X63095730Y-43653755D01*
X63095735Y-43653773D01*
X63096158Y-43654896D01*
X63098269Y-43661650D01*
X63098564Y-43662827D01*
X63098567Y-43662837D01*
X63110811Y-43693809D01*
X63136069Y-43760887D01*
X63139224Y-43766786D01*
X63142209Y-43773232D01*
X63286158Y-44137357D01*
X63286163Y-44137369D01*
X64140726Y-46299010D01*
X63437228Y-46042960D01*
X62994475Y-47412322D01*
X62994478Y-47412305D01*
X63004225Y-47382161D01*
X63344076Y-46331058D01*
X63349920Y-46309841D01*
X63355355Y-46288270D01*
X63367136Y-46144873D01*
X63362889Y-46075133D01*
X63333794Y-45934226D01*
X63273012Y-45765844D01*
X63231269Y-45677841D01*
X63206840Y-45637032D01*
X63148997Y-45558673D01*
X63038547Y-45466466D01*
X63022408Y-45456508D01*
X62979093Y-45429782D01*
X62979081Y-45429776D01*
X62847151Y-45372430D01*
X62847137Y-45372425D01*
X62738644Y-45342722D01*
X62015930Y-45144859D01*
X61986935Y-45139394D01*
X61935601Y-45129719D01*
X61935603Y-45129719D01*
X61920312Y-45128102D01*
X61895856Y-45125517D01*
X61895847Y-45125516D01*
X61814170Y-45123520D01*
X61814169Y-45123520D01*
X61673128Y-45152006D01*
X61607314Y-45175441D01*
X61480013Y-45242509D01*
X61376768Y-45342722D01*
X61376767Y-45342724D01*
X61334068Y-45398025D01*
X61263241Y-45523264D01*
X60544317Y-47366392D01*
X60544315Y-47366397D01*
X60511858Y-47504049D01*
X60505601Y-47572463D01*
X60505601Y-47572475D01*
X60512543Y-47713694D01*
X60512543Y-47713696D01*
X60512543Y-47713698D01*
X60512544Y-47713700D01*
X60559474Y-47849712D01*
X60559475Y-47849714D01*
X60591417Y-47911820D01*
X60591428Y-47911841D01*
X60591431Y-47911845D01*
X60591432Y-47911848D01*
X60643729Y-47985436D01*
X60674778Y-48029126D01*
X60674779Y-48029127D01*
X60674780Y-48029128D01*
X60742898Y-48082801D01*
X60783372Y-48139752D01*
X60786631Y-48209545D01*
X60751639Y-48270021D01*
X60695530Y-48300668D01*
X60521536Y-48343096D01*
X60502048Y-48346231D01*
X60481950Y-48347838D01*
X60481936Y-48347841D01*
X60440961Y-48362409D01*
X60434885Y-48364226D01*
X60429911Y-48365439D01*
X60429910Y-48365439D01*
X60409090Y-48373516D01*
X60402149Y-48376209D01*
X60372790Y-48386647D01*
X60337925Y-48399044D01*
X60330691Y-48402741D01*
X60330421Y-48402213D01*
X60330029Y-48402420D01*
X60330315Y-48402941D01*
X60323186Y-48406844D01*
X60268183Y-48447106D01*
X60212074Y-48485772D01*
X60206043Y-48491217D01*
X60205648Y-48490779D01*
X60205320Y-48491084D01*
X60205727Y-48491509D01*
X60199854Y-48497122D01*
X60157157Y-48550234D01*
X60112948Y-48602129D01*
X60108533Y-48608946D01*
X60108033Y-48608622D01*
X60107798Y-48608998D01*
X60108307Y-48609308D01*
X60104085Y-48616253D01*
X60076589Y-48678605D01*
X60063800Y-48705505D01*
X60063799Y-48705507D01*
X60062223Y-48710379D01*
X60059963Y-48716308D01*
X60042414Y-48756103D01*
X60039330Y-48776033D01*
X60034768Y-48795236D01*
X59677574Y-49899291D01*
X59638209Y-49957016D01*
X59625568Y-49966114D01*
X59543341Y-50017781D01*
X59543339Y-50017782D01*
X59415784Y-50145337D01*
X59319811Y-50298076D01*
X59260231Y-50468345D01*
X59260230Y-50468350D01*
X59240035Y-50647596D01*
X59240035Y-50647603D01*
X59260230Y-50826849D01*
X59260231Y-50826854D01*
X59319811Y-50997123D01*
X59352870Y-51049735D01*
X59415784Y-51149862D01*
X59543338Y-51277416D01*
X59696078Y-51373389D01*
X59866345Y-51432968D01*
X59866350Y-51432969D01*
X60045596Y-51453165D01*
X60045600Y-51453165D01*
X60045604Y-51453165D01*
X60224849Y-51432969D01*
X60224852Y-51432968D01*
X60224855Y-51432968D01*
X60395122Y-51373389D01*
X60547862Y-51277416D01*
X60650315Y-51174962D01*
X60540761Y-51475964D01*
X61956243Y-51945827D01*
X61934811Y-52004712D01*
X61920448Y-52062909D01*
X61920446Y-52062922D01*
X61921588Y-52206827D01*
X61921589Y-52206835D01*
X61963231Y-52344602D01*
X61964925Y-52348233D01*
X61965526Y-52352192D01*
X61965797Y-52353088D01*
X61965668Y-52353126D01*
X61975416Y-52417311D01*
X61974715Y-52421842D01*
X61956152Y-52528786D01*
X61955180Y-52533356D01*
X61951432Y-52548204D01*
X61949577Y-52554241D01*
X61766626Y-53056897D01*
X61747373Y-53091395D01*
X61730610Y-53112596D01*
X61715132Y-53128888D01*
X61713806Y-53130051D01*
X61713802Y-53130055D01*
X61639663Y-53202162D01*
X61639662Y-53202163D01*
X61639661Y-53202163D01*
X61607279Y-53240857D01*
X61607268Y-53240871D01*
X61549364Y-53326547D01*
X61500155Y-53461746D01*
X61500151Y-53461758D01*
X61485844Y-53530134D01*
X61485842Y-53530146D01*
X61476716Y-53673724D01*
X61476717Y-53673726D01*
X61476717Y-53673729D01*
X61505899Y-53802938D01*
X61508414Y-53814074D01*
X61533348Y-53879343D01*
X61533350Y-53879349D01*
X61533351Y-53879350D01*
X61603305Y-54005079D01*
X61705848Y-54106007D01*
X61705852Y-54106010D01*
X61762113Y-54147434D01*
X61888926Y-54215378D01*
X61888925Y-54215378D01*
X61888929Y-54215379D01*
X61888934Y-54215382D01*
X63087864Y-54651758D01*
X63199219Y-54678484D01*
X63254622Y-54685279D01*
X63326183Y-54685890D01*
X63369118Y-54686257D01*
X63369118Y-54686256D01*
X63369121Y-54686257D01*
X63369123Y-54686256D01*
X63369127Y-54686256D01*
X63424660Y-54672207D01*
X63508608Y-54650972D01*
X63573216Y-54624372D01*
X63697109Y-54551220D01*
X63795377Y-54446125D01*
X63835348Y-54388818D01*
X63835351Y-54388815D01*
X63900028Y-54260291D01*
X63955462Y-54094914D01*
X63995431Y-54037608D01*
X64060039Y-54011008D01*
X64096907Y-54012645D01*
X64526661Y-54096986D01*
X64540780Y-54101511D01*
X64540944Y-54100974D01*
X64548722Y-54103341D01*
X64615715Y-54114464D01*
X64625705Y-54116424D01*
X64644735Y-54120160D01*
X64644737Y-54120160D01*
X64644742Y-54120161D01*
X64650109Y-54120498D01*
X64656361Y-54121212D01*
X64699507Y-54128377D01*
X64719308Y-54126444D01*
X64739130Y-54126104D01*
X64758989Y-54127355D01*
X64801884Y-54118707D01*
X64808083Y-54117783D01*
X64851632Y-54113536D01*
X64851634Y-54113535D01*
X64859725Y-54112746D01*
X64859882Y-54114363D01*
X64920159Y-54117823D01*
X64976677Y-54158902D01*
X65002013Y-54224016D01*
X65000058Y-54258921D01*
X64901739Y-54750516D01*
X64869289Y-54812394D01*
X64808537Y-54846904D01*
X64738772Y-54843092D01*
X64714175Y-54831192D01*
X64662323Y-54798611D01*
X64492054Y-54739031D01*
X64492049Y-54739030D01*
X64312804Y-54718835D01*
X64312796Y-54718835D01*
X64133550Y-54739030D01*
X64133545Y-54739031D01*
X63963276Y-54798611D01*
X63810537Y-54894584D01*
X63682984Y-55022137D01*
X63587011Y-55174876D01*
X63527431Y-55345145D01*
X63527430Y-55345150D01*
X63507235Y-55524396D01*
X63507235Y-55524403D01*
X63527430Y-55703649D01*
X63527433Y-55703662D01*
X63587009Y-55873920D01*
X63654830Y-55981857D01*
X63673830Y-56049093D01*
X63672394Y-56066683D01*
X63573929Y-56706709D01*
X63569207Y-56726462D01*
X63562906Y-56745693D01*
X63562905Y-56745696D01*
X63561073Y-56787842D01*
X63560411Y-56794574D01*
X63559776Y-56798699D01*
X63559774Y-56798722D01*
X63559291Y-56828828D01*
X63536286Y-57357941D01*
X63513708Y-57424062D01*
X63500085Y-57440236D01*
X63428984Y-57511337D01*
X63333011Y-57664076D01*
X63273431Y-57834345D01*
X63273430Y-57834349D01*
X63265367Y-57905919D01*
X63238301Y-57970333D01*
X63180706Y-58009888D01*
X63121248Y-58014261D01*
X62963701Y-57987322D01*
X62811511Y-58001434D01*
X62811505Y-58001435D01*
X62668157Y-58054453D01*
X62668149Y-58054457D01*
X62551495Y-58137045D01*
X62485406Y-58159715D01*
X62417551Y-58143056D01*
X62379887Y-58109217D01*
X62347932Y-58065686D01*
X62347928Y-58065681D01*
X62228678Y-57970079D01*
X62228668Y-57970073D01*
X62088737Y-57908594D01*
X62046705Y-57902148D01*
X61937655Y-57885424D01*
X61937654Y-57885424D01*
X61785722Y-57902147D01*
X61785721Y-57902148D01*
X61720871Y-57927407D01*
X61651258Y-57933396D01*
X61589459Y-57900798D01*
X61555093Y-57839964D01*
X61552647Y-57825745D01*
X61542169Y-57732750D01*
X61542168Y-57732745D01*
X61500245Y-57612937D01*
X61482589Y-57562478D01*
X61386616Y-57409738D01*
X61386612Y-57409734D01*
X61384838Y-57407509D01*
X61384138Y-57405795D01*
X61382911Y-57403842D01*
X61383253Y-57403626D01*
X61358432Y-57342821D01*
X61371190Y-57274126D01*
X61410666Y-57228623D01*
X61523053Y-57149930D01*
X61523055Y-57149928D01*
X61635721Y-57023328D01*
X61635723Y-57023325D01*
X61716157Y-56874151D01*
X61716160Y-56874143D01*
X61743388Y-56778139D01*
X61743390Y-56778133D01*
X61751780Y-56730543D01*
X61047489Y-56606359D01*
X60692128Y-56543699D01*
X60629525Y-56512672D01*
X60593634Y-56452725D01*
X60591544Y-56400051D01*
X60641526Y-56116586D01*
X61149239Y-56116586D01*
X61838603Y-56238140D01*
X61838603Y-56238139D01*
X61846993Y-56190560D01*
X61846995Y-56190549D01*
X61854246Y-56091017D01*
X61829683Y-55923321D01*
X61767112Y-55765822D01*
X61767110Y-55765819D01*
X61669896Y-55626984D01*
X61543298Y-55514320D01*
X61543295Y-55514318D01*
X61394121Y-55433884D01*
X61394115Y-55433881D01*
X61298101Y-55406651D01*
X61298090Y-55406648D01*
X61275134Y-55402600D01*
X61275133Y-55402601D01*
X61149239Y-56116586D01*
X60641526Y-56116586D01*
X60782729Y-55315778D01*
X60759759Y-55311728D01*
X60660226Y-55304476D01*
X60492538Y-55329039D01*
X60492531Y-55329041D01*
X60335030Y-55391612D01*
X60335023Y-55391616D01*
X60324326Y-55399106D01*
X60258119Y-55421431D01*
X60190353Y-55404417D01*
X60151633Y-55368651D01*
X60143826Y-55357502D01*
X60143824Y-55357499D01*
X60033368Y-55259201D01*
X59996375Y-55199929D01*
X59992646Y-55152144D01*
X60010180Y-55002472D01*
X60037530Y-54938181D01*
X60045636Y-54929241D01*
X60167416Y-54807462D01*
X60263389Y-54654722D01*
X60322968Y-54484455D01*
X60322969Y-54484449D01*
X60343165Y-54305203D01*
X60343165Y-54305196D01*
X60322969Y-54125950D01*
X60322968Y-54125945D01*
X60315991Y-54106007D01*
X60263389Y-53955678D01*
X60261004Y-53951883D01*
X60215424Y-53879343D01*
X60167416Y-53802938D01*
X60039862Y-53675384D01*
X59966006Y-53628977D01*
X59887123Y-53579411D01*
X59716854Y-53519831D01*
X59716849Y-53519830D01*
X59537604Y-53499635D01*
X59537596Y-53499635D01*
X59358350Y-53519830D01*
X59358345Y-53519831D01*
X59188076Y-53579411D01*
X59035337Y-53675384D01*
X58907784Y-53802937D01*
X58811811Y-53955676D01*
X58752231Y-54125945D01*
X58752230Y-54125950D01*
X58732035Y-54305196D01*
X58732035Y-54305203D01*
X58752230Y-54484449D01*
X58752231Y-54484454D01*
X58811811Y-54654723D01*
X58872002Y-54750516D01*
X58898322Y-54792404D01*
X58898621Y-54792879D01*
X58917621Y-54860115D01*
X58916785Y-54873278D01*
X58900127Y-55015479D01*
X58872776Y-55079773D01*
X58822753Y-55116290D01*
X58808339Y-55122016D01*
X58808338Y-55122017D01*
X58669413Y-55219292D01*
X58669409Y-55219294D01*
X58556664Y-55345984D01*
X58476172Y-55495267D01*
X58476170Y-55495272D01*
X58448924Y-55591342D01*
X58448919Y-55591364D01*
X58345307Y-56178986D01*
X58338049Y-56278598D01*
X58362629Y-56446402D01*
X58362630Y-56446406D01*
X58425247Y-56604020D01*
X58522522Y-56742944D01*
X58522524Y-56742948D01*
X58649214Y-56855693D01*
X58649215Y-56855694D01*
X58649217Y-56855695D01*
X58798497Y-56936186D01*
X58840526Y-56948105D01*
X58894572Y-56963433D01*
X58894581Y-56963435D01*
X58894588Y-56963437D01*
X59432972Y-57058368D01*
X59532589Y-57065626D01*
X59700395Y-57041046D01*
X59858010Y-56978429D01*
X59869164Y-56970618D01*
X59935368Y-56948291D01*
X60003136Y-56965300D01*
X60041862Y-57001069D01*
X60049352Y-57011766D01*
X60049353Y-57011767D01*
X60175953Y-57124433D01*
X60175955Y-57124435D01*
X60182888Y-57128173D01*
X60232555Y-57177315D01*
X60247769Y-57245508D01*
X60223700Y-57311101D01*
X60211722Y-57325000D01*
X60126983Y-57409739D01*
X60031011Y-57562476D01*
X59971431Y-57732745D01*
X59971430Y-57732750D01*
X59951235Y-57911996D01*
X59951235Y-57912003D01*
X59971430Y-58091246D01*
X59971430Y-58091248D01*
X59971431Y-58091253D01*
X59971432Y-58091255D01*
X60007083Y-58193139D01*
X60010644Y-58262916D01*
X60006576Y-58276467D01*
X59973483Y-58367475D01*
X59932073Y-58423752D01*
X59866812Y-58448707D01*
X59856948Y-58449100D01*
X59550345Y-58449100D01*
X59436859Y-58464042D01*
X59436855Y-58464043D01*
X59295647Y-58522532D01*
X59295644Y-58522534D01*
X59174381Y-58615584D01*
X59081334Y-58736843D01*
X59081333Y-58736846D01*
X59022843Y-58878055D01*
X59022842Y-58878059D01*
X59002891Y-59029600D01*
X59022842Y-59181142D01*
X59043463Y-59230927D01*
X59052630Y-59270181D01*
X59060126Y-59383332D01*
X59044916Y-59451526D01*
X58995252Y-59500672D01*
X58930636Y-59515395D01*
X57899937Y-59467454D01*
X57892803Y-59466708D01*
X57854091Y-59460376D01*
X57854089Y-59460376D01*
X57854088Y-59460376D01*
X57784958Y-59467288D01*
X57782408Y-59467543D01*
X57710695Y-59473612D01*
X57706293Y-59474574D01*
X57701998Y-59475583D01*
X57695144Y-59478174D01*
X57625475Y-59483465D01*
X57564006Y-59450250D01*
X57530251Y-59389075D01*
X57527300Y-59362184D01*
X57527300Y-58699655D01*
X57527498Y-58694709D01*
X57725635Y-56217986D01*
X57726642Y-56210764D01*
X57731518Y-56186387D01*
X58479553Y-52446214D01*
X58776442Y-51159689D01*
X58777805Y-51154736D01*
X59172623Y-49920930D01*
X59774665Y-48265313D01*
X59958386Y-47813076D01*
X60425122Y-46664188D01*
X60426322Y-46661431D01*
X60431397Y-46650500D01*
X61063270Y-45289544D01*
X61064482Y-45287138D01*
X61080332Y-45252795D01*
X61096375Y-45218242D01*
X61097427Y-45215757D01*
X61973781Y-43316985D01*
X61982400Y-43301373D01*
X62005288Y-43266161D01*
X62582544Y-42378075D01*
X62635583Y-42332596D01*
X62704792Y-42323011D01*
X62768197Y-42352365D01*
G37*
%TD.AperFunction*%
%TA.AperFunction,Conductor*%
G36*
X61716964Y-51363458D02*
G01*
X61460905Y-51324322D01*
X61932271Y-50029264D01*
X61984257Y-50028852D01*
X62074206Y-50028139D01*
X62156779Y-50003179D01*
X61716964Y-51363458D01*
G37*
%TD.AperFunction*%
%TA.AperFunction,Conductor*%
G36*
X64228647Y-46521407D02*
G01*
X64234988Y-46590988D01*
X64228706Y-46612434D01*
X63925557Y-47382161D01*
X63882675Y-47437324D01*
X63854695Y-47449957D01*
X64205028Y-46461663D01*
X64228647Y-46521407D01*
G37*
%TD.AperFunction*%
%TA.AperFunction,Conductor*%
G36*
X107352425Y-33761579D02*
G01*
X107947326Y-33853102D01*
X108010591Y-33882750D01*
X108047784Y-33941898D01*
X108047096Y-34011764D01*
X108028356Y-34049134D01*
X107790924Y-34371916D01*
X107735344Y-34414255D01*
X107722101Y-34418277D01*
X107549678Y-34478610D01*
X107396937Y-34574584D01*
X107269384Y-34702137D01*
X107173411Y-34854876D01*
X107113831Y-35025145D01*
X107113830Y-35025149D01*
X107093036Y-35209705D01*
X107065969Y-35274119D01*
X107008374Y-35313674D01*
X106938537Y-35315811D01*
X106907174Y-35302835D01*
X106093670Y-34826638D01*
X106045758Y-34775783D01*
X106039270Y-34760578D01*
X106011601Y-34681505D01*
X105983389Y-34600878D01*
X105887416Y-34448138D01*
X105809606Y-34370328D01*
X105776121Y-34309005D01*
X105781105Y-34239313D01*
X105822977Y-34183380D01*
X105861400Y-34163954D01*
X106034143Y-34111736D01*
X106078544Y-34108119D01*
X106078544Y-34107556D01*
X106085465Y-34107556D01*
X106086210Y-34107495D01*
X106086671Y-34107556D01*
X106104857Y-34105161D01*
X106168496Y-34113539D01*
X106230369Y-34139167D01*
X106382111Y-34159145D01*
X106399370Y-34156873D01*
X106463013Y-34165251D01*
X106525811Y-34191262D01*
X106677555Y-34211241D01*
X106677557Y-34211241D01*
X106829300Y-34191262D01*
X106829301Y-34191262D01*
X106970705Y-34132691D01*
X107092129Y-34039518D01*
X107185301Y-33918094D01*
X107219021Y-33836687D01*
X107262862Y-33782283D01*
X107329156Y-33760217D01*
X107352425Y-33761579D01*
G37*
%TD.AperFunction*%
%TA.AperFunction,Conductor*%
G36*
X81003018Y-29391947D02*
G01*
X81034128Y-29454509D01*
X81032326Y-29496533D01*
X81034033Y-29496783D01*
X81007575Y-29677404D01*
X81015077Y-29780375D01*
X81106238Y-30297382D01*
X82035667Y-30133499D01*
X82004142Y-30240866D01*
X82004142Y-30377456D01*
X82042623Y-30508512D01*
X82116469Y-30623419D01*
X82119870Y-30626365D01*
X81193063Y-30789786D01*
X81284224Y-31306783D01*
X81284227Y-31306793D01*
X81312395Y-31406124D01*
X81395606Y-31560447D01*
X81512159Y-31691417D01*
X81655778Y-31791981D01*
X81660982Y-31794048D01*
X81716019Y-31837091D01*
X81739048Y-31903057D01*
X81722758Y-31971001D01*
X81672320Y-32019352D01*
X81656010Y-32026383D01*
X80383905Y-32469693D01*
X80353923Y-32479392D01*
X80353909Y-32479398D01*
X80351039Y-32480762D01*
X80344858Y-32483299D01*
X80341861Y-32484344D01*
X80341843Y-32484352D01*
X80327668Y-32491485D01*
X80313675Y-32498527D01*
X80153026Y-32574901D01*
X79832457Y-32727302D01*
X79763460Y-32738308D01*
X79699465Y-32710264D01*
X79660791Y-32652074D01*
X79656056Y-32600916D01*
X79661931Y-32550656D01*
X79642255Y-32382318D01*
X79609487Y-32288044D01*
X79609483Y-32288036D01*
X79599633Y-32266914D01*
X79599632Y-32266914D01*
X78601789Y-32732216D01*
X78532711Y-32742708D01*
X78468927Y-32714188D01*
X78437002Y-32672239D01*
X78330501Y-32443849D01*
X78320009Y-32374772D01*
X78348529Y-32310988D01*
X78390478Y-32279062D01*
X79388323Y-31813758D01*
X79378472Y-31792632D01*
X79327313Y-31706927D01*
X79211011Y-31583652D01*
X79069407Y-31490519D01*
X79069405Y-31490518D01*
X79057136Y-31486052D01*
X79000874Y-31444624D01*
X78975941Y-31379354D01*
X78983030Y-31327119D01*
X78987687Y-31314326D01*
X78990424Y-31290911D01*
X79007377Y-31145880D01*
X79007377Y-31145879D01*
X79004838Y-31124157D01*
X78987688Y-30977425D01*
X78954895Y-30883082D01*
X78723853Y-30387614D01*
X78672661Y-30301849D01*
X78649963Y-30277791D01*
X78618278Y-30215522D01*
X78625288Y-30146005D01*
X78668769Y-30091313D01*
X78701307Y-30074944D01*
X80873193Y-29358444D01*
X80943024Y-29356136D01*
X81003018Y-29391947D01*
G37*
%TD.AperFunction*%
%TD*%
M02*
