%TF.GenerationSoftware,KiCad,Pcbnew,7.0.9*%
%TF.CreationDate,2024-01-04T19:56:32-05:00*%
%TF.ProjectId,Thermistor Ring,54686572-6d69-4737-946f-722052696e67,rev?*%
%TF.SameCoordinates,Original*%
%TF.FileFunction,Soldermask,Top*%
%TF.FilePolarity,Negative*%
%FSLAX46Y46*%
G04 Gerber Fmt 4.6, Leading zero omitted, Abs format (unit mm)*
G04 Created by KiCad (PCBNEW 7.0.9) date 2024-01-04 19:56:32*
%MOMM*%
%LPD*%
G01*
G04 APERTURE LIST*
G04 Aperture macros list*
%AMRoundRect*
0 Rectangle with rounded corners*
0 $1 Rounding radius*
0 $2 $3 $4 $5 $6 $7 $8 $9 X,Y pos of 4 corners*
0 Add a 4 corners polygon primitive as box body*
4,1,4,$2,$3,$4,$5,$6,$7,$8,$9,$2,$3,0*
0 Add four circle primitives for the rounded corners*
1,1,$1+$1,$2,$3*
1,1,$1+$1,$4,$5*
1,1,$1+$1,$6,$7*
1,1,$1+$1,$8,$9*
0 Add four rect primitives between the rounded corners*
20,1,$1+$1,$2,$3,$4,$5,0*
20,1,$1+$1,$4,$5,$6,$7,0*
20,1,$1+$1,$6,$7,$8,$9,0*
20,1,$1+$1,$8,$9,$2,$3,0*%
%AMHorizOval*
0 Thick line with rounded ends*
0 $1 width*
0 $2 $3 position (X,Y) of the first rounded end (center of the circle)*
0 $4 $5 position (X,Y) of the second rounded end (center of the circle)*
0 Add line between two ends*
20,1,$1,$2,$3,$4,$5,0*
0 Add two circle primitives to create the rounded ends*
1,1,$1,$2,$3*
1,1,$1,$4,$5*%
%AMRotRect*
0 Rectangle, with rotation*
0 The origin of the aperture is its center*
0 $1 length*
0 $2 width*
0 $3 Rotation angle, in degrees counterclockwise*
0 Add horizontal line*
21,1,$1,$2,0,0,$3*%
G04 Aperture macros list end*
%ADD10C,0.162560*%
%ADD11RoundRect,0.250000X-0.203174X0.496835X-0.524568X0.113813X0.203174X-0.496835X0.524568X-0.113813X0*%
%ADD12RoundRect,0.225000X0.296936X0.157969X-0.125926X0.311878X-0.296936X-0.157969X0.125926X-0.311878X0*%
%ADD13RoundRect,0.250000X0.536151X-0.025833X0.324842X0.427321X-0.536151X0.025833X-0.324842X-0.427321X0*%
%ADD14RoundRect,0.250000X-0.290448X-0.451404X0.207650X-0.494981X0.290448X0.451404X-0.207650X0.494981X0*%
%ADD15RoundRect,0.225000X-0.264994X-0.207131X0.178170X-0.285273X0.264994X0.207131X-0.178170X0.285273X0*%
%ADD16RoundRect,0.250000X-0.464990X-0.818175X0.716780X-0.609797X0.464990X0.818175X-0.716780X0.609797X0*%
%ADD17HorizOval,1.700000X-0.021706X0.123101X0.021706X-0.123101X0*%
%ADD18RoundRect,0.225000X-0.321666X0.098265X-0.131488X-0.309574X0.321666X-0.098265X0.131488X0.309574X0*%
%ADD19RoundRect,0.250000X0.600000X0.725000X-0.600000X0.725000X-0.600000X-0.725000X0.600000X-0.725000X0*%
%ADD20O,1.700000X1.950000*%
%ADD21RotRect,1.805236X0.612132X250.000000*%
%ADD22RoundRect,0.250000X-0.490341X-0.175988X-0.088168X-0.513452X0.490341X0.175988X0.088168X0.513452X0*%
%ADD23RoundRect,0.250000X-0.473137X-0.218055X-0.043082X-0.519182X0.473137X0.218055X0.043082X0.519182X0*%
%ADD24RoundRect,0.250000X0.245703X-0.477237X0.532491X-0.067661X-0.245703X0.477237X-0.532491X0.067661X0*%
%ADD25RoundRect,0.250000X-0.513452X-0.088168X-0.175988X-0.490341X0.513452X0.088168X0.175988X0.490341X0*%
G04 APERTURE END LIST*
D10*
%TO.C,IC5*%
X106835808Y-87125408D03*
X106576000Y-87275408D03*
X106316192Y-87425408D03*
X106685808Y-86865600D03*
X106426000Y-87015600D03*
X106166192Y-87165600D03*
X106535808Y-86605792D03*
X106276000Y-86755792D03*
X106016192Y-86905792D03*
%TD*%
D11*
%TO.C,C1*%
X110693200Y-34984658D03*
X109471904Y-36440142D03*
%TD*%
D12*
%TO.C,C8*%
X62895789Y-53185349D03*
X61439267Y-52655219D03*
%TD*%
D10*
%TO.C,IC3*%
X121615200Y-59842400D03*
X121915200Y-59842400D03*
X122215200Y-59842400D03*
X121615200Y-60142400D03*
X121915200Y-60142400D03*
X122215200Y-60142400D03*
X121615200Y-60442400D03*
X121915200Y-60442400D03*
X122215200Y-60442400D03*
%TD*%
D13*
%TO.C,C3*%
X102606174Y-89961584D03*
X101803200Y-88239600D03*
%TD*%
D14*
%TO.C,C2*%
X120770415Y-63264802D03*
X122663185Y-63430398D03*
%TD*%
D15*
%TO.C,C6*%
X59333174Y-56050223D03*
X60859626Y-56319377D03*
%TD*%
D10*
%TO.C,IC6*%
X74982192Y-33219792D03*
X75242000Y-33069792D03*
X75501808Y-32919792D03*
X75132192Y-33479600D03*
X75392000Y-33329600D03*
X75651808Y-33179600D03*
X75282192Y-33739408D03*
X75542000Y-33589408D03*
X75801808Y-33439408D03*
%TD*%
D16*
%TO.C,J1*%
X82479142Y-30309161D03*
D17*
X84941161Y-29875041D03*
X87403181Y-29440920D03*
X89865200Y-29006800D03*
%TD*%
D18*
%TO.C,C5*%
X77955271Y-31047611D03*
X78610329Y-32452389D03*
%TD*%
D10*
%TO.C,IC1*%
X106781745Y-33034060D03*
X106729650Y-33329502D03*
X106677556Y-33624945D03*
X106486302Y-32981966D03*
X106434208Y-33277408D03*
X106382114Y-33572850D03*
X106190860Y-32929871D03*
X106138766Y-33225314D03*
X106086671Y-33520756D03*
%TD*%
D19*
%TO.C,J3*%
X93573600Y-91135200D03*
D20*
X91073600Y-91135200D03*
X88573600Y-91135200D03*
%TD*%
D12*
%TO.C,C7*%
X65287654Y-47621222D03*
X63831132Y-47091092D03*
%TD*%
D10*
%TO.C,IC2*%
X75501808Y-87425408D03*
X75242000Y-87275408D03*
X74982192Y-87125408D03*
X75651808Y-87165600D03*
X75392000Y-87015600D03*
X75132192Y-86865600D03*
X75801808Y-86905792D03*
X75542000Y-86755792D03*
X75282192Y-86605792D03*
%TD*%
D21*
%TO.C,U1*%
X63804800Y-49225200D03*
X62912091Y-48900281D03*
X62019382Y-48575361D03*
X61232406Y-50737562D03*
X63017824Y-51387401D03*
%TD*%
D22*
%TO.C,R3*%
X67259200Y-38963600D03*
X68657232Y-40136688D03*
%TD*%
D23*
%TO.C,R2*%
X64719200Y-42062400D03*
X66214152Y-43109176D03*
%TD*%
D24*
%TO.C,C4*%
X72316204Y-86087588D03*
X73406000Y-84531200D03*
%TD*%
D25*
%TO.C,R1*%
X70658112Y-35635168D03*
X71831200Y-37033200D03*
%TD*%
D10*
%TO.C,IC4*%
X59639200Y-59796400D03*
X59939200Y-59796400D03*
X60239200Y-59796400D03*
X59639200Y-60096400D03*
X59939200Y-60096400D03*
X60239200Y-60096400D03*
X59639200Y-60396400D03*
X59939200Y-60396400D03*
X60239200Y-60396400D03*
%TD*%
M02*
