%TF.GenerationSoftware,KiCad,Pcbnew,7.0.9*%
%TF.CreationDate,2024-01-04T19:56:31-05:00*%
%TF.ProjectId,Thermistor Ring,54686572-6d69-4737-946f-722052696e67,rev?*%
%TF.SameCoordinates,Original*%
%TF.FileFunction,Copper,L2,Bot*%
%TF.FilePolarity,Positive*%
%FSLAX46Y46*%
G04 Gerber Fmt 4.6, Leading zero omitted, Abs format (unit mm)*
G04 Created by KiCad (PCBNEW 7.0.9) date 2024-01-04 19:56:31*
%MOMM*%
%LPD*%
G01*
G04 APERTURE LIST*
G04 Aperture macros list*
%AMRoundRect*
0 Rectangle with rounded corners*
0 $1 Rounding radius*
0 $2 $3 $4 $5 $6 $7 $8 $9 X,Y pos of 4 corners*
0 Add a 4 corners polygon primitive as box body*
4,1,4,$2,$3,$4,$5,$6,$7,$8,$9,$2,$3,0*
0 Add four circle primitives for the rounded corners*
1,1,$1+$1,$2,$3*
1,1,$1+$1,$4,$5*
1,1,$1+$1,$6,$7*
1,1,$1+$1,$8,$9*
0 Add four rect primitives between the rounded corners*
20,1,$1+$1,$2,$3,$4,$5,0*
20,1,$1+$1,$4,$5,$6,$7,0*
20,1,$1+$1,$6,$7,$8,$9,0*
20,1,$1+$1,$8,$9,$2,$3,0*%
%AMHorizOval*
0 Thick line with rounded ends*
0 $1 width*
0 $2 $3 position (X,Y) of the first rounded end (center of the circle)*
0 $4 $5 position (X,Y) of the second rounded end (center of the circle)*
0 Add line between two ends*
20,1,$1,$2,$3,$4,$5,0*
0 Add two circle primitives to create the rounded ends*
1,1,$1,$2,$3*
1,1,$1,$4,$5*%
G04 Aperture macros list end*
%TA.AperFunction,ComponentPad*%
%ADD10RoundRect,0.250000X-0.464990X-0.818175X0.716780X-0.609797X0.464990X0.818175X-0.716780X0.609797X0*%
%TD*%
%TA.AperFunction,ComponentPad*%
%ADD11HorizOval,1.700000X-0.021706X0.123101X0.021706X-0.123101X0*%
%TD*%
%TA.AperFunction,ComponentPad*%
%ADD12RoundRect,0.250000X0.600000X0.725000X-0.600000X0.725000X-0.600000X-0.725000X0.600000X-0.725000X0*%
%TD*%
%TA.AperFunction,ComponentPad*%
%ADD13O,1.700000X1.950000*%
%TD*%
%TA.AperFunction,ViaPad*%
%ADD14C,0.600000*%
%TD*%
%TA.AperFunction,Conductor*%
%ADD15C,0.160000*%
%TD*%
%TA.AperFunction,Conductor*%
%ADD16C,0.100000*%
%TD*%
G04 APERTURE END LIST*
D10*
%TO.P,J1,1,Pin_1*%
%TO.N,GND*%
X82479142Y-30309161D03*
D11*
%TO.P,J1,2,Pin_2*%
%TO.N,/Power 3.3-5V*%
X84941161Y-29875041D03*
%TO.P,J1,3,Pin_3*%
%TO.N,/SDA*%
X87403181Y-29440920D03*
%TO.P,J1,4,Pin_4*%
%TO.N,/SCL*%
X89865200Y-29006800D03*
%TD*%
D12*
%TO.P,J3,1,Pin_1*%
%TO.N,/CVT{slash}PDB*%
X93573600Y-91135200D03*
D13*
%TO.P,J3,2,Pin_2*%
%TO.N,/INT*%
X91073600Y-91135200D03*
%TO.P,J3,3,Pin_3*%
%TO.N,/ENABLE*%
X88573600Y-91135200D03*
%TD*%
D14*
%TO.N,/VDD*%
X64312800Y-55524400D03*
X59537600Y-54305200D03*
X78282800Y-36118800D03*
X102585795Y-84450195D03*
X104343200Y-89001600D03*
X106121200Y-37795200D03*
X107340400Y-84988400D03*
X107899200Y-35204400D03*
X70408800Y-84683600D03*
X117551200Y-64922400D03*
X120497600Y-58013600D03*
X77571600Y-33629600D03*
X60756800Y-57912000D03*
X77470000Y-88290400D03*
X105765600Y-82651600D03*
X79330378Y-84601222D03*
X73591530Y-80891270D03*
X117883517Y-58928000D03*
X64058800Y-58013600D03*
X120548400Y-65786000D03*
%TO.N,GND*%
X121208800Y-68732400D03*
X63042800Y-44907200D03*
X68466855Y-47029255D03*
X58674000Y-58166000D03*
X61163200Y-59182000D03*
X97739200Y-85293200D03*
X108966000Y-41249600D03*
X111658400Y-38150800D03*
X87071200Y-85852000D03*
X116078000Y-67106800D03*
X77368400Y-32105600D03*
X86410800Y-89814400D03*
X80213200Y-30937200D03*
X61163200Y-59182000D03*
X98856800Y-89103200D03*
X108966000Y-41249600D03*
X81737200Y-35763200D03*
X76352400Y-33020000D03*
%TO.N,/INT*%
X67411600Y-35610800D03*
X76911200Y-86918800D03*
X109118400Y-87833200D03*
X124053600Y-60045600D03*
X68935600Y-37236400D03*
X75625234Y-89322366D03*
X107188000Y-86309200D03*
X120548400Y-59690000D03*
%TO.N,/SDA*%
X102412800Y-33477200D03*
X105257600Y-34950400D03*
X92710000Y-31140400D03*
X88747600Y-31191200D03*
%TO.N,/SCL*%
X121920000Y-58115200D03*
X74828400Y-32105600D03*
X104606436Y-84591236D03*
X120853200Y-61671200D03*
X76776826Y-35984426D03*
X104749600Y-86309200D03*
X60147200Y-61417200D03*
X118908749Y-59334400D03*
X118908124Y-61569600D03*
X62941200Y-61315600D03*
X75996800Y-85598000D03*
X75234800Y-35255200D03*
X76702265Y-84282935D03*
%TO.N,/CVT{slash}PDB*%
X74371200Y-85699600D03*
X97536000Y-90431761D03*
X61264800Y-60401200D03*
X106172000Y-29667200D03*
X104546400Y-32359600D03*
X72385853Y-88599347D03*
X105054400Y-33832800D03*
X125069600Y-61264800D03*
X65938400Y-37033200D03*
X56946800Y-60452000D03*
X122885200Y-61315600D03*
X98247200Y-93319600D03*
X76657200Y-34239200D03*
%TO.N,/ENABLE*%
X65989200Y-52628800D03*
X60045600Y-50647600D03*
X85699600Y-85598000D03*
X84531200Y-90525600D03*
%TD*%
D15*
%TO.N,/VDD*%
X79330378Y-84601222D02*
X77470000Y-88290400D01*
X64058800Y-58013600D02*
X60756800Y-57912000D01*
D16*
X102585795Y-84450195D02*
X104343200Y-89001600D01*
X73591530Y-80891270D02*
X70408800Y-84683600D01*
D15*
X117551200Y-64922400D02*
X120548400Y-65786000D01*
X78282800Y-36118800D02*
X77571600Y-33629600D01*
X117883517Y-58928000D02*
X120497600Y-58013600D01*
X106121200Y-37795200D02*
X107899200Y-35204400D01*
X107340400Y-84988400D02*
X105765600Y-82651600D01*
D16*
X64312800Y-55524400D02*
X59537600Y-54305200D01*
D15*
%TO.N,GND*%
X108966000Y-41249600D02*
X111658400Y-38150800D01*
X87071200Y-85852000D02*
X86410800Y-89814400D01*
X97739200Y-85293200D02*
X98856800Y-89103200D01*
X61163200Y-59182000D02*
X58674000Y-58166000D01*
X116078000Y-67106800D02*
X121208800Y-68732400D01*
X80213200Y-30937200D02*
X81737200Y-35763200D01*
X68466855Y-47029255D02*
X63042800Y-44907200D01*
X76352400Y-33020000D02*
X77368400Y-32105600D01*
%TO.N,/INT*%
X75625234Y-89322366D02*
X76911200Y-86918800D01*
D16*
X109118400Y-87833200D02*
X107188000Y-86309200D01*
D15*
X124053600Y-60045600D02*
X120548400Y-59690000D01*
X68935600Y-37236400D02*
X67411600Y-35610800D01*
%TO.N,/SDA*%
X103682800Y-34137600D02*
X105257600Y-34950400D01*
X91694000Y-31038800D02*
X92710000Y-31140400D01*
X102412800Y-33477200D02*
X103682800Y-34137600D01*
X88747600Y-31191200D02*
X91694000Y-31038800D01*
%TO.N,/SCL*%
X104606436Y-84591236D02*
X104749600Y-86309200D01*
X60147200Y-61417200D02*
X62941200Y-61315600D01*
X76776826Y-35984426D02*
X75234800Y-35255200D01*
X76702265Y-84282935D02*
X75996800Y-85598000D01*
X75234800Y-35255200D02*
X74828400Y-32105600D01*
X118908749Y-59334400D02*
X121920000Y-58115200D01*
X118908124Y-61569600D02*
X120853200Y-61671200D01*
X75234800Y-35255200D02*
X75336400Y-35153600D01*
%TO.N,/CVT{slash}PDB*%
X72385853Y-88599347D02*
X74371200Y-85699600D01*
X72948800Y-39319200D02*
X74930000Y-37795200D01*
X105054400Y-33832800D02*
X104546400Y-32359600D01*
X77012800Y-34493200D02*
X76809600Y-34391600D01*
X76809600Y-34391600D02*
X76657200Y-34239200D01*
X106172000Y-29667200D02*
X104546400Y-32359600D01*
X70764400Y-41452800D02*
X72948800Y-39319200D01*
X77571600Y-35153600D02*
X77012800Y-34493200D01*
X77368400Y-36728400D02*
X77571600Y-36017200D01*
X74930000Y-37795200D02*
X76200000Y-36931600D01*
X76200000Y-36931600D02*
X77368400Y-36728400D01*
X61264800Y-60401200D02*
X60909200Y-60350400D01*
X56946800Y-60452000D02*
X60909200Y-60350400D01*
X122885200Y-61315600D02*
X125069600Y-61264800D01*
X97536000Y-90431761D02*
X98247200Y-93319600D01*
X65938400Y-37033200D02*
X70764400Y-41452800D01*
X77571600Y-36017200D02*
X77571600Y-35153600D01*
%TO.N,/ENABLE*%
X84531200Y-90525600D02*
X85699600Y-85598000D01*
X65989200Y-52628800D02*
X60045600Y-50647600D01*
%TD*%
%TA.AperFunction,Conductor*%
%TO.N,GND*%
G36*
X91947233Y-25156683D02*
G01*
X92892605Y-25188631D01*
X93128573Y-25200598D01*
X94072386Y-25264460D01*
X94307766Y-25284385D01*
X95248871Y-25380086D01*
X95483499Y-25407957D01*
X96420790Y-25535382D01*
X96654380Y-25571166D01*
X97586811Y-25730172D01*
X97586829Y-25730175D01*
X97819081Y-25773830D01*
X98745578Y-25964229D01*
X98976279Y-26015715D01*
X99110477Y-26048053D01*
X99895828Y-26237300D01*
X100124613Y-26296537D01*
X101036152Y-26549053D01*
X101262811Y-26615984D01*
X102165354Y-26899159D01*
X102389550Y-26973683D01*
X103282023Y-27287182D01*
X103503610Y-27369249D01*
X104384984Y-27712710D01*
X104552607Y-27781315D01*
X104603667Y-27802213D01*
X105472920Y-28175239D01*
X105688444Y-28272070D01*
X106544617Y-28674247D01*
X106756771Y-28778314D01*
X107598821Y-29209152D01*
X107802370Y-29317676D01*
X107807429Y-29320373D01*
X108634396Y-29779378D01*
X108683498Y-29807727D01*
X108839103Y-29897565D01*
X109650082Y-30384229D01*
X109650109Y-30384245D01*
X109803465Y-30479833D01*
X109850722Y-30509288D01*
X109989028Y-30598773D01*
X110644810Y-31023070D01*
X110841117Y-31154838D01*
X111150902Y-31370455D01*
X111617399Y-31695147D01*
X111809103Y-31833441D01*
X112566744Y-32399698D01*
X112753618Y-32544349D01*
X112937643Y-32691831D01*
X113491715Y-33135880D01*
X113557864Y-33190754D01*
X113673634Y-33286791D01*
X114391295Y-33902883D01*
X114480403Y-33982032D01*
X114568001Y-34059841D01*
X114883367Y-34349638D01*
X115232254Y-34670239D01*
X115264464Y-34699837D01*
X115435778Y-34862683D01*
X115458486Y-34885011D01*
X116110236Y-35525846D01*
X116275919Y-35694351D01*
X116927603Y-36379922D01*
X116971686Y-36427894D01*
X117087506Y-36553933D01*
X117715675Y-37261135D01*
X117727941Y-37275423D01*
X117848325Y-37415654D01*
X117869598Y-37440434D01*
X118094333Y-37711345D01*
X118473506Y-38168427D01*
X118621334Y-38352883D01*
X119200289Y-39100831D01*
X119263123Y-39184902D01*
X119341771Y-39290131D01*
X119403548Y-39375766D01*
X119895178Y-40057268D01*
X120030163Y-40251205D01*
X120557343Y-41036591D01*
X120631549Y-41151282D01*
X120685706Y-41234985D01*
X121153616Y-41985677D01*
X121186043Y-42037701D01*
X121186130Y-42037845D01*
X121307668Y-42240378D01*
X121780602Y-43059524D01*
X121895295Y-43266161D01*
X122340284Y-44100794D01*
X122447962Y-44311244D01*
X122864510Y-45160437D01*
X122964984Y-45374329D01*
X123352624Y-46237126D01*
X123445837Y-46454339D01*
X123804101Y-47329702D01*
X123889924Y-47549934D01*
X124218425Y-48436913D01*
X124296758Y-48659912D01*
X124595115Y-49557483D01*
X124665869Y-49782993D01*
X124933739Y-50690118D01*
X124996845Y-50917919D01*
X125231247Y-51823235D01*
X125233918Y-51833549D01*
X125289298Y-52063370D01*
X125495309Y-52986478D01*
X125542894Y-53218025D01*
X125717614Y-54147583D01*
X125757349Y-54380592D01*
X125900577Y-55315535D01*
X125932416Y-55549731D01*
X126043987Y-56488991D01*
X126067899Y-56724134D01*
X126147681Y-57666603D01*
X126163640Y-57902449D01*
X126211547Y-58847108D01*
X126219527Y-59083265D01*
X126237500Y-60147200D01*
X126219527Y-61211134D01*
X126211547Y-61447291D01*
X126163640Y-62391950D01*
X126147681Y-62627796D01*
X126067899Y-63570265D01*
X126043987Y-63805408D01*
X125932416Y-64744668D01*
X125900577Y-64978864D01*
X125757349Y-65913807D01*
X125717614Y-66146816D01*
X125542894Y-67076374D01*
X125495309Y-67307921D01*
X125289298Y-68231029D01*
X125233918Y-68460850D01*
X124996845Y-69376480D01*
X124933739Y-69604281D01*
X124665869Y-70511406D01*
X124595115Y-70736916D01*
X124296758Y-71634487D01*
X124218425Y-71857486D01*
X123889924Y-72744465D01*
X123804101Y-72964697D01*
X123445837Y-73840060D01*
X123352624Y-74057273D01*
X122964984Y-74920070D01*
X122864510Y-75133962D01*
X122447962Y-75983155D01*
X122340284Y-76193605D01*
X121895295Y-77028238D01*
X121780602Y-77234875D01*
X121307668Y-78054021D01*
X121186052Y-78256684D01*
X120685714Y-79059402D01*
X120557346Y-79257804D01*
X120030163Y-80043194D01*
X119895178Y-80237131D01*
X119341784Y-81004251D01*
X119200290Y-81193567D01*
X118621334Y-81941516D01*
X118473506Y-82125972D01*
X117869608Y-82853954D01*
X117715675Y-83033264D01*
X117087506Y-83740466D01*
X116927615Y-83914465D01*
X116275919Y-84600048D01*
X116110236Y-84768553D01*
X115435770Y-85431724D01*
X115264476Y-85594551D01*
X114568001Y-86234558D01*
X114391302Y-86391511D01*
X113673634Y-87007608D01*
X113491695Y-87158536D01*
X112753618Y-87750050D01*
X112566744Y-87894701D01*
X111809103Y-88460958D01*
X111617399Y-88599252D01*
X110841119Y-89139560D01*
X110644810Y-89271329D01*
X109850730Y-89785106D01*
X109650112Y-89910152D01*
X108839103Y-90396834D01*
X108634396Y-90515021D01*
X107807429Y-90974026D01*
X107598809Y-91085253D01*
X106756805Y-91516068D01*
X106544586Y-91620166D01*
X105688469Y-92022318D01*
X105472914Y-92119163D01*
X104603667Y-92492186D01*
X104384960Y-92581698D01*
X103503632Y-92925142D01*
X103282002Y-93007225D01*
X102389573Y-93320708D01*
X102165325Y-93395249D01*
X101262816Y-93678413D01*
X101036150Y-93745347D01*
X100124614Y-93997861D01*
X99895814Y-94057102D01*
X98976279Y-94278684D01*
X98745578Y-94330170D01*
X97819081Y-94520569D01*
X97586829Y-94564224D01*
X96654415Y-94723227D01*
X96526041Y-94742893D01*
X96420792Y-94759017D01*
X95483527Y-94886439D01*
X95248856Y-94914314D01*
X94307821Y-95010008D01*
X94072328Y-95029943D01*
X93128612Y-95093799D01*
X92892575Y-95105769D01*
X91947253Y-95137715D01*
X91710931Y-95141708D01*
X90765069Y-95141708D01*
X90759864Y-95141620D01*
X90528746Y-95137715D01*
X89583424Y-95105769D01*
X89347387Y-95093799D01*
X88403671Y-95029943D01*
X88168178Y-95010008D01*
X87227143Y-94914314D01*
X87017499Y-94889411D01*
X86992467Y-94886438D01*
X86055207Y-94759017D01*
X85993731Y-94749599D01*
X85821607Y-94723231D01*
X85417159Y-94654261D01*
X84889170Y-94564224D01*
X84656918Y-94520569D01*
X83730421Y-94330170D01*
X83499720Y-94278684D01*
X82580185Y-94057102D01*
X82351385Y-93997861D01*
X81439864Y-93745351D01*
X81354112Y-93720029D01*
X81213183Y-93678413D01*
X80310674Y-93395249D01*
X80086426Y-93320708D01*
X79193997Y-93007225D01*
X78972367Y-92925142D01*
X78091039Y-92581698D01*
X77872332Y-92492186D01*
X77003085Y-92119163D01*
X76787530Y-92022318D01*
X76685952Y-91974603D01*
X76152150Y-91723855D01*
X75931413Y-91620166D01*
X75719194Y-91516068D01*
X74877190Y-91085253D01*
X74668570Y-90974026D01*
X73841603Y-90515021D01*
X73636896Y-90396834D01*
X72825887Y-89910152D01*
X72625269Y-89785106D01*
X72380606Y-89626807D01*
X72335014Y-89573863D01*
X72325283Y-89504674D01*
X72354503Y-89441208D01*
X72413397Y-89403614D01*
X72434083Y-89399478D01*
X72565102Y-89384716D01*
X72565105Y-89384715D01*
X72565108Y-89384715D01*
X72735375Y-89325136D01*
X72888115Y-89229163D01*
X73015669Y-89101609D01*
X73111642Y-88948869D01*
X73171221Y-88778602D01*
X73174882Y-88746108D01*
X73191418Y-88599350D01*
X73191418Y-88599344D01*
X73182165Y-88517225D01*
X73194219Y-88448403D01*
X73203064Y-88433294D01*
X74509800Y-86524709D01*
X74563913Y-86480516D01*
X74571131Y-86477732D01*
X74720722Y-86425389D01*
X74873462Y-86329416D01*
X75001016Y-86201862D01*
X75096989Y-86049122D01*
X75097010Y-86049061D01*
X75097027Y-86049015D01*
X75097071Y-86048953D01*
X75100012Y-86042847D01*
X75101081Y-86043361D01*
X75137747Y-85992239D01*
X75202700Y-85966490D01*
X75271262Y-85979945D01*
X75319062Y-86023995D01*
X75366984Y-86100262D01*
X75494538Y-86227816D01*
X75584880Y-86284582D01*
X75624064Y-86309203D01*
X75647278Y-86323789D01*
X75817545Y-86383368D01*
X75817550Y-86383369D01*
X75996796Y-86403565D01*
X75996800Y-86403565D01*
X75996801Y-86403565D01*
X76005495Y-86402585D01*
X76057663Y-86396707D01*
X76126483Y-86408761D01*
X76177863Y-86456109D01*
X76195488Y-86523719D01*
X76186105Y-86562143D01*
X76187711Y-86562705D01*
X76125831Y-86739545D01*
X76125830Y-86739550D01*
X76105635Y-86918796D01*
X76105635Y-86918803D01*
X76126611Y-87104976D01*
X76124099Y-87105259D01*
X76120538Y-87163338D01*
X76113257Y-87179683D01*
X75396277Y-88519772D01*
X75347295Y-88569597D01*
X75327898Y-88578316D01*
X75275710Y-88596577D01*
X75275709Y-88596578D01*
X75122971Y-88692550D01*
X74995418Y-88820103D01*
X74899445Y-88972842D01*
X74839865Y-89143111D01*
X74839864Y-89143116D01*
X74819669Y-89322362D01*
X74819669Y-89322369D01*
X74839864Y-89501615D01*
X74839865Y-89501620D01*
X74899445Y-89671889D01*
X74971755Y-89786969D01*
X74995418Y-89824628D01*
X75122972Y-89952182D01*
X75213314Y-90008948D01*
X75236217Y-90023339D01*
X75275712Y-90048155D01*
X75397773Y-90090866D01*
X75445979Y-90107734D01*
X75445984Y-90107735D01*
X75625230Y-90127931D01*
X75625234Y-90127931D01*
X75625238Y-90127931D01*
X75804483Y-90107735D01*
X75804486Y-90107734D01*
X75804489Y-90107734D01*
X75974756Y-90048155D01*
X76127496Y-89952182D01*
X76255050Y-89824628D01*
X76351023Y-89671888D01*
X76410602Y-89501621D01*
X76417409Y-89441208D01*
X76430799Y-89322369D01*
X76430799Y-89322362D01*
X76409823Y-89136190D01*
X76412342Y-89135906D01*
X76415876Y-89077876D01*
X76423169Y-89061492D01*
X76591908Y-88746105D01*
X76640888Y-88696283D01*
X76709032Y-88680850D01*
X76774702Y-88704708D01*
X76806234Y-88738632D01*
X76840182Y-88792660D01*
X76840184Y-88792662D01*
X76967738Y-88920216D01*
X76987054Y-88932353D01*
X77097264Y-89001603D01*
X77120478Y-89016189D01*
X77290745Y-89075768D01*
X77290750Y-89075769D01*
X77469996Y-89095965D01*
X77470000Y-89095965D01*
X77470004Y-89095965D01*
X77649249Y-89075769D01*
X77649252Y-89075768D01*
X77649255Y-89075768D01*
X77819522Y-89016189D01*
X77972262Y-88920216D01*
X78099816Y-88792662D01*
X78195789Y-88639922D01*
X78255368Y-88469655D01*
X78257763Y-88448403D01*
X78275565Y-88290403D01*
X78275565Y-88290396D01*
X78255369Y-88111152D01*
X78255368Y-88111149D01*
X78255368Y-88111145D01*
X78254404Y-88108392D01*
X78254308Y-88106503D01*
X78253819Y-88104360D01*
X78254194Y-88104274D01*
X78250839Y-88038616D01*
X78260722Y-88011606D01*
X79577969Y-85399472D01*
X79625729Y-85348479D01*
X79647722Y-85338270D01*
X79679900Y-85327011D01*
X79832640Y-85231038D01*
X79960194Y-85103484D01*
X80056167Y-84950744D01*
X80115746Y-84780477D01*
X80115747Y-84780471D01*
X80135943Y-84601225D01*
X80135943Y-84601218D01*
X80115747Y-84421972D01*
X80115746Y-84421967D01*
X80112252Y-84411981D01*
X80056167Y-84251700D01*
X80049892Y-84241714D01*
X80001684Y-84164991D01*
X79960194Y-84098960D01*
X79832640Y-83971406D01*
X79795283Y-83947933D01*
X79679901Y-83875433D01*
X79509632Y-83815853D01*
X79509627Y-83815852D01*
X79330382Y-83795657D01*
X79330374Y-83795657D01*
X79151128Y-83815852D01*
X79151123Y-83815853D01*
X78980854Y-83875433D01*
X78828115Y-83971406D01*
X78700562Y-84098959D01*
X78604589Y-84251698D01*
X78545009Y-84421967D01*
X78545008Y-84421972D01*
X78524813Y-84601218D01*
X78524813Y-84601225D01*
X78545008Y-84780471D01*
X78545009Y-84780476D01*
X78545974Y-84783232D01*
X78546070Y-84785124D01*
X78546560Y-84787269D01*
X78546184Y-84787354D01*
X78549535Y-84853011D01*
X78539651Y-84880020D01*
X77764051Y-86418053D01*
X77716289Y-86469049D01*
X77648538Y-86486127D01*
X77582310Y-86463866D01*
X77548337Y-86428190D01*
X77546577Y-86425389D01*
X77541016Y-86416538D01*
X77413462Y-86288984D01*
X77382380Y-86269454D01*
X77260723Y-86193011D01*
X77090454Y-86133431D01*
X77090449Y-86133430D01*
X76911204Y-86113235D01*
X76911196Y-86113235D01*
X76850336Y-86120092D01*
X76781514Y-86108037D01*
X76730135Y-86060688D01*
X76712511Y-85993078D01*
X76721905Y-85954660D01*
X76720289Y-85954095D01*
X76722589Y-85947522D01*
X76782168Y-85777255D01*
X76790802Y-85700627D01*
X76802365Y-85598003D01*
X76802365Y-85597996D01*
X76781389Y-85411824D01*
X76784198Y-85411507D01*
X76787671Y-85354504D01*
X76795034Y-85337990D01*
X76843052Y-85248478D01*
X76930357Y-85085731D01*
X76979393Y-85035962D01*
X76998659Y-85027313D01*
X77051787Y-85008724D01*
X77204527Y-84912751D01*
X77332081Y-84785197D01*
X77428054Y-84632457D01*
X77487633Y-84462190D01*
X77488984Y-84450198D01*
X77507830Y-84282938D01*
X77507830Y-84282931D01*
X77487634Y-84103685D01*
X77487633Y-84103680D01*
X77441348Y-83971406D01*
X77428054Y-83933413D01*
X77422247Y-83924172D01*
X77357030Y-83820379D01*
X77332081Y-83780673D01*
X77204527Y-83653119D01*
X77171469Y-83632347D01*
X77051788Y-83557146D01*
X76881519Y-83497566D01*
X76881514Y-83497565D01*
X76702269Y-83477370D01*
X76702261Y-83477370D01*
X76523015Y-83497565D01*
X76523010Y-83497566D01*
X76352741Y-83557146D01*
X76200002Y-83653119D01*
X76072449Y-83780672D01*
X75976476Y-83933411D01*
X75916896Y-84103680D01*
X75916895Y-84103685D01*
X75896700Y-84282931D01*
X75896700Y-84282938D01*
X75917676Y-84469110D01*
X75914873Y-84469425D01*
X75911377Y-84526473D01*
X75904030Y-84542943D01*
X75768706Y-84795202D01*
X75719669Y-84844972D01*
X75700392Y-84853625D01*
X75691837Y-84856618D01*
X75647276Y-84872211D01*
X75494537Y-84968184D01*
X75366984Y-85095737D01*
X75271007Y-85248482D01*
X75270965Y-85248605D01*
X75270915Y-85248673D01*
X75267988Y-85254753D01*
X75266922Y-85254239D01*
X75230234Y-85305374D01*
X75165277Y-85331111D01*
X75096718Y-85317643D01*
X75048937Y-85273604D01*
X75001016Y-85197338D01*
X74873462Y-85069784D01*
X74819635Y-85035962D01*
X74720723Y-84973811D01*
X74550454Y-84914231D01*
X74550449Y-84914230D01*
X74371204Y-84894035D01*
X74371196Y-84894035D01*
X74191950Y-84914230D01*
X74191945Y-84914231D01*
X74021676Y-84973811D01*
X73868937Y-85069784D01*
X73741384Y-85197337D01*
X73645411Y-85350076D01*
X73585831Y-85520345D01*
X73585830Y-85520350D01*
X73565635Y-85699596D01*
X73565635Y-85699602D01*
X73574887Y-85781720D01*
X73562832Y-85850542D01*
X73553984Y-85865655D01*
X72247252Y-87774235D01*
X72193136Y-87818431D01*
X72185890Y-87821225D01*
X72036329Y-87873558D01*
X71883590Y-87969531D01*
X71756037Y-88097084D01*
X71660064Y-88249823D01*
X71600484Y-88420092D01*
X71600483Y-88420097D01*
X71580288Y-88599343D01*
X71580288Y-88599350D01*
X71600483Y-88778596D01*
X71600485Y-88778604D01*
X71629867Y-88862574D01*
X71633428Y-88932353D01*
X71598699Y-88992980D01*
X71536705Y-89025207D01*
X71467130Y-89018801D01*
X71441988Y-89005303D01*
X71319740Y-88920216D01*
X71175906Y-88820104D01*
X70858600Y-88599252D01*
X70666896Y-88460958D01*
X69909255Y-87894701D01*
X69722381Y-87750050D01*
X68984304Y-87158536D01*
X68802365Y-87007608D01*
X68573882Y-86811462D01*
X68084693Y-86391507D01*
X67947284Y-86269454D01*
X67907998Y-86234558D01*
X67410346Y-85777254D01*
X67211513Y-85594542D01*
X67040212Y-85431707D01*
X67027034Y-85418750D01*
X66780130Y-85175981D01*
X66365763Y-84768553D01*
X66282236Y-84683603D01*
X69603235Y-84683603D01*
X69623430Y-84862849D01*
X69623431Y-84862854D01*
X69683011Y-85033123D01*
X69751667Y-85142387D01*
X69778984Y-85185862D01*
X69906538Y-85313416D01*
X70059278Y-85409389D01*
X70123108Y-85431724D01*
X70229545Y-85468968D01*
X70229550Y-85468969D01*
X70408796Y-85489165D01*
X70408800Y-85489165D01*
X70408804Y-85489165D01*
X70588049Y-85468969D01*
X70588052Y-85468968D01*
X70588055Y-85468968D01*
X70758322Y-85409389D01*
X70911062Y-85313416D01*
X71038616Y-85185862D01*
X71134589Y-85033122D01*
X71194168Y-84862855D01*
X71196377Y-84843252D01*
X71214365Y-84683603D01*
X71214365Y-84683600D01*
X71211599Y-84659051D01*
X71210036Y-84645182D01*
X71222090Y-84576363D01*
X71238271Y-84551588D01*
X73606730Y-81729490D01*
X73664904Y-81690794D01*
X73687828Y-81685985D01*
X73770780Y-81676639D01*
X73770783Y-81676638D01*
X73770785Y-81676638D01*
X73941052Y-81617059D01*
X74093792Y-81521086D01*
X74221346Y-81393532D01*
X74317319Y-81240792D01*
X74376898Y-81070525D01*
X74382221Y-81023283D01*
X74397095Y-80891273D01*
X74397095Y-80891266D01*
X74376899Y-80712020D01*
X74376898Y-80712015D01*
X74320532Y-80550931D01*
X74317319Y-80541748D01*
X74221346Y-80389008D01*
X74093792Y-80261454D01*
X74055082Y-80237131D01*
X73941053Y-80165481D01*
X73770784Y-80105901D01*
X73770779Y-80105900D01*
X73591534Y-80085705D01*
X73591526Y-80085705D01*
X73412280Y-80105900D01*
X73412275Y-80105901D01*
X73242006Y-80165481D01*
X73089267Y-80261454D01*
X72961714Y-80389007D01*
X72865741Y-80541746D01*
X72806161Y-80712015D01*
X72806160Y-80712020D01*
X72785965Y-80891266D01*
X72785965Y-80891270D01*
X72788109Y-80910305D01*
X72790293Y-80929688D01*
X72778236Y-80998510D01*
X72762054Y-81023283D01*
X70393599Y-83845378D01*
X70335424Y-83884075D01*
X70312501Y-83888884D01*
X70229550Y-83898230D01*
X70059278Y-83957810D01*
X69906537Y-84053784D01*
X69778984Y-84181337D01*
X69683011Y-84334076D01*
X69623431Y-84504345D01*
X69623430Y-84504350D01*
X69603235Y-84683596D01*
X69603235Y-84683603D01*
X66282236Y-84683603D01*
X66200080Y-84600048D01*
X65898641Y-84282935D01*
X65548370Y-83914450D01*
X65533465Y-83898230D01*
X65461927Y-83820379D01*
X65388493Y-83740466D01*
X64760324Y-83033264D01*
X64606391Y-82853954D01*
X64587229Y-82830855D01*
X64002493Y-82125972D01*
X63854665Y-81941516D01*
X63275709Y-81193567D01*
X63275233Y-81192930D01*
X63134209Y-81004243D01*
X62800568Y-80541746D01*
X62580821Y-80237131D01*
X62475425Y-80085705D01*
X62445836Y-80043194D01*
X61918641Y-79257786D01*
X61844449Y-79143116D01*
X61790290Y-79059409D01*
X61289948Y-78256684D01*
X61168331Y-78054021D01*
X60695397Y-77234875D01*
X60580704Y-77028238D01*
X60572587Y-77013014D01*
X60135712Y-76193599D01*
X60028037Y-75983155D01*
X59611489Y-75133962D01*
X59511015Y-74920070D01*
X59430838Y-74741614D01*
X59123365Y-74057250D01*
X59036711Y-73855322D01*
X59030162Y-73840060D01*
X58717005Y-73074910D01*
X58671898Y-72964697D01*
X58650844Y-72910671D01*
X58586081Y-72744480D01*
X58257560Y-71857447D01*
X58179228Y-71634447D01*
X58178458Y-71632132D01*
X57880879Y-70736901D01*
X57810130Y-70511406D01*
X57609235Y-69831087D01*
X57542253Y-69604257D01*
X57479164Y-69376516D01*
X57242072Y-68460813D01*
X57186701Y-68231029D01*
X56980690Y-67307921D01*
X56979867Y-67303920D01*
X56933105Y-67076371D01*
X56758382Y-66146802D01*
X56749262Y-66093317D01*
X56718651Y-65913807D01*
X56575420Y-64978847D01*
X56543584Y-64744672D01*
X56432013Y-63805408D01*
X56408103Y-63570290D01*
X56328317Y-62627785D01*
X56312360Y-62391950D01*
X56264451Y-61447256D01*
X56256472Y-61211180D01*
X56256113Y-61189867D01*
X56274661Y-61122505D01*
X56326683Y-61075863D01*
X56395663Y-61064751D01*
X56446066Y-61082776D01*
X56450473Y-61085545D01*
X56597275Y-61177788D01*
X56767545Y-61237368D01*
X56767550Y-61237369D01*
X56946796Y-61257565D01*
X56946800Y-61257565D01*
X56946804Y-61257565D01*
X57126049Y-61237369D01*
X57126052Y-61237368D01*
X57126055Y-61237368D01*
X57296322Y-61177789D01*
X57449062Y-61081816D01*
X57477688Y-61053189D01*
X57539007Y-61019705D01*
X57562181Y-61016912D01*
X59276632Y-60972951D01*
X59344153Y-60990910D01*
X59391246Y-61042524D01*
X59402959Y-61111405D01*
X59396851Y-61137864D01*
X59361832Y-61237942D01*
X59361830Y-61237950D01*
X59341635Y-61417196D01*
X59341635Y-61417203D01*
X59361830Y-61596449D01*
X59361831Y-61596454D01*
X59421411Y-61766723D01*
X59501772Y-61894616D01*
X59517384Y-61919462D01*
X59644938Y-62047016D01*
X59797678Y-62142989D01*
X59884765Y-62173462D01*
X59967945Y-62202568D01*
X59967950Y-62202569D01*
X60147196Y-62222765D01*
X60147200Y-62222765D01*
X60147204Y-62222765D01*
X60326449Y-62202569D01*
X60326452Y-62202568D01*
X60326455Y-62202568D01*
X60496722Y-62142989D01*
X60649462Y-62047016D01*
X60684728Y-62011749D01*
X60746049Y-61978263D01*
X60767895Y-61975512D01*
X62356254Y-61917753D01*
X62423962Y-61934988D01*
X62438074Y-61944727D01*
X62438936Y-61945414D01*
X62438938Y-61945416D01*
X62591678Y-62041389D01*
X62674487Y-62070365D01*
X62761945Y-62100968D01*
X62761950Y-62100969D01*
X62941196Y-62121165D01*
X62941200Y-62121165D01*
X62941204Y-62121165D01*
X63120449Y-62100969D01*
X63120452Y-62100968D01*
X63120455Y-62100968D01*
X63290722Y-62041389D01*
X63443462Y-61945416D01*
X63571016Y-61817862D01*
X63666989Y-61665122D01*
X63726568Y-61494855D01*
X63726569Y-61494849D01*
X63746765Y-61315603D01*
X63746765Y-61315596D01*
X63726569Y-61136350D01*
X63726568Y-61136345D01*
X63701516Y-61064751D01*
X63666989Y-60966078D01*
X63650467Y-60939784D01*
X63571015Y-60813337D01*
X63443462Y-60685784D01*
X63290723Y-60589811D01*
X63120454Y-60530231D01*
X63120449Y-60530230D01*
X62941204Y-60510035D01*
X62941196Y-60510035D01*
X62761950Y-60530230D01*
X62761945Y-60530231D01*
X62591676Y-60589811D01*
X62438934Y-60685786D01*
X62438933Y-60685786D01*
X62403669Y-60721051D01*
X62342346Y-60754536D01*
X62320495Y-60757287D01*
X62165559Y-60762921D01*
X62097849Y-60745686D01*
X62050205Y-60694579D01*
X62037755Y-60625828D01*
X62044013Y-60598044D01*
X62048218Y-60586029D01*
X62050168Y-60580455D01*
X62051668Y-60567141D01*
X62070365Y-60401203D01*
X62070365Y-60401196D01*
X62050169Y-60221950D01*
X62050168Y-60221945D01*
X62039781Y-60192262D01*
X62024013Y-60147200D01*
X65926557Y-60147200D01*
X65946326Y-61141329D01*
X66005603Y-62133887D01*
X66104294Y-63123303D01*
X66242242Y-64108013D01*
X66419230Y-65086460D01*
X66634978Y-66057097D01*
X66889144Y-67018390D01*
X67181327Y-67968818D01*
X67511064Y-68906878D01*
X67877835Y-69831087D01*
X68281060Y-70739984D01*
X68720100Y-71632132D01*
X69194261Y-72506120D01*
X69702795Y-73360566D01*
X70244896Y-74194118D01*
X70819708Y-75005460D01*
X71426321Y-75793308D01*
X72063777Y-76556416D01*
X72731068Y-77293577D01*
X73427138Y-78003627D01*
X74150887Y-78685442D01*
X74901170Y-79337944D01*
X75676801Y-79960102D01*
X76476553Y-80550931D01*
X77299163Y-81109498D01*
X78143328Y-81634919D01*
X78998529Y-82121140D01*
X79007717Y-82126364D01*
X79890959Y-82583055D01*
X80780042Y-82998838D01*
X80791660Y-83004271D01*
X80959948Y-83074961D01*
X80960993Y-83075440D01*
X80965602Y-83077335D01*
X81466065Y-83287554D01*
X81708394Y-83389344D01*
X81883001Y-83454649D01*
X81886334Y-83456020D01*
X81892028Y-83458099D01*
X81900501Y-83461194D01*
X82444959Y-83664827D01*
X82639713Y-83737667D01*
X82820469Y-83797194D01*
X82824196Y-83798555D01*
X82826154Y-83799270D01*
X82840602Y-83803900D01*
X82849264Y-83806677D01*
X83584143Y-84048689D01*
X83650240Y-84067578D01*
X83770924Y-84102068D01*
X83773781Y-84102984D01*
X83778954Y-84104643D01*
X83787129Y-84106906D01*
X83810344Y-84113334D01*
X84540193Y-84321918D01*
X84732774Y-84368760D01*
X84743210Y-84371651D01*
X84780015Y-84380273D01*
X84782477Y-84380850D01*
X85506348Y-84556921D01*
X85531945Y-84562078D01*
X85549973Y-84565711D01*
X85611803Y-84598249D01*
X85646227Y-84659051D01*
X85642314Y-84728811D01*
X85601307Y-84785381D01*
X85539366Y-84810488D01*
X85520348Y-84812631D01*
X85520345Y-84812631D01*
X85350076Y-84872211D01*
X85197337Y-84968184D01*
X85069784Y-85095737D01*
X84973811Y-85248476D01*
X84914231Y-85418745D01*
X84914230Y-85418750D01*
X84894035Y-85597996D01*
X84894035Y-85598003D01*
X84914230Y-85777249D01*
X84914231Y-85777254D01*
X84973811Y-85947523D01*
X84979785Y-85957030D01*
X84998785Y-86024267D01*
X84995446Y-86051611D01*
X84105280Y-89805789D01*
X84070659Y-89866478D01*
X84050601Y-89882171D01*
X84028938Y-89895783D01*
X83901383Y-90023339D01*
X83805411Y-90176076D01*
X83745831Y-90346345D01*
X83745830Y-90346350D01*
X83725635Y-90525596D01*
X83725635Y-90525603D01*
X83745830Y-90704849D01*
X83745831Y-90704854D01*
X83805411Y-90875123D01*
X83901384Y-91027862D01*
X84028938Y-91155416D01*
X84181678Y-91251389D01*
X84351945Y-91310968D01*
X84351950Y-91310969D01*
X84531196Y-91331165D01*
X84531200Y-91331165D01*
X84531204Y-91331165D01*
X84637698Y-91319166D01*
X87223100Y-91319166D01*
X87238536Y-91495603D01*
X87238538Y-91495613D01*
X87299694Y-91723855D01*
X87299696Y-91723859D01*
X87299697Y-91723863D01*
X87323600Y-91775122D01*
X87399564Y-91938028D01*
X87399565Y-91938030D01*
X87535105Y-92131602D01*
X87702197Y-92298693D01*
X87702199Y-92298695D01*
X87745275Y-92328857D01*
X87895765Y-92434232D01*
X87895767Y-92434233D01*
X87895770Y-92434235D01*
X88109937Y-92534103D01*
X88109943Y-92534104D01*
X88109944Y-92534105D01*
X88150650Y-92545012D01*
X88338192Y-92595263D01*
X88514634Y-92610700D01*
X88573599Y-92615859D01*
X88573600Y-92615859D01*
X88573601Y-92615859D01*
X88632566Y-92610700D01*
X88809008Y-92595263D01*
X89037263Y-92534103D01*
X89251429Y-92434235D01*
X89445001Y-92298695D01*
X89612095Y-92131601D01*
X89722026Y-91974601D01*
X89776601Y-91930978D01*
X89846100Y-91923784D01*
X89908455Y-91955306D01*
X89925171Y-91974598D01*
X89952057Y-92012995D01*
X90035106Y-92131603D01*
X90202197Y-92298693D01*
X90202199Y-92298695D01*
X90245275Y-92328857D01*
X90395765Y-92434232D01*
X90395767Y-92434233D01*
X90395770Y-92434235D01*
X90609937Y-92534103D01*
X90609943Y-92534104D01*
X90609944Y-92534105D01*
X90650650Y-92545012D01*
X90838192Y-92595263D01*
X91014634Y-92610700D01*
X91073599Y-92615859D01*
X91073600Y-92615859D01*
X91073601Y-92615859D01*
X91132566Y-92610700D01*
X91309008Y-92595263D01*
X91537263Y-92534103D01*
X91751429Y-92434235D01*
X91945001Y-92298695D01*
X92092202Y-92151493D01*
X92153524Y-92118010D01*
X92223215Y-92122994D01*
X92279149Y-92164865D01*
X92285421Y-92174079D01*
X92288786Y-92179534D01*
X92380888Y-92328856D01*
X92504944Y-92452912D01*
X92654266Y-92545014D01*
X92820803Y-92600199D01*
X92923591Y-92610700D01*
X94223608Y-92610699D01*
X94326397Y-92600199D01*
X94492934Y-92545014D01*
X94642256Y-92452912D01*
X94766312Y-92328856D01*
X94858414Y-92179534D01*
X94913599Y-92012997D01*
X94924100Y-91910209D01*
X94924099Y-90431764D01*
X96730435Y-90431764D01*
X96750630Y-90611010D01*
X96750631Y-90611015D01*
X96810211Y-90781284D01*
X96872385Y-90880232D01*
X96906184Y-90934023D01*
X97033738Y-91061577D01*
X97057639Y-91076594D01*
X97061715Y-91079156D01*
X97108006Y-91131491D01*
X97116145Y-91154498D01*
X97538908Y-92871129D01*
X97535826Y-92940931D01*
X97523503Y-92966748D01*
X97521409Y-92970079D01*
X97461833Y-93140337D01*
X97461830Y-93140350D01*
X97441635Y-93319596D01*
X97441635Y-93319603D01*
X97461830Y-93498849D01*
X97461831Y-93498854D01*
X97521411Y-93669123D01*
X97549480Y-93713794D01*
X97617384Y-93821862D01*
X97744938Y-93949416D01*
X97822038Y-93997861D01*
X97872255Y-94029415D01*
X97897678Y-94045389D01*
X98067945Y-94104968D01*
X98067950Y-94104969D01*
X98247196Y-94125165D01*
X98247200Y-94125165D01*
X98247204Y-94125165D01*
X98426449Y-94104969D01*
X98426452Y-94104968D01*
X98426455Y-94104968D01*
X98596722Y-94045389D01*
X98749462Y-93949416D01*
X98877016Y-93821862D01*
X98972989Y-93669122D01*
X99032568Y-93498855D01*
X99032569Y-93498849D01*
X99052765Y-93319603D01*
X99052765Y-93319596D01*
X99032569Y-93140350D01*
X99032568Y-93140345D01*
X98972988Y-92970076D01*
X98877015Y-92817337D01*
X98749463Y-92689785D01*
X98749462Y-92689784D01*
X98736026Y-92681342D01*
X98721481Y-92672202D01*
X98675191Y-92619866D01*
X98667053Y-92596861D01*
X98299849Y-91105825D01*
X98244291Y-90880231D01*
X98247373Y-90810430D01*
X98259703Y-90784602D01*
X98261789Y-90781283D01*
X98321368Y-90611016D01*
X98321369Y-90611010D01*
X98341565Y-90431764D01*
X98341565Y-90431757D01*
X98321369Y-90252511D01*
X98321368Y-90252506D01*
X98294624Y-90176076D01*
X98261789Y-90082239D01*
X98165816Y-89929499D01*
X98038262Y-89801945D01*
X97933786Y-89736298D01*
X97885523Y-89705972D01*
X97715254Y-89646392D01*
X97715249Y-89646391D01*
X97536004Y-89626196D01*
X97535996Y-89626196D01*
X97356750Y-89646391D01*
X97356745Y-89646392D01*
X97186476Y-89705972D01*
X97033737Y-89801945D01*
X96906184Y-89929498D01*
X96810211Y-90082237D01*
X96750631Y-90252506D01*
X96750630Y-90252511D01*
X96730435Y-90431757D01*
X96730435Y-90431764D01*
X94924099Y-90431764D01*
X94924099Y-90360192D01*
X94913599Y-90257403D01*
X94858414Y-90090866D01*
X94766312Y-89941544D01*
X94642256Y-89817488D01*
X94549488Y-89760269D01*
X94492936Y-89725387D01*
X94492931Y-89725385D01*
X94491462Y-89724898D01*
X94326397Y-89670201D01*
X94326395Y-89670200D01*
X94223610Y-89659700D01*
X92923598Y-89659700D01*
X92923581Y-89659701D01*
X92820803Y-89670200D01*
X92820800Y-89670201D01*
X92654268Y-89725385D01*
X92654263Y-89725387D01*
X92504942Y-89817489D01*
X92380889Y-89941542D01*
X92285421Y-90096321D01*
X92233473Y-90143045D01*
X92164510Y-90154268D01*
X92100428Y-90126424D01*
X92092201Y-90118905D01*
X91945002Y-89971706D01*
X91944995Y-89971701D01*
X91751434Y-89836167D01*
X91751430Y-89836165D01*
X91689239Y-89807165D01*
X91537263Y-89736297D01*
X91537259Y-89736296D01*
X91537255Y-89736294D01*
X91309013Y-89675138D01*
X91309003Y-89675136D01*
X91073601Y-89654541D01*
X91073599Y-89654541D01*
X90838196Y-89675136D01*
X90838186Y-89675138D01*
X90609944Y-89736294D01*
X90609935Y-89736298D01*
X90395771Y-89836164D01*
X90395769Y-89836165D01*
X90202197Y-89971705D01*
X90035105Y-90138797D01*
X89925175Y-90295795D01*
X89870598Y-90339420D01*
X89801100Y-90346614D01*
X89738745Y-90315091D01*
X89722025Y-90295795D01*
X89612094Y-90138797D01*
X89445002Y-89971706D01*
X89444995Y-89971701D01*
X89251434Y-89836167D01*
X89251430Y-89836165D01*
X89189239Y-89807165D01*
X89037263Y-89736297D01*
X89037259Y-89736296D01*
X89037255Y-89736294D01*
X88809013Y-89675138D01*
X88809003Y-89675136D01*
X88573601Y-89654541D01*
X88573599Y-89654541D01*
X88338196Y-89675136D01*
X88338186Y-89675138D01*
X88109944Y-89736294D01*
X88109935Y-89736298D01*
X87895771Y-89836164D01*
X87895769Y-89836165D01*
X87702197Y-89971705D01*
X87535105Y-90138797D01*
X87399565Y-90332369D01*
X87399564Y-90332371D01*
X87299698Y-90546535D01*
X87299694Y-90546544D01*
X87238538Y-90774786D01*
X87238536Y-90774796D01*
X87223100Y-90951234D01*
X87223100Y-91319166D01*
X84637698Y-91319166D01*
X84710449Y-91310969D01*
X84710452Y-91310968D01*
X84710455Y-91310968D01*
X84880722Y-91251389D01*
X85033462Y-91155416D01*
X85161016Y-91027862D01*
X85256989Y-90875122D01*
X85316568Y-90704855D01*
X85316569Y-90704849D01*
X85336765Y-90525603D01*
X85336765Y-90525596D01*
X85316569Y-90346350D01*
X85316568Y-90346345D01*
X85256990Y-90176081D01*
X85256989Y-90176078D01*
X85251011Y-90166564D01*
X85232013Y-90099330D01*
X85235351Y-90071991D01*
X86125519Y-86317807D01*
X86160139Y-86257121D01*
X86180193Y-86241430D01*
X86201862Y-86227816D01*
X86329416Y-86100262D01*
X86425389Y-85947522D01*
X86484968Y-85777255D01*
X86493602Y-85700627D01*
X86505165Y-85598003D01*
X86505165Y-85597996D01*
X86484969Y-85418750D01*
X86484968Y-85418745D01*
X86472945Y-85384386D01*
X86425389Y-85248478D01*
X86329416Y-85095738D01*
X86201862Y-84968184D01*
X86140154Y-84929410D01*
X86093864Y-84877076D01*
X86083216Y-84808022D01*
X86111591Y-84744174D01*
X86169981Y-84705802D01*
X86230620Y-84702860D01*
X86359410Y-84728811D01*
X86481084Y-84753328D01*
X86684546Y-84785968D01*
X86699892Y-84788921D01*
X86725886Y-84792851D01*
X86753124Y-84796969D01*
X87289210Y-84882970D01*
X87462856Y-84910827D01*
X87485732Y-84913569D01*
X87671413Y-84935826D01*
X87689187Y-84938515D01*
X87748680Y-84945088D01*
X88450115Y-85029170D01*
X88663442Y-85046172D01*
X88683675Y-85048409D01*
X88748990Y-85052990D01*
X89441297Y-85108169D01*
X89659094Y-85116834D01*
X89681762Y-85118425D01*
X89752250Y-85120541D01*
X90434837Y-85147700D01*
X90656806Y-85147700D01*
X90681852Y-85148452D01*
X90757006Y-85147700D01*
X91429163Y-85147700D01*
X91655022Y-85138713D01*
X91681933Y-85138445D01*
X91682344Y-85138441D01*
X91690741Y-85138020D01*
X91761552Y-85134474D01*
X92422703Y-85108169D01*
X92652034Y-85089890D01*
X92680659Y-85088458D01*
X92681633Y-85088410D01*
X92713551Y-85085527D01*
X92764471Y-85080929D01*
X93413885Y-85029170D01*
X93646332Y-85001306D01*
X93678119Y-84998437D01*
X93764092Y-84987190D01*
X94401143Y-84910827D01*
X94636293Y-84873103D01*
X94666920Y-84869098D01*
X94670209Y-84868668D01*
X94704089Y-84862849D01*
X94758914Y-84853432D01*
X95382916Y-84753328D01*
X95620370Y-84705481D01*
X95649573Y-84700466D01*
X95656312Y-84699309D01*
X95685835Y-84693012D01*
X95747238Y-84679917D01*
X96357651Y-84556921D01*
X96596985Y-84498706D01*
X96634849Y-84490632D01*
X96652443Y-84486137D01*
X96727493Y-84466962D01*
X96796414Y-84450198D01*
X101780230Y-84450198D01*
X101800425Y-84629444D01*
X101800426Y-84629449D01*
X101860006Y-84799718D01*
X101947219Y-84938515D01*
X101955979Y-84952457D01*
X102083533Y-85080011D01*
X102236273Y-85175984D01*
X102236281Y-85175986D01*
X102240779Y-85178153D01*
X102292640Y-85224975D01*
X102302656Y-85245210D01*
X103601318Y-88608543D01*
X103607103Y-88678172D01*
X103602684Y-88694162D01*
X103557832Y-88822342D01*
X103557830Y-88822350D01*
X103537635Y-89001596D01*
X103537635Y-89001603D01*
X103557830Y-89180849D01*
X103557831Y-89180854D01*
X103617411Y-89351123D01*
X103674016Y-89441208D01*
X103713384Y-89503862D01*
X103840938Y-89631416D01*
X103910518Y-89675136D01*
X103990491Y-89725387D01*
X103993678Y-89727389D01*
X104158624Y-89785106D01*
X104163945Y-89786968D01*
X104163950Y-89786969D01*
X104343196Y-89807165D01*
X104343200Y-89807165D01*
X104343204Y-89807165D01*
X104522449Y-89786969D01*
X104522452Y-89786968D01*
X104522455Y-89786968D01*
X104692722Y-89727389D01*
X104845462Y-89631416D01*
X104973016Y-89503862D01*
X105068989Y-89351122D01*
X105128568Y-89180855D01*
X105133221Y-89139560D01*
X105148765Y-89001603D01*
X105148765Y-89001596D01*
X105128569Y-88822350D01*
X105128568Y-88822345D01*
X105113261Y-88778601D01*
X105068989Y-88652078D01*
X105061351Y-88639923D01*
X105010497Y-88558989D01*
X104973016Y-88499338D01*
X104845462Y-88371784D01*
X104692722Y-88275811D01*
X104692719Y-88275810D01*
X104692716Y-88275808D01*
X104688210Y-88273638D01*
X104636351Y-88226815D01*
X104626340Y-88206591D01*
X104235196Y-87193587D01*
X104229411Y-87123957D01*
X104262189Y-87062254D01*
X104323124Y-87028067D01*
X104392868Y-87032250D01*
X104395963Y-87033549D01*
X104400077Y-87034988D01*
X104400078Y-87034989D01*
X104436781Y-87047832D01*
X104570345Y-87094568D01*
X104570350Y-87094569D01*
X104749596Y-87114765D01*
X104749600Y-87114765D01*
X104749604Y-87114765D01*
X104928849Y-87094569D01*
X104928852Y-87094568D01*
X104928855Y-87094568D01*
X105099122Y-87034989D01*
X105251862Y-86939016D01*
X105379416Y-86811462D01*
X105475389Y-86658722D01*
X105534968Y-86488455D01*
X105535176Y-86486609D01*
X105555165Y-86309203D01*
X105555165Y-86309196D01*
X105534969Y-86129950D01*
X105534968Y-86129945D01*
X105504491Y-86042847D01*
X105475389Y-85959678D01*
X105467751Y-85947523D01*
X105406814Y-85850542D01*
X105379416Y-85806938D01*
X105314269Y-85741791D01*
X105280784Y-85680468D01*
X105278379Y-85664419D01*
X105234877Y-85142386D01*
X105248927Y-85073945D01*
X105253448Y-85066129D01*
X105325950Y-84950745D01*
X105332224Y-84940760D01*
X105341507Y-84914231D01*
X105391804Y-84770491D01*
X105391805Y-84770485D01*
X105412001Y-84591239D01*
X105412001Y-84591232D01*
X105391805Y-84411986D01*
X105391804Y-84411981D01*
X105376677Y-84368751D01*
X105332225Y-84241714D01*
X105315375Y-84214898D01*
X105246097Y-84104643D01*
X105236252Y-84088974D01*
X105108698Y-83961420D01*
X105064122Y-83933411D01*
X104955959Y-83865447D01*
X104785690Y-83805867D01*
X104785685Y-83805866D01*
X104606440Y-83785671D01*
X104606432Y-83785671D01*
X104427186Y-83805866D01*
X104427181Y-83805867D01*
X104256912Y-83865447D01*
X104104173Y-83961420D01*
X103976620Y-84088973D01*
X103880647Y-84241712D01*
X103821067Y-84411981D01*
X103821066Y-84411986D01*
X103800871Y-84591232D01*
X103800871Y-84591239D01*
X103821066Y-84770485D01*
X103821067Y-84770490D01*
X103880647Y-84940759D01*
X103976620Y-85093498D01*
X104041765Y-85158643D01*
X104075250Y-85219966D01*
X104077656Y-85236027D01*
X104121157Y-85758048D01*
X104107107Y-85826490D01*
X104102579Y-85834316D01*
X104023810Y-85959676D01*
X104009117Y-86001668D01*
X103968395Y-86058443D01*
X103903442Y-86084190D01*
X103834881Y-86070733D01*
X103784478Y-86022346D01*
X103776400Y-86005377D01*
X103569279Y-85468968D01*
X103327674Y-84843249D01*
X103321890Y-84773623D01*
X103326308Y-84757638D01*
X103352215Y-84683600D01*
X103371162Y-84629454D01*
X103371164Y-84629444D01*
X103391360Y-84450198D01*
X103391360Y-84450191D01*
X103371164Y-84270945D01*
X103371163Y-84270940D01*
X103339810Y-84181338D01*
X103311584Y-84100673D01*
X103304232Y-84088973D01*
X103230360Y-83971406D01*
X103215611Y-83947933D01*
X103088057Y-83820379D01*
X103080852Y-83815852D01*
X102935318Y-83724406D01*
X102765049Y-83664826D01*
X102765044Y-83664825D01*
X102585799Y-83644630D01*
X102585791Y-83644630D01*
X102406545Y-83664825D01*
X102406540Y-83664826D01*
X102236271Y-83724406D01*
X102083532Y-83820379D01*
X101955979Y-83947932D01*
X101860006Y-84100671D01*
X101800426Y-84270940D01*
X101800425Y-84270945D01*
X101780230Y-84450191D01*
X101780230Y-84450198D01*
X96796414Y-84450198D01*
X97323807Y-84321918D01*
X97564635Y-84253091D01*
X97604253Y-84242971D01*
X97698182Y-84214925D01*
X98279856Y-84048689D01*
X98521687Y-83969048D01*
X98562973Y-83956723D01*
X98657855Y-83924205D01*
X99224287Y-83737667D01*
X99466610Y-83647035D01*
X99509473Y-83632347D01*
X99604815Y-83595345D01*
X100155606Y-83389344D01*
X100397959Y-83287543D01*
X100427305Y-83276155D01*
X100442237Y-83270361D01*
X100469497Y-83258505D01*
X100537667Y-83228859D01*
X101072340Y-83004271D01*
X101199272Y-82944911D01*
X101314257Y-82891138D01*
X101359770Y-82871345D01*
X101395751Y-82853954D01*
X101454828Y-82825398D01*
X101826462Y-82651603D01*
X104960035Y-82651603D01*
X104980230Y-82830849D01*
X104980231Y-82830854D01*
X105039811Y-83001123D01*
X105060007Y-83033264D01*
X105135784Y-83153862D01*
X105263338Y-83281416D01*
X105416078Y-83377389D01*
X105450243Y-83389344D01*
X105558613Y-83427264D01*
X105615389Y-83467986D01*
X105620488Y-83475008D01*
X106308917Y-84496548D01*
X106521930Y-84812632D01*
X106524453Y-84816375D01*
X106545595Y-84882970D01*
X106544844Y-84899555D01*
X106534835Y-84988395D01*
X106534835Y-84988403D01*
X106555030Y-85167649D01*
X106555031Y-85167654D01*
X106614611Y-85337923D01*
X106710584Y-85490662D01*
X106714925Y-85496105D01*
X106712820Y-85497783D01*
X106740430Y-85548346D01*
X106735446Y-85618038D01*
X106693574Y-85673971D01*
X106686011Y-85679165D01*
X106685739Y-85679382D01*
X106558184Y-85806937D01*
X106462211Y-85959676D01*
X106402631Y-86129945D01*
X106402630Y-86129950D01*
X106382435Y-86309196D01*
X106382435Y-86309203D01*
X106402630Y-86488449D01*
X106402631Y-86488454D01*
X106462211Y-86658723D01*
X106558184Y-86811462D01*
X106685738Y-86939016D01*
X106776080Y-86995782D01*
X106838393Y-87034936D01*
X106838478Y-87034989D01*
X106916397Y-87062254D01*
X107008745Y-87094568D01*
X107008750Y-87094569D01*
X107187997Y-87114765D01*
X107188000Y-87114765D01*
X107188001Y-87114765D01*
X107202876Y-87113088D01*
X107252801Y-87107463D01*
X107321622Y-87119517D01*
X107343521Y-87133358D01*
X107419811Y-87193587D01*
X108229987Y-87833200D01*
X108280330Y-87872944D01*
X108320751Y-87929934D01*
X108326714Y-87956386D01*
X108333030Y-88012449D01*
X108333031Y-88012454D01*
X108392611Y-88182723D01*
X108488584Y-88335462D01*
X108616138Y-88463016D01*
X108768878Y-88558989D01*
X108883943Y-88599252D01*
X108939145Y-88618568D01*
X108939150Y-88618569D01*
X109118396Y-88638765D01*
X109118400Y-88638765D01*
X109118404Y-88638765D01*
X109297649Y-88618569D01*
X109297652Y-88618568D01*
X109297655Y-88618568D01*
X109467922Y-88558989D01*
X109620662Y-88463016D01*
X109748216Y-88335462D01*
X109844189Y-88182722D01*
X109903768Y-88012455D01*
X109903769Y-88012449D01*
X109923965Y-87833203D01*
X109923965Y-87833196D01*
X109903769Y-87653950D01*
X109903768Y-87653945D01*
X109844188Y-87483676D01*
X109748215Y-87330937D01*
X109620662Y-87203384D01*
X109467923Y-87107411D01*
X109297654Y-87047831D01*
X109297649Y-87047830D01*
X109118404Y-87027635D01*
X109118397Y-87027635D01*
X109053597Y-87034936D01*
X108984775Y-87022881D01*
X108962878Y-87009041D01*
X108026069Y-86269454D01*
X107985648Y-86212464D01*
X107979685Y-86186016D01*
X107973368Y-86129945D01*
X107913789Y-85959678D01*
X107817816Y-85806938D01*
X107817815Y-85806937D01*
X107813475Y-85801495D01*
X107815578Y-85799817D01*
X107787968Y-85749252D01*
X107792952Y-85679560D01*
X107834824Y-85623627D01*
X107842400Y-85618424D01*
X107842656Y-85618219D01*
X107842662Y-85618216D01*
X107970216Y-85490662D01*
X108066189Y-85337922D01*
X108125768Y-85167655D01*
X108125769Y-85167649D01*
X108145965Y-84988403D01*
X108145965Y-84988396D01*
X108125769Y-84809150D01*
X108125768Y-84809145D01*
X108115736Y-84780476D01*
X108066189Y-84638878D01*
X108062154Y-84632457D01*
X107981656Y-84504345D01*
X107970216Y-84486138D01*
X107842662Y-84358584D01*
X107803658Y-84334076D01*
X107689921Y-84262610D01*
X107547385Y-84212735D01*
X107490608Y-84172013D01*
X107485510Y-84164991D01*
X107434281Y-84088974D01*
X106581544Y-82823622D01*
X106560403Y-82757029D01*
X106561153Y-82740457D01*
X106571165Y-82651600D01*
X106563442Y-82583055D01*
X106550969Y-82472350D01*
X106550968Y-82472345D01*
X106491388Y-82302076D01*
X106395415Y-82149337D01*
X106267862Y-82021784D01*
X106115123Y-81925811D01*
X105944854Y-81866231D01*
X105944849Y-81866230D01*
X105765604Y-81846035D01*
X105765596Y-81846035D01*
X105586350Y-81866230D01*
X105586345Y-81866231D01*
X105416076Y-81925811D01*
X105263337Y-82021784D01*
X105135784Y-82149337D01*
X105039811Y-82302076D01*
X104980231Y-82472345D01*
X104980230Y-82472350D01*
X104960035Y-82651596D01*
X104960035Y-82651603D01*
X101826462Y-82651603D01*
X101973041Y-82583055D01*
X102214013Y-82458457D01*
X102248089Y-82441987D01*
X102260605Y-82435939D01*
X102298822Y-82415541D01*
X102354998Y-82385559D01*
X102856283Y-82126364D01*
X103095788Y-81990193D01*
X103143297Y-81964839D01*
X103236635Y-81910115D01*
X103720671Y-81634919D01*
X103958192Y-81487082D01*
X104006435Y-81458800D01*
X104098410Y-81399808D01*
X104564837Y-81109498D01*
X104799805Y-80949950D01*
X104848635Y-80918633D01*
X104938883Y-80855513D01*
X105387447Y-80550931D01*
X105619311Y-80379637D01*
X105668549Y-80345202D01*
X105756833Y-80278041D01*
X106187199Y-79960102D01*
X106415440Y-79777022D01*
X106464863Y-79739426D01*
X106550857Y-79668399D01*
X106962830Y-79337944D01*
X107186878Y-79143094D01*
X107236303Y-79102275D01*
X107319804Y-79027493D01*
X107713113Y-78685442D01*
X107932382Y-78478877D01*
X107981633Y-78434770D01*
X108014941Y-78402445D01*
X108062295Y-78356491D01*
X108436862Y-78003627D01*
X108650813Y-77785378D01*
X108699660Y-77737977D01*
X108777284Y-77656367D01*
X109132932Y-77293577D01*
X109341026Y-77063693D01*
X109389233Y-77013014D01*
X109463562Y-76928326D01*
X109800223Y-76556416D01*
X110001869Y-76315022D01*
X110049249Y-76261043D01*
X110120145Y-76173431D01*
X110437679Y-75793308D01*
X110440542Y-75789589D01*
X110632259Y-75540595D01*
X110650280Y-75518323D01*
X110678650Y-75483267D01*
X110745958Y-75392924D01*
X111044292Y-75005460D01*
X111231260Y-74741555D01*
X111276429Y-74680932D01*
X111340003Y-74588065D01*
X111619104Y-74194118D01*
X111797881Y-73919224D01*
X111841628Y-73855322D01*
X111901268Y-73760252D01*
X112161205Y-73360566D01*
X112331247Y-73074858D01*
X112373342Y-73007760D01*
X112428946Y-72910702D01*
X112669739Y-72506120D01*
X112830460Y-72209873D01*
X112870720Y-72139603D01*
X112922216Y-72040745D01*
X113143900Y-71632132D01*
X113294738Y-71325621D01*
X113332965Y-71252241D01*
X113380253Y-71151850D01*
X113582940Y-70739984D01*
X113723344Y-70423501D01*
X113759337Y-70347095D01*
X113802322Y-70245479D01*
X113986165Y-69831087D01*
X114115614Y-69504894D01*
X114149152Y-69425614D01*
X114187766Y-69323079D01*
X114352936Y-68906878D01*
X114470872Y-68571363D01*
X114501788Y-68489277D01*
X114536047Y-68385948D01*
X114682673Y-67968818D01*
X114788567Y-67624360D01*
X114816679Y-67539579D01*
X114846557Y-67435727D01*
X114974856Y-67018390D01*
X115068183Y-66665412D01*
X115093320Y-66578044D01*
X115094955Y-66571368D01*
X115118813Y-66473923D01*
X115229022Y-66057097D01*
X115309289Y-65695979D01*
X115331270Y-65606209D01*
X115352385Y-65502091D01*
X115444770Y-65086460D01*
X115474446Y-64922403D01*
X116745635Y-64922403D01*
X116765830Y-65101649D01*
X116765831Y-65101654D01*
X116825411Y-65271923D01*
X116832835Y-65283738D01*
X116921384Y-65424662D01*
X117048938Y-65552216D01*
X117134867Y-65606209D01*
X117178803Y-65633816D01*
X117201678Y-65648189D01*
X117206128Y-65649746D01*
X117371945Y-65707768D01*
X117371950Y-65707769D01*
X117551196Y-65727965D01*
X117551200Y-65727965D01*
X117551204Y-65727965D01*
X117730449Y-65707769D01*
X117730452Y-65707768D01*
X117730455Y-65707768D01*
X117730456Y-65707767D01*
X117730459Y-65707767D01*
X117772620Y-65693013D01*
X117896272Y-65649745D01*
X117966048Y-65646183D01*
X117971533Y-65647628D01*
X119812016Y-66177938D01*
X119870985Y-66215414D01*
X119882677Y-66231117D01*
X119918584Y-66288262D01*
X120046138Y-66415816D01*
X120198878Y-66511789D01*
X120369145Y-66571368D01*
X120369150Y-66571369D01*
X120548396Y-66591565D01*
X120548400Y-66591565D01*
X120548404Y-66591565D01*
X120727649Y-66571369D01*
X120727652Y-66571368D01*
X120727655Y-66571368D01*
X120897922Y-66511789D01*
X121050662Y-66415816D01*
X121178216Y-66288262D01*
X121274189Y-66135522D01*
X121333768Y-65965255D01*
X121353965Y-65786000D01*
X121347426Y-65727965D01*
X121333769Y-65606750D01*
X121333768Y-65606745D01*
X121274188Y-65436476D01*
X121178215Y-65283737D01*
X121050662Y-65156184D01*
X120897923Y-65060211D01*
X120727654Y-65000631D01*
X120727649Y-65000630D01*
X120548404Y-64980435D01*
X120548396Y-64980435D01*
X120369150Y-65000630D01*
X120369142Y-65000632D01*
X120203328Y-65058653D01*
X120133549Y-65062214D01*
X120128042Y-65060763D01*
X118287582Y-64530460D01*
X118228613Y-64492984D01*
X118216920Y-64477279D01*
X118181018Y-64420140D01*
X118053462Y-64292584D01*
X117900723Y-64196611D01*
X117730454Y-64137031D01*
X117730449Y-64137030D01*
X117551204Y-64116835D01*
X117551196Y-64116835D01*
X117371950Y-64137030D01*
X117371945Y-64137031D01*
X117201676Y-64196611D01*
X117048937Y-64292584D01*
X116921384Y-64420137D01*
X116825411Y-64572876D01*
X116765831Y-64743145D01*
X116765830Y-64743150D01*
X116745635Y-64922396D01*
X116745635Y-64922403D01*
X115474446Y-64922403D01*
X115511481Y-64717659D01*
X115530146Y-64625633D01*
X115546921Y-64521734D01*
X115621758Y-64108013D01*
X115674429Y-63732027D01*
X115689631Y-63637885D01*
X115702114Y-63534403D01*
X115759706Y-63123303D01*
X115797877Y-62740619D01*
X115809468Y-62644547D01*
X115817710Y-62541784D01*
X115858397Y-62133887D01*
X115881622Y-61744995D01*
X115889466Y-61647210D01*
X115891498Y-61596454D01*
X115892573Y-61569603D01*
X118102559Y-61569603D01*
X118122754Y-61748849D01*
X118122755Y-61748854D01*
X118182335Y-61919123D01*
X118262696Y-62047016D01*
X118278308Y-62071862D01*
X118405862Y-62199416D01*
X118558602Y-62295389D01*
X118728869Y-62354968D01*
X118728874Y-62354969D01*
X118908120Y-62375165D01*
X118908124Y-62375165D01*
X118908128Y-62375165D01*
X119087373Y-62354969D01*
X119087376Y-62354968D01*
X119087379Y-62354968D01*
X119257646Y-62295389D01*
X119409900Y-62199720D01*
X119477134Y-62180721D01*
X119482294Y-62180882D01*
X120224511Y-62219651D01*
X120290432Y-62242806D01*
X120305723Y-62255801D01*
X120350938Y-62301016D01*
X120503678Y-62396989D01*
X120673945Y-62456568D01*
X120673950Y-62456569D01*
X120853196Y-62476765D01*
X120853200Y-62476765D01*
X120853204Y-62476765D01*
X121032449Y-62456569D01*
X121032452Y-62456568D01*
X121032455Y-62456568D01*
X121202722Y-62396989D01*
X121355462Y-62301016D01*
X121483016Y-62173462D01*
X121578989Y-62020722D01*
X121638568Y-61850455D01*
X121638569Y-61850449D01*
X121658765Y-61671203D01*
X121658765Y-61671196D01*
X121638569Y-61491950D01*
X121638568Y-61491945D01*
X121622943Y-61447291D01*
X121578989Y-61321678D01*
X121575167Y-61315596D01*
X121515148Y-61220076D01*
X121483016Y-61168938D01*
X121355462Y-61041384D01*
X121320960Y-61019705D01*
X121202723Y-60945411D01*
X121032454Y-60885831D01*
X121032449Y-60885830D01*
X120853204Y-60865635D01*
X120853196Y-60865635D01*
X120673950Y-60885830D01*
X120673945Y-60885831D01*
X120503676Y-60945411D01*
X120351426Y-61041077D01*
X120284189Y-61060077D01*
X120278986Y-61059914D01*
X119536812Y-61021147D01*
X119470890Y-60997992D01*
X119455599Y-60984997D01*
X119410386Y-60939784D01*
X119257647Y-60843811D01*
X119087378Y-60784231D01*
X119087373Y-60784230D01*
X118908128Y-60764035D01*
X118908120Y-60764035D01*
X118728874Y-60784230D01*
X118728869Y-60784231D01*
X118558600Y-60843811D01*
X118405861Y-60939784D01*
X118278308Y-61067337D01*
X118182335Y-61220076D01*
X118122755Y-61390345D01*
X118122754Y-61390350D01*
X118102559Y-61569596D01*
X118102559Y-61569603D01*
X115892573Y-61569603D01*
X115893541Y-61545421D01*
X115917674Y-61141329D01*
X115925518Y-60746830D01*
X115926552Y-60721051D01*
X115929498Y-60647470D01*
X115930171Y-60512875D01*
X115930228Y-60510035D01*
X115937443Y-60147200D01*
X115930170Y-59781509D01*
X115929950Y-59737409D01*
X115929498Y-59646930D01*
X115925518Y-59547573D01*
X115917674Y-59153071D01*
X115904232Y-58928003D01*
X117077952Y-58928003D01*
X117098147Y-59107249D01*
X117098148Y-59107254D01*
X117157728Y-59277523D01*
X117244604Y-59415784D01*
X117253701Y-59430262D01*
X117381255Y-59557816D01*
X117533995Y-59653789D01*
X117704262Y-59713368D01*
X117704267Y-59713369D01*
X117883513Y-59733565D01*
X117883517Y-59733565D01*
X117883521Y-59733565D01*
X118062767Y-59713369D01*
X118062768Y-59713368D01*
X118062772Y-59713368D01*
X118083125Y-59706245D01*
X118152902Y-59702682D01*
X118213530Y-59737409D01*
X118229074Y-59757313D01*
X118278931Y-59836660D01*
X118278933Y-59836662D01*
X118406487Y-59964216D01*
X118496829Y-60020982D01*
X118545678Y-60051676D01*
X118559227Y-60060189D01*
X118622820Y-60082441D01*
X118729494Y-60119768D01*
X118729499Y-60119769D01*
X118908745Y-60139965D01*
X118908749Y-60139965D01*
X118908753Y-60139965D01*
X119087998Y-60119769D01*
X119088001Y-60119768D01*
X119088004Y-60119768D01*
X119258271Y-60060189D01*
X119411011Y-59964216D01*
X119538565Y-59836662D01*
X119538568Y-59836656D01*
X119542908Y-59831216D01*
X119543892Y-59832001D01*
X119590818Y-59790488D01*
X119659871Y-59779834D01*
X119723721Y-59808204D01*
X119759754Y-59863024D01*
X119760732Y-59862682D01*
X119822611Y-60039523D01*
X119918584Y-60192262D01*
X120046138Y-60319816D01*
X120089078Y-60346797D01*
X120196678Y-60414407D01*
X120198878Y-60415789D01*
X120302363Y-60452000D01*
X120369145Y-60475368D01*
X120369150Y-60475369D01*
X120548396Y-60495565D01*
X120548400Y-60495565D01*
X120548404Y-60495565D01*
X120727649Y-60475369D01*
X120727652Y-60475368D01*
X120727655Y-60475368D01*
X120897922Y-60415789D01*
X120900122Y-60414407D01*
X121008248Y-60346466D01*
X121075485Y-60327465D01*
X121086724Y-60328091D01*
X122333942Y-60454620D01*
X122398652Y-60480971D01*
X122438843Y-60538123D01*
X122441756Y-60607932D01*
X122406465Y-60668234D01*
X122387404Y-60682977D01*
X122382941Y-60685781D01*
X122382937Y-60685784D01*
X122255384Y-60813337D01*
X122159411Y-60966076D01*
X122099831Y-61136345D01*
X122099830Y-61136350D01*
X122079635Y-61315596D01*
X122079635Y-61315603D01*
X122099830Y-61494849D01*
X122099831Y-61494854D01*
X122159411Y-61665123D01*
X122223251Y-61766723D01*
X122255384Y-61817862D01*
X122382938Y-61945416D01*
X122382940Y-61945417D01*
X122502786Y-62020722D01*
X122535678Y-62041389D01*
X122618487Y-62070365D01*
X122705945Y-62100968D01*
X122705950Y-62100969D01*
X122885196Y-62121165D01*
X122885200Y-62121165D01*
X122885204Y-62121165D01*
X123064449Y-62100969D01*
X123064452Y-62100968D01*
X123064455Y-62100968D01*
X123234722Y-62041389D01*
X123387462Y-61945416D01*
X123414620Y-61918257D01*
X123475939Y-61884773D01*
X123499408Y-61881973D01*
X124477667Y-61859222D01*
X124545144Y-61877342D01*
X124561773Y-61890427D01*
X124561895Y-61890275D01*
X124567337Y-61894615D01*
X124567338Y-61894616D01*
X124648184Y-61945415D01*
X124698901Y-61977283D01*
X124720078Y-61990589D01*
X124806196Y-62020723D01*
X124890345Y-62050168D01*
X124890350Y-62050169D01*
X125069596Y-62070365D01*
X125069600Y-62070365D01*
X125069604Y-62070365D01*
X125248849Y-62050169D01*
X125248852Y-62050168D01*
X125248855Y-62050168D01*
X125419122Y-61990589D01*
X125571862Y-61894616D01*
X125699416Y-61767062D01*
X125795389Y-61614322D01*
X125854968Y-61444055D01*
X125854969Y-61444049D01*
X125875165Y-61264803D01*
X125875165Y-61264796D01*
X125854969Y-61085550D01*
X125854968Y-61085545D01*
X125832434Y-61021147D01*
X125795389Y-60915278D01*
X125699416Y-60762538D01*
X125571862Y-60634984D01*
X125528809Y-60607932D01*
X125419123Y-60539011D01*
X125248854Y-60479431D01*
X125248849Y-60479430D01*
X125069604Y-60459235D01*
X125069596Y-60459235D01*
X124940226Y-60473811D01*
X124871404Y-60461756D01*
X124820025Y-60414407D01*
X124802401Y-60346797D01*
X124809302Y-60309635D01*
X124838967Y-60224859D01*
X124838969Y-60224849D01*
X124859165Y-60045603D01*
X124859165Y-60045596D01*
X124838969Y-59866350D01*
X124838968Y-59866345D01*
X124827603Y-59833867D01*
X124779389Y-59696078D01*
X124764691Y-59672687D01*
X124692513Y-59557816D01*
X124683416Y-59543338D01*
X124555862Y-59415784D01*
X124513447Y-59389133D01*
X124403123Y-59319811D01*
X124232854Y-59260231D01*
X124232849Y-59260230D01*
X124053604Y-59240035D01*
X124053596Y-59240035D01*
X123874350Y-59260230D01*
X123874337Y-59260233D01*
X123704079Y-59319809D01*
X123593750Y-59389133D01*
X123526513Y-59408133D01*
X123515264Y-59407506D01*
X121422075Y-59195153D01*
X121357364Y-59168802D01*
X121317173Y-59111650D01*
X121314260Y-59041841D01*
X121349552Y-58981539D01*
X121388051Y-58956850D01*
X121582777Y-58878009D01*
X121652301Y-58871097D01*
X121670253Y-58875901D01*
X121740745Y-58900568D01*
X121740751Y-58900568D01*
X121740752Y-58900569D01*
X121919996Y-58920765D01*
X121920000Y-58920765D01*
X121920004Y-58920765D01*
X122099249Y-58900569D01*
X122099252Y-58900568D01*
X122099255Y-58900568D01*
X122269522Y-58840989D01*
X122422262Y-58745016D01*
X122549816Y-58617462D01*
X122645789Y-58464722D01*
X122705368Y-58294455D01*
X122709079Y-58261522D01*
X122725565Y-58115203D01*
X122725565Y-58115196D01*
X122705369Y-57935950D01*
X122705368Y-57935945D01*
X122669818Y-57834350D01*
X122645789Y-57765678D01*
X122549816Y-57612938D01*
X122422262Y-57485384D01*
X122312424Y-57416368D01*
X122269523Y-57389411D01*
X122099254Y-57329831D01*
X122099249Y-57329830D01*
X121920004Y-57309635D01*
X121919996Y-57309635D01*
X121740750Y-57329830D01*
X121740745Y-57329831D01*
X121570476Y-57389411D01*
X121417739Y-57485383D01*
X121339378Y-57563744D01*
X121278054Y-57597228D01*
X121208363Y-57592244D01*
X121152429Y-57550372D01*
X121146703Y-57542033D01*
X121127418Y-57511340D01*
X120999862Y-57383784D01*
X120847123Y-57287811D01*
X120676854Y-57228231D01*
X120676849Y-57228230D01*
X120497604Y-57208035D01*
X120497596Y-57208035D01*
X120318350Y-57228230D01*
X120318345Y-57228231D01*
X120148076Y-57287811D01*
X119995337Y-57383784D01*
X119867784Y-57511337D01*
X119867782Y-57511340D01*
X119804231Y-57612479D01*
X119751896Y-57658770D01*
X119740180Y-57663552D01*
X118257605Y-58182154D01*
X118187826Y-58185708D01*
X118175709Y-58182150D01*
X118062769Y-58142631D01*
X117883521Y-58122435D01*
X117883513Y-58122435D01*
X117704267Y-58142630D01*
X117704262Y-58142631D01*
X117533993Y-58202211D01*
X117381254Y-58298184D01*
X117253701Y-58425737D01*
X117157728Y-58578476D01*
X117098148Y-58748745D01*
X117098147Y-58748750D01*
X117077952Y-58927996D01*
X117077952Y-58928003D01*
X115904232Y-58928003D01*
X115893541Y-58748986D01*
X115889466Y-58647190D01*
X115881622Y-58549406D01*
X115858397Y-58160513D01*
X115817709Y-57752602D01*
X115810811Y-57666603D01*
X115809468Y-57649853D01*
X115797879Y-57553803D01*
X115759706Y-57171097D01*
X115702114Y-56759994D01*
X115689631Y-56656515D01*
X115674429Y-56562371D01*
X115621758Y-56186387D01*
X115546917Y-55772645D01*
X115530146Y-55668767D01*
X115511476Y-55576713D01*
X115444770Y-55207940D01*
X115352396Y-54792358D01*
X115331270Y-54688191D01*
X115309281Y-54598385D01*
X115229022Y-54237303D01*
X115118812Y-53820475D01*
X115093320Y-53716356D01*
X115068182Y-53628983D01*
X115039322Y-53519832D01*
X114974856Y-53276010D01*
X114846570Y-52858714D01*
X114816679Y-52754822D01*
X114816679Y-52754821D01*
X114788554Y-52669997D01*
X114682673Y-52325582D01*
X114536064Y-51908497D01*
X114501788Y-51805123D01*
X114470862Y-51723007D01*
X114352936Y-51387522D01*
X114351997Y-51385157D01*
X114187774Y-50971338D01*
X114149152Y-50868785D01*
X114115610Y-50789495D01*
X113986165Y-50463313D01*
X113802334Y-50048945D01*
X113759337Y-49947305D01*
X113747328Y-49921811D01*
X113723337Y-49870881D01*
X113582940Y-49554416D01*
X113380254Y-49142549D01*
X113332965Y-49042159D01*
X113294724Y-48968750D01*
X113143900Y-48662268D01*
X112922213Y-48253648D01*
X112870720Y-48154797D01*
X112830446Y-48084499D01*
X112669739Y-47788280D01*
X112428965Y-47383728D01*
X112373342Y-47286640D01*
X112331233Y-47219517D01*
X112161205Y-46933834D01*
X111901289Y-46534179D01*
X111841628Y-46439078D01*
X111797876Y-46375167D01*
X111619104Y-46100282D01*
X111340007Y-45706339D01*
X111276429Y-45613468D01*
X111231232Y-45552804D01*
X111044292Y-45288940D01*
X110745975Y-44901496D01*
X110678650Y-44811133D01*
X110632259Y-44753805D01*
X110437679Y-44501092D01*
X110120179Y-44121008D01*
X110049249Y-44033356D01*
X110001843Y-43979346D01*
X109800223Y-43737984D01*
X109463607Y-43366122D01*
X109389233Y-43281386D01*
X109374751Y-43266161D01*
X109341007Y-43230685D01*
X109132932Y-43000823D01*
X108777322Y-42638071D01*
X108699660Y-42556423D01*
X108650801Y-42509009D01*
X108436862Y-42290773D01*
X108062327Y-41937938D01*
X107981633Y-41859631D01*
X107932382Y-41815522D01*
X107713113Y-41608958D01*
X107319803Y-41266906D01*
X107236303Y-41192125D01*
X107186837Y-41151269D01*
X106962830Y-40956456D01*
X106550898Y-40626032D01*
X106464863Y-40554974D01*
X106415426Y-40517365D01*
X106187199Y-40334298D01*
X106074723Y-40251205D01*
X105756839Y-40016363D01*
X105668549Y-39949198D01*
X105619309Y-39914760D01*
X105387447Y-39743469D01*
X104938949Y-39438931D01*
X104848634Y-39375766D01*
X104799781Y-39344433D01*
X104564837Y-39184902D01*
X104429765Y-39100831D01*
X104098431Y-38894604D01*
X104079203Y-38882272D01*
X104006435Y-38835600D01*
X103958156Y-38807295D01*
X103720671Y-38659481D01*
X103236684Y-38384311D01*
X103143297Y-38329561D01*
X103095761Y-38304190D01*
X102856283Y-38168036D01*
X102481885Y-37974449D01*
X102355040Y-37908862D01*
X102260604Y-37858461D01*
X102213994Y-37835932D01*
X102135224Y-37795203D01*
X105315635Y-37795203D01*
X105335830Y-37974449D01*
X105335831Y-37974454D01*
X105395411Y-38144723D01*
X105465117Y-38255659D01*
X105491384Y-38297462D01*
X105618938Y-38425016D01*
X105771678Y-38520989D01*
X105941945Y-38580568D01*
X105941950Y-38580569D01*
X106121196Y-38600765D01*
X106121200Y-38600765D01*
X106121204Y-38600765D01*
X106300449Y-38580569D01*
X106300452Y-38580568D01*
X106300455Y-38580568D01*
X106470722Y-38520989D01*
X106623462Y-38425016D01*
X106751016Y-38297462D01*
X106846989Y-38144722D01*
X106906568Y-37974455D01*
X106913959Y-37908862D01*
X106926765Y-37795202D01*
X106926765Y-37795198D01*
X106917624Y-37714076D01*
X106929678Y-37645254D01*
X106938599Y-37630032D01*
X108036823Y-36029765D01*
X108090986Y-35985631D01*
X108098076Y-35982902D01*
X108248722Y-35930189D01*
X108401462Y-35834216D01*
X108529016Y-35706662D01*
X108624989Y-35553922D01*
X108684568Y-35383655D01*
X108684569Y-35383649D01*
X108704765Y-35204403D01*
X108704765Y-35204396D01*
X108684569Y-35025150D01*
X108684568Y-35025145D01*
X108663986Y-34966324D01*
X108624989Y-34854878D01*
X108529016Y-34702138D01*
X108401462Y-34574584D01*
X108248723Y-34478611D01*
X108078454Y-34419031D01*
X108078449Y-34419030D01*
X107899204Y-34398835D01*
X107899196Y-34398835D01*
X107719950Y-34419030D01*
X107719945Y-34419031D01*
X107549676Y-34478611D01*
X107396937Y-34574584D01*
X107269384Y-34702137D01*
X107173411Y-34854876D01*
X107113831Y-35025145D01*
X107113830Y-35025150D01*
X107093635Y-35204396D01*
X107093635Y-35204402D01*
X107102775Y-35285522D01*
X107090721Y-35354344D01*
X107081795Y-35369571D01*
X105983575Y-36969833D01*
X105929411Y-37013969D01*
X105922289Y-37016710D01*
X105771678Y-37069410D01*
X105618937Y-37165384D01*
X105491384Y-37292937D01*
X105395411Y-37445676D01*
X105335831Y-37615945D01*
X105335830Y-37615950D01*
X105315635Y-37795196D01*
X105315635Y-37795203D01*
X102135224Y-37795203D01*
X101973041Y-37711345D01*
X101454882Y-37469026D01*
X101359770Y-37423055D01*
X101314257Y-37403262D01*
X101072340Y-37290129D01*
X100787852Y-37170630D01*
X100537684Y-37065547D01*
X100537246Y-37065357D01*
X100442236Y-37024039D01*
X100416288Y-37013969D01*
X100397955Y-37006854D01*
X100155606Y-36905056D01*
X99604898Y-36699085D01*
X99509473Y-36662053D01*
X99466579Y-36647352D01*
X99224287Y-36556733D01*
X99215785Y-36553933D01*
X98657903Y-36370210D01*
X98562973Y-36337677D01*
X98521641Y-36325336D01*
X98279856Y-36245711D01*
X97698249Y-36079493D01*
X97633023Y-36060019D01*
X97604253Y-36051429D01*
X97598831Y-36050043D01*
X97564612Y-36041300D01*
X97323807Y-35972482D01*
X96727580Y-35827458D01*
X96634850Y-35803768D01*
X96596982Y-35795692D01*
X96357651Y-35737479D01*
X95747285Y-35614491D01*
X95656312Y-35595091D01*
X95620363Y-35588917D01*
X95382916Y-35541072D01*
X94758987Y-35440979D01*
X94670208Y-35425732D01*
X94636270Y-35421292D01*
X94401143Y-35383573D01*
X93764170Y-35307218D01*
X93726009Y-35302227D01*
X93678119Y-35295963D01*
X93650216Y-35293443D01*
X93646312Y-35293091D01*
X93413885Y-35265230D01*
X92764563Y-35213477D01*
X92681632Y-35205990D01*
X92652002Y-35204506D01*
X92422703Y-35186231D01*
X91761588Y-35159926D01*
X91682344Y-35155959D01*
X91654994Y-35155685D01*
X91429163Y-35146700D01*
X90757006Y-35146700D01*
X90681852Y-35145948D01*
X90656806Y-35146700D01*
X90434837Y-35146700D01*
X89752264Y-35173858D01*
X89689999Y-35175727D01*
X89681762Y-35175975D01*
X89678191Y-35176225D01*
X89659091Y-35177565D01*
X89441297Y-35186231D01*
X88748988Y-35241409D01*
X88683673Y-35245991D01*
X88663419Y-35248229D01*
X88450115Y-35265230D01*
X87748727Y-35349305D01*
X87723681Y-35352073D01*
X87689187Y-35355885D01*
X87680947Y-35357130D01*
X87671391Y-35358575D01*
X87462857Y-35383573D01*
X86753203Y-35497417D01*
X86699896Y-35505478D01*
X86684550Y-35508431D01*
X86481084Y-35541072D01*
X85764025Y-35685557D01*
X85717379Y-35694533D01*
X85704453Y-35697561D01*
X85506349Y-35737479D01*
X84782477Y-35913549D01*
X84743210Y-35922749D01*
X84732750Y-35925645D01*
X84540193Y-35972482D01*
X83810362Y-36181060D01*
X83778956Y-36189756D01*
X83770917Y-36192332D01*
X83584144Y-36245711D01*
X82849261Y-36487723D01*
X82826162Y-36495127D01*
X82820484Y-36497201D01*
X82639713Y-36556733D01*
X81900483Y-36833212D01*
X81886329Y-36838382D01*
X81882993Y-36839753D01*
X81708394Y-36905056D01*
X80965622Y-37217056D01*
X80960989Y-37218962D01*
X80959947Y-37219439D01*
X80791660Y-37290129D01*
X79890959Y-37711345D01*
X79290600Y-38021768D01*
X79007717Y-38168036D01*
X78143328Y-38659481D01*
X77299163Y-39184902D01*
X76476553Y-39743469D01*
X75676801Y-40334298D01*
X74901170Y-40956456D01*
X74150887Y-41608958D01*
X73427138Y-42290773D01*
X72731068Y-43000823D01*
X72063777Y-43737984D01*
X71426321Y-44501092D01*
X70819708Y-45288940D01*
X70244896Y-46100282D01*
X69702795Y-46933834D01*
X69194261Y-47788280D01*
X68720100Y-48662268D01*
X68281060Y-49554416D01*
X67877835Y-50463313D01*
X67511064Y-51387522D01*
X67181327Y-52325582D01*
X67015608Y-52864641D01*
X67007724Y-52876572D01*
X67007843Y-52877066D01*
X67002530Y-52907182D01*
X66889144Y-53276010D01*
X66634978Y-54237303D01*
X66419230Y-55207940D01*
X66242242Y-56186387D01*
X66104294Y-57171097D01*
X66005603Y-58160513D01*
X65946326Y-59153071D01*
X65926557Y-60147200D01*
X62024013Y-60147200D01*
X61990589Y-60051678D01*
X61986767Y-60045596D01*
X61894615Y-59898937D01*
X61767062Y-59771384D01*
X61614323Y-59675411D01*
X61444054Y-59615831D01*
X61444049Y-59615830D01*
X61264804Y-59595635D01*
X61264796Y-59595635D01*
X61085550Y-59615830D01*
X61085545Y-59615831D01*
X60915276Y-59675411D01*
X60787873Y-59755464D01*
X60725079Y-59774429D01*
X57537618Y-59856159D01*
X57470096Y-59838200D01*
X57454781Y-59826178D01*
X57454505Y-59826525D01*
X57449062Y-59822184D01*
X57296323Y-59726211D01*
X57126054Y-59666631D01*
X57126049Y-59666630D01*
X56946804Y-59646435D01*
X56946796Y-59646435D01*
X56767550Y-59666630D01*
X56767545Y-59666631D01*
X56597276Y-59726211D01*
X56438642Y-59825889D01*
X56437518Y-59824100D01*
X56382278Y-59846638D01*
X56313585Y-59833867D01*
X56262702Y-59785986D01*
X56245696Y-59721186D01*
X56248700Y-59543337D01*
X56256472Y-59083256D01*
X56257872Y-59041841D01*
X56264450Y-58847151D01*
X56311875Y-57912003D01*
X59951235Y-57912003D01*
X59971430Y-58091249D01*
X59971431Y-58091254D01*
X60031011Y-58261523D01*
X60094851Y-58363123D01*
X60126984Y-58414262D01*
X60254538Y-58541816D01*
X60407278Y-58637789D01*
X60434145Y-58647190D01*
X60577545Y-58697368D01*
X60577550Y-58697369D01*
X60756796Y-58717565D01*
X60756800Y-58717565D01*
X60756804Y-58717565D01*
X60936049Y-58697369D01*
X60936052Y-58697368D01*
X60936055Y-58697368D01*
X61106322Y-58637789D01*
X61259062Y-58541816D01*
X61259068Y-58541809D01*
X61263995Y-58537880D01*
X61328679Y-58511463D01*
X61345122Y-58510876D01*
X63440878Y-58575361D01*
X63507278Y-58597098D01*
X63524743Y-58611621D01*
X63556538Y-58643416D01*
X63709278Y-58739389D01*
X63736885Y-58749049D01*
X63879545Y-58798968D01*
X63879550Y-58798969D01*
X64058796Y-58819165D01*
X64058800Y-58819165D01*
X64058804Y-58819165D01*
X64238049Y-58798969D01*
X64238052Y-58798968D01*
X64238055Y-58798968D01*
X64408322Y-58739389D01*
X64561062Y-58643416D01*
X64688616Y-58515862D01*
X64784589Y-58363122D01*
X64844168Y-58192855D01*
X64844169Y-58192849D01*
X64864365Y-58013603D01*
X64864365Y-58013596D01*
X64844169Y-57834350D01*
X64844168Y-57834345D01*
X64820140Y-57765676D01*
X64784589Y-57664078D01*
X64784258Y-57663552D01*
X64688615Y-57511337D01*
X64561062Y-57383784D01*
X64408323Y-57287811D01*
X64238054Y-57228231D01*
X64238049Y-57228230D01*
X64058804Y-57208035D01*
X64058796Y-57208035D01*
X63879550Y-57228230D01*
X63879545Y-57228231D01*
X63709276Y-57287811D01*
X63556539Y-57383783D01*
X63551589Y-57387731D01*
X63486901Y-57414137D01*
X63470465Y-57414722D01*
X61374722Y-57350237D01*
X61308320Y-57328500D01*
X61290855Y-57313977D01*
X61259062Y-57282184D01*
X61106323Y-57186211D01*
X60936054Y-57126631D01*
X60936049Y-57126630D01*
X60756804Y-57106435D01*
X60756796Y-57106435D01*
X60577550Y-57126630D01*
X60577545Y-57126631D01*
X60407276Y-57186211D01*
X60254537Y-57282184D01*
X60126984Y-57409737D01*
X60031011Y-57562476D01*
X59971431Y-57732745D01*
X59971430Y-57732750D01*
X59951235Y-57911996D01*
X59951235Y-57912003D01*
X56311875Y-57912003D01*
X56312360Y-57902439D01*
X56328318Y-57666603D01*
X56408105Y-56724075D01*
X56432007Y-56489034D01*
X56543585Y-55549717D01*
X56575417Y-55315573D01*
X56718658Y-54380541D01*
X56731506Y-54305203D01*
X58732035Y-54305203D01*
X58752230Y-54484449D01*
X58752231Y-54484454D01*
X58811811Y-54654723D01*
X58864787Y-54739033D01*
X58907784Y-54807462D01*
X59035338Y-54935016D01*
X59110684Y-54982359D01*
X59173991Y-55022138D01*
X59188078Y-55030989D01*
X59358339Y-55090566D01*
X59358345Y-55090568D01*
X59358350Y-55090569D01*
X59537596Y-55110765D01*
X59537600Y-55110765D01*
X59537604Y-55110765D01*
X59716849Y-55090569D01*
X59716851Y-55090568D01*
X59716855Y-55090568D01*
X59716858Y-55090566D01*
X59716862Y-55090566D01*
X59783440Y-55067268D01*
X59887122Y-55030989D01*
X59919443Y-55010679D01*
X59986678Y-54991679D01*
X60016088Y-54995526D01*
X62789588Y-55703654D01*
X63563980Y-55901371D01*
X63624066Y-55937028D01*
X63638297Y-55955545D01*
X63682979Y-56026656D01*
X63682984Y-56026662D01*
X63810538Y-56154216D01*
X63963278Y-56250189D01*
X64133545Y-56309768D01*
X64133550Y-56309769D01*
X64312796Y-56329965D01*
X64312800Y-56329965D01*
X64312804Y-56329965D01*
X64492049Y-56309769D01*
X64492052Y-56309768D01*
X64492055Y-56309768D01*
X64662322Y-56250189D01*
X64815062Y-56154216D01*
X64942616Y-56026662D01*
X65038589Y-55873922D01*
X65098168Y-55703655D01*
X65112475Y-55576678D01*
X65118365Y-55524403D01*
X65118365Y-55524396D01*
X65098169Y-55345150D01*
X65098168Y-55345145D01*
X65087807Y-55315535D01*
X65038589Y-55174878D01*
X64942616Y-55022138D01*
X64815062Y-54894584D01*
X64739715Y-54847240D01*
X64662323Y-54798611D01*
X64492054Y-54739031D01*
X64492049Y-54739030D01*
X64312804Y-54718835D01*
X64312796Y-54718835D01*
X64133550Y-54739030D01*
X64133537Y-54739033D01*
X63963281Y-54798609D01*
X63930953Y-54818921D01*
X63863716Y-54837919D01*
X63834308Y-54834071D01*
X60286418Y-53928227D01*
X60226332Y-53892570D01*
X60212100Y-53874053D01*
X60167416Y-53802938D01*
X60039862Y-53675384D01*
X59887123Y-53579411D01*
X59716854Y-53519831D01*
X59716849Y-53519830D01*
X59537604Y-53499635D01*
X59537596Y-53499635D01*
X59358350Y-53519830D01*
X59358345Y-53519831D01*
X59188076Y-53579411D01*
X59035337Y-53675384D01*
X58907784Y-53802937D01*
X58811811Y-53955676D01*
X58752231Y-54125945D01*
X58752230Y-54125950D01*
X58732035Y-54305196D01*
X58732035Y-54305203D01*
X56731506Y-54305203D01*
X56758385Y-54147583D01*
X56933115Y-53217974D01*
X56980690Y-52986478D01*
X57186705Y-52063353D01*
X57242082Y-51833549D01*
X57479165Y-50917876D01*
X57542247Y-50690162D01*
X57554814Y-50647603D01*
X59240035Y-50647603D01*
X59260230Y-50826849D01*
X59260231Y-50826854D01*
X59319811Y-50997123D01*
X59415784Y-51149862D01*
X59543338Y-51277416D01*
X59696078Y-51373389D01*
X59742418Y-51389604D01*
X59866345Y-51432968D01*
X59866350Y-51432969D01*
X60045596Y-51453165D01*
X60045600Y-51453165D01*
X60045604Y-51453165D01*
X60224846Y-51432969D01*
X60224845Y-51432969D01*
X60224855Y-51432968D01*
X60351307Y-51388719D01*
X60421083Y-51385157D01*
X60431458Y-51388120D01*
X65237517Y-52990139D01*
X65294892Y-53030013D01*
X65303298Y-53041803D01*
X65359384Y-53131062D01*
X65486938Y-53258616D01*
X65639678Y-53354589D01*
X65809945Y-53414168D01*
X65809950Y-53414169D01*
X65989196Y-53434365D01*
X65989200Y-53434365D01*
X65989204Y-53434365D01*
X66168449Y-53414169D01*
X66168452Y-53414168D01*
X66168455Y-53414168D01*
X66338722Y-53354589D01*
X66491462Y-53258616D01*
X66619016Y-53131062D01*
X66714989Y-52978322D01*
X66766962Y-52829790D01*
X66773461Y-52820729D01*
X66773862Y-52814319D01*
X66794765Y-52628802D01*
X66794765Y-52628796D01*
X66774569Y-52449550D01*
X66774568Y-52449545D01*
X66714988Y-52279276D01*
X66619015Y-52126537D01*
X66491462Y-51998984D01*
X66338723Y-51903011D01*
X66168454Y-51843431D01*
X66168449Y-51843430D01*
X65989204Y-51823235D01*
X65989196Y-51823235D01*
X65809947Y-51843431D01*
X65683492Y-51887679D01*
X65613713Y-51891240D01*
X65603326Y-51888274D01*
X60797281Y-50286259D01*
X60739906Y-50246385D01*
X60731499Y-50234594D01*
X60675415Y-50145337D01*
X60547862Y-50017784D01*
X60395123Y-49921811D01*
X60224854Y-49862231D01*
X60224849Y-49862230D01*
X60045604Y-49842035D01*
X60045596Y-49842035D01*
X59866350Y-49862230D01*
X59866345Y-49862231D01*
X59696076Y-49921811D01*
X59543337Y-50017784D01*
X59415784Y-50145337D01*
X59319811Y-50298076D01*
X59260231Y-50468345D01*
X59260230Y-50468350D01*
X59240035Y-50647596D01*
X59240035Y-50647603D01*
X57554814Y-50647603D01*
X57810136Y-49782971D01*
X57880873Y-49557517D01*
X58179260Y-48659856D01*
X58257559Y-48436953D01*
X58586100Y-47549868D01*
X58671898Y-47329702D01*
X59030181Y-46454291D01*
X59123349Y-46237185D01*
X59511020Y-45374318D01*
X59611489Y-45160437D01*
X60028058Y-44311201D01*
X60135690Y-44100840D01*
X60580711Y-43266148D01*
X60695381Y-43059551D01*
X61168343Y-42240356D01*
X61289933Y-42037738D01*
X61790311Y-41234956D01*
X61918620Y-41036644D01*
X62445850Y-40251184D01*
X62580783Y-40057319D01*
X63134232Y-39290125D01*
X63275675Y-39100876D01*
X63854677Y-38352866D01*
X63899081Y-38297462D01*
X64002481Y-38168441D01*
X64606415Y-37440416D01*
X64760277Y-37261187D01*
X64928919Y-37071328D01*
X64988153Y-37034281D01*
X65058017Y-37035139D01*
X65116327Y-37073632D01*
X65144569Y-37137539D01*
X65144844Y-37139794D01*
X65153030Y-37212450D01*
X65153031Y-37212454D01*
X65212611Y-37382723D01*
X65252169Y-37445678D01*
X65308584Y-37535462D01*
X65436138Y-37663016D01*
X65588878Y-37758989D01*
X65692363Y-37795200D01*
X65759145Y-37818568D01*
X65759150Y-37818569D01*
X65921235Y-37836831D01*
X65985649Y-37863897D01*
X65991098Y-37868604D01*
X70323731Y-41836384D01*
X70339238Y-41853502D01*
X70343828Y-41859631D01*
X70345541Y-41861918D01*
X70370870Y-41881831D01*
X70386623Y-41894216D01*
X70390181Y-41897237D01*
X70400402Y-41906599D01*
X70400404Y-41906601D01*
X70411339Y-41914252D01*
X70416918Y-41918156D01*
X70419684Y-41920209D01*
X70465697Y-41956385D01*
X70465701Y-41956387D01*
X70468976Y-41957789D01*
X70491280Y-41970192D01*
X70494193Y-41972231D01*
X70494194Y-41972231D01*
X70494195Y-41972232D01*
X70518360Y-41981019D01*
X70549190Y-41992230D01*
X70552402Y-41993500D01*
X70566626Y-41999588D01*
X70606216Y-42016536D01*
X70609737Y-42017041D01*
X70634491Y-42023249D01*
X70637840Y-42024467D01*
X70696159Y-42029551D01*
X70699544Y-42029941D01*
X70757512Y-42038268D01*
X70761045Y-42037844D01*
X70786558Y-42037434D01*
X70790112Y-42037744D01*
X70847770Y-42027559D01*
X70851138Y-42027060D01*
X70909278Y-42020102D01*
X70912584Y-42018777D01*
X70937124Y-42011777D01*
X70940630Y-42011158D01*
X70993696Y-41986392D01*
X70996801Y-41985047D01*
X71051169Y-41963274D01*
X71054019Y-41961139D01*
X71075916Y-41948024D01*
X71076039Y-41947966D01*
X71079139Y-41946520D01*
X71123965Y-41908884D01*
X71126650Y-41906753D01*
X71142800Y-41894661D01*
X71152750Y-41884941D01*
X71156142Y-41881867D01*
X71196199Y-41848237D01*
X71202225Y-41839624D01*
X71217166Y-41822023D01*
X72355269Y-40710387D01*
X73327285Y-39760978D01*
X73332795Y-39756195D01*
X75269026Y-38266786D01*
X75271936Y-38264679D01*
X76400733Y-37497097D01*
X76449210Y-37477471D01*
X77449574Y-37303494D01*
X77453088Y-37302987D01*
X77510588Y-37296382D01*
X77559827Y-37276930D01*
X77564058Y-37275434D01*
X77614603Y-37259629D01*
X77622848Y-37254402D01*
X77643675Y-37243809D01*
X77652748Y-37240226D01*
X77695266Y-37208700D01*
X77698985Y-37206148D01*
X77743706Y-37177807D01*
X77750317Y-37170624D01*
X77767694Y-37155000D01*
X77775530Y-37149192D01*
X77808450Y-37107721D01*
X77811370Y-37104308D01*
X77847233Y-37065356D01*
X77851759Y-37056709D01*
X77864494Y-37037128D01*
X77870566Y-37029481D01*
X77891623Y-36980923D01*
X77893576Y-36976837D01*
X77897243Y-36969833D01*
X77908554Y-36948229D01*
X77957086Y-36897971D01*
X78025088Y-36881928D01*
X78059359Y-36888706D01*
X78103545Y-36904168D01*
X78103551Y-36904168D01*
X78103553Y-36904169D01*
X78282796Y-36924365D01*
X78282800Y-36924365D01*
X78282804Y-36924365D01*
X78462049Y-36904169D01*
X78462052Y-36904168D01*
X78462055Y-36904168D01*
X78632322Y-36844589D01*
X78785062Y-36748616D01*
X78912616Y-36621062D01*
X79008589Y-36468322D01*
X79068168Y-36298055D01*
X79068306Y-36296831D01*
X79088365Y-36118803D01*
X79088365Y-36118796D01*
X79068169Y-35939550D01*
X79068168Y-35939545D01*
X79028947Y-35827458D01*
X79008589Y-35769278D01*
X78992253Y-35743280D01*
X78961509Y-35694351D01*
X78912616Y-35616538D01*
X78785062Y-35488984D01*
X78729618Y-35454146D01*
X78683328Y-35401812D01*
X78676362Y-35383218D01*
X78672463Y-35369571D01*
X78295985Y-34051897D01*
X78296495Y-33982032D01*
X78298156Y-33976927D01*
X78356968Y-33808855D01*
X78356969Y-33808849D01*
X78377165Y-33629603D01*
X78377165Y-33629596D01*
X78359995Y-33477203D01*
X101607235Y-33477203D01*
X101627430Y-33656449D01*
X101627431Y-33656454D01*
X101687011Y-33826723D01*
X101734855Y-33902865D01*
X101782984Y-33979462D01*
X101910538Y-34107016D01*
X102000880Y-34163782D01*
X102052129Y-34195984D01*
X102063278Y-34202989D01*
X102166763Y-34239200D01*
X102233545Y-34262568D01*
X102233550Y-34262569D01*
X102412796Y-34282765D01*
X102412800Y-34282765D01*
X102412804Y-34282765D01*
X102592051Y-34262569D01*
X102598250Y-34261154D01*
X102667989Y-34265423D01*
X102683058Y-34272028D01*
X102884266Y-34376655D01*
X103379516Y-34634186D01*
X103382662Y-34635950D01*
X103415653Y-34652977D01*
X103436058Y-34663588D01*
X103448849Y-34670239D01*
X103452141Y-34671809D01*
X104457684Y-35190799D01*
X104508228Y-35239038D01*
X104517853Y-35260033D01*
X104531810Y-35299920D01*
X104531812Y-35299924D01*
X104566975Y-35355885D01*
X104627784Y-35452662D01*
X104755338Y-35580216D01*
X104908078Y-35676189D01*
X104969156Y-35697561D01*
X105078345Y-35735768D01*
X105078350Y-35735769D01*
X105257596Y-35755965D01*
X105257600Y-35755965D01*
X105257604Y-35755965D01*
X105436849Y-35735769D01*
X105436852Y-35735768D01*
X105436855Y-35735768D01*
X105607122Y-35676189D01*
X105759862Y-35580216D01*
X105887416Y-35452662D01*
X105983389Y-35299922D01*
X106042968Y-35129655D01*
X106042969Y-35129649D01*
X106063165Y-34950403D01*
X106063165Y-34950396D01*
X106042969Y-34771150D01*
X106042968Y-34771145D01*
X106001619Y-34652977D01*
X105983389Y-34600878D01*
X105982857Y-34600032D01*
X105887415Y-34448137D01*
X105788916Y-34349638D01*
X105755431Y-34288315D01*
X105760415Y-34218623D01*
X105771604Y-34195984D01*
X105780189Y-34182322D01*
X105839768Y-34012055D01*
X105843394Y-33979874D01*
X105859965Y-33832803D01*
X105859965Y-33832796D01*
X105839769Y-33653550D01*
X105839768Y-33653545D01*
X105824315Y-33609384D01*
X105780189Y-33483278D01*
X105776367Y-33477196D01*
X105684215Y-33330537D01*
X105556660Y-33202982D01*
X105556655Y-33202978D01*
X105459118Y-33141691D01*
X105412827Y-33089357D01*
X105407864Y-33077121D01*
X105377621Y-32989416D01*
X105290650Y-32737203D01*
X105287406Y-32667411D01*
X105290828Y-32655852D01*
X105331768Y-32538855D01*
X105340010Y-32465705D01*
X105351965Y-32359603D01*
X105351965Y-32359597D01*
X105336639Y-32223580D01*
X105348693Y-32154758D01*
X105353707Y-32145604D01*
X105377859Y-32105603D01*
X106359457Y-30479830D01*
X106410957Y-30432617D01*
X106424642Y-30426887D01*
X106521522Y-30392989D01*
X106674262Y-30297016D01*
X106801816Y-30169462D01*
X106897789Y-30016722D01*
X106957368Y-29846455D01*
X106958462Y-29836744D01*
X106977565Y-29667203D01*
X106977565Y-29667196D01*
X106957369Y-29487950D01*
X106957368Y-29487945D01*
X106914455Y-29365307D01*
X106897789Y-29317678D01*
X106801816Y-29164938D01*
X106674262Y-29037384D01*
X106658977Y-29027780D01*
X106521523Y-28941411D01*
X106351254Y-28881831D01*
X106351249Y-28881830D01*
X106172004Y-28861635D01*
X106171996Y-28861635D01*
X105992750Y-28881830D01*
X105992745Y-28881831D01*
X105822476Y-28941411D01*
X105669737Y-29037384D01*
X105542184Y-29164937D01*
X105446211Y-29317676D01*
X105386631Y-29487945D01*
X105386630Y-29487950D01*
X105366435Y-29667196D01*
X105366435Y-29667202D01*
X105381760Y-29803218D01*
X105369705Y-29872039D01*
X105364692Y-29881193D01*
X104358942Y-31546966D01*
X104307440Y-31594182D01*
X104293744Y-31599916D01*
X104196878Y-31633810D01*
X104044137Y-31729784D01*
X103916584Y-31857337D01*
X103820611Y-32010076D01*
X103761031Y-32180345D01*
X103761030Y-32180350D01*
X103740835Y-32359596D01*
X103740835Y-32359603D01*
X103761030Y-32538849D01*
X103761031Y-32538854D01*
X103820611Y-32709123D01*
X103862187Y-32775290D01*
X103916584Y-32861862D01*
X104044138Y-32989416D01*
X104060639Y-32999784D01*
X104141680Y-33050706D01*
X104187971Y-33103041D01*
X104192934Y-33115277D01*
X104310147Y-33455192D01*
X104313392Y-33524986D01*
X104309963Y-33536570D01*
X104276628Y-33631836D01*
X104235906Y-33688612D01*
X104170953Y-33714359D01*
X104102714Y-33701070D01*
X103949785Y-33622139D01*
X103213262Y-33239147D01*
X103162865Y-33190754D01*
X103153428Y-33170086D01*
X103138588Y-33127676D01*
X103051713Y-32989416D01*
X103042616Y-32974938D01*
X102915062Y-32847384D01*
X102910042Y-32844230D01*
X102762323Y-32751411D01*
X102592054Y-32691831D01*
X102592049Y-32691830D01*
X102412804Y-32671635D01*
X102412796Y-32671635D01*
X102233550Y-32691830D01*
X102233545Y-32691831D01*
X102063276Y-32751411D01*
X101910537Y-32847384D01*
X101782984Y-32974937D01*
X101687011Y-33127676D01*
X101627431Y-33297945D01*
X101627430Y-33297950D01*
X101607235Y-33477196D01*
X101607235Y-33477203D01*
X78359995Y-33477203D01*
X78356969Y-33450350D01*
X78356968Y-33450345D01*
X78343443Y-33411694D01*
X78297389Y-33280078D01*
X78201416Y-33127338D01*
X78073862Y-32999784D01*
X77921123Y-32903811D01*
X77750854Y-32844231D01*
X77750849Y-32844230D01*
X77571604Y-32824035D01*
X77571596Y-32824035D01*
X77392350Y-32844230D01*
X77392345Y-32844231D01*
X77222076Y-32903811D01*
X77069337Y-32999784D01*
X76941784Y-33127337D01*
X76845809Y-33280080D01*
X76819622Y-33354918D01*
X76778900Y-33411694D01*
X76713948Y-33437441D01*
X76688700Y-33437184D01*
X76687920Y-33437096D01*
X76657200Y-33433635D01*
X76657198Y-33433635D01*
X76657197Y-33433635D01*
X76657196Y-33433635D01*
X76477950Y-33453830D01*
X76477945Y-33453831D01*
X76307676Y-33513411D01*
X76154937Y-33609384D01*
X76027384Y-33736937D01*
X75931409Y-33889680D01*
X75894361Y-33995556D01*
X75853639Y-34052332D01*
X75788687Y-34078079D01*
X75720125Y-34064622D01*
X75669722Y-34016235D01*
X75654340Y-33970471D01*
X75480757Y-32625198D01*
X75491700Y-32556193D01*
X75498734Y-32543376D01*
X75554189Y-32455122D01*
X75613768Y-32284855D01*
X75625543Y-32180350D01*
X75633965Y-32105603D01*
X75633965Y-32105596D01*
X75613769Y-31926350D01*
X75613768Y-31926345D01*
X75595668Y-31874618D01*
X75554189Y-31756078D01*
X75537667Y-31729784D01*
X75513560Y-31691417D01*
X75458216Y-31603338D01*
X75330662Y-31475784D01*
X75177923Y-31379811D01*
X75007654Y-31320231D01*
X75007649Y-31320230D01*
X74828404Y-31300035D01*
X74828396Y-31300035D01*
X74649150Y-31320230D01*
X74649145Y-31320231D01*
X74478876Y-31379811D01*
X74326137Y-31475784D01*
X74198584Y-31603337D01*
X74102611Y-31756076D01*
X74043031Y-31926345D01*
X74043030Y-31926350D01*
X74022835Y-32105596D01*
X74022835Y-32105603D01*
X74043030Y-32284849D01*
X74043031Y-32284854D01*
X74102611Y-32455123D01*
X74198584Y-32607862D01*
X74294199Y-32703477D01*
X74327684Y-32764800D01*
X74329498Y-32775290D01*
X74582441Y-34735597D01*
X74571498Y-34804604D01*
X74564456Y-34817436D01*
X74509008Y-34905682D01*
X74449433Y-35075937D01*
X74449430Y-35075950D01*
X74429235Y-35255196D01*
X74429235Y-35255203D01*
X74449430Y-35434449D01*
X74449431Y-35434454D01*
X74509011Y-35604723D01*
X74573064Y-35706662D01*
X74604984Y-35757462D01*
X74732538Y-35885016D01*
X74777948Y-35913549D01*
X74852386Y-35960322D01*
X74885278Y-35980989D01*
X75024678Y-36029767D01*
X75055545Y-36040568D01*
X75055550Y-36040569D01*
X75234796Y-36060765D01*
X75234800Y-36060765D01*
X75234804Y-36060765D01*
X75414047Y-36040569D01*
X75414047Y-36040568D01*
X75414055Y-36040568D01*
X75437108Y-36032500D01*
X75506884Y-36028938D01*
X75531071Y-36037444D01*
X75703107Y-36118800D01*
X75896656Y-36210330D01*
X75948845Y-36256785D01*
X75967634Y-36324081D01*
X75947057Y-36390852D01*
X75908244Y-36427670D01*
X75908396Y-36427894D01*
X75907030Y-36428822D01*
X75906527Y-36429300D01*
X75905050Y-36430168D01*
X75881326Y-36446300D01*
X75824694Y-36482193D01*
X75818458Y-36487401D01*
X75818192Y-36487082D01*
X75806431Y-36497228D01*
X74622811Y-37302090D01*
X74619012Y-37304477D01*
X74606222Y-37311882D01*
X74590963Y-37323617D01*
X74588034Y-37325736D01*
X74572119Y-37336560D01*
X74572118Y-37336561D01*
X74561073Y-37346407D01*
X74557620Y-37349267D01*
X72597831Y-38856796D01*
X72570405Y-38877333D01*
X72570337Y-38877392D01*
X72570249Y-38877478D01*
X72564856Y-38882157D01*
X72564761Y-38882229D01*
X72564712Y-38882272D01*
X72540514Y-38906527D01*
X70835448Y-40571940D01*
X70773735Y-40604701D01*
X70704107Y-40598897D01*
X70665058Y-40574680D01*
X70662066Y-40571940D01*
X66779919Y-37016710D01*
X66772027Y-37009483D01*
X66735881Y-36949690D01*
X66732554Y-36931931D01*
X66723768Y-36853945D01*
X66664189Y-36683678D01*
X66568216Y-36530938D01*
X66440662Y-36403384D01*
X66422113Y-36391729D01*
X66287923Y-36307411D01*
X66117654Y-36247831D01*
X66117650Y-36247830D01*
X65964670Y-36230594D01*
X65900256Y-36203527D01*
X65860701Y-36145932D01*
X65858564Y-36076096D01*
X65888678Y-36021945D01*
X66200107Y-35694322D01*
X66365739Y-35525869D01*
X66397434Y-35494705D01*
X66459033Y-35461741D01*
X66528680Y-35467313D01*
X66584258Y-35509654D01*
X66608122Y-35575322D01*
X66607589Y-35597005D01*
X66606035Y-35610800D01*
X66606035Y-35610803D01*
X66626230Y-35790049D01*
X66626231Y-35790054D01*
X66685811Y-35960323D01*
X66758557Y-36076096D01*
X66781784Y-36113062D01*
X66909338Y-36240616D01*
X67062078Y-36336589D01*
X67232345Y-36396168D01*
X67320965Y-36406152D01*
X67385377Y-36433217D01*
X67397541Y-36444560D01*
X68017605Y-37105962D01*
X68100539Y-37194425D01*
X68132029Y-37256796D01*
X68133296Y-37265350D01*
X68150230Y-37415650D01*
X68150231Y-37415654D01*
X68209811Y-37585923D01*
X68291970Y-37716677D01*
X68305784Y-37738662D01*
X68433338Y-37866216D01*
X68586078Y-37962189D01*
X68756345Y-38021768D01*
X68756350Y-38021769D01*
X68935596Y-38041965D01*
X68935600Y-38041965D01*
X68935604Y-38041965D01*
X69114849Y-38021769D01*
X69114852Y-38021768D01*
X69114855Y-38021768D01*
X69285122Y-37962189D01*
X69437862Y-37866216D01*
X69565416Y-37738662D01*
X69661389Y-37585922D01*
X69720968Y-37415655D01*
X69720969Y-37415649D01*
X69741165Y-37236403D01*
X69741165Y-37236396D01*
X69720969Y-37057150D01*
X69720968Y-37057145D01*
X69674506Y-36924365D01*
X69661389Y-36886878D01*
X69565416Y-36734138D01*
X69437862Y-36606584D01*
X69358525Y-36556733D01*
X69285121Y-36510610D01*
X69114852Y-36451031D01*
X69114847Y-36451030D01*
X69026233Y-36441046D01*
X68961819Y-36413979D01*
X68949654Y-36402635D01*
X68943591Y-36396168D01*
X68246659Y-35652773D01*
X68215170Y-35590403D01*
X68213903Y-35581848D01*
X68196969Y-35431550D01*
X68196968Y-35431545D01*
X68182241Y-35389459D01*
X68137389Y-35261278D01*
X68133567Y-35255196D01*
X68085603Y-35178861D01*
X68041416Y-35108538D01*
X67913862Y-34980984D01*
X67794020Y-34905682D01*
X67761123Y-34885011D01*
X67590854Y-34825431D01*
X67590849Y-34825430D01*
X67404681Y-34804455D01*
X67404927Y-34802265D01*
X67348002Y-34785550D01*
X67302247Y-34732746D01*
X67292303Y-34663588D01*
X67321328Y-34600032D01*
X67331139Y-34589931D01*
X67347840Y-34574584D01*
X67908015Y-34059825D01*
X68084666Y-33902915D01*
X68802390Y-33286769D01*
X68984292Y-33135873D01*
X69722395Y-32544338D01*
X69729487Y-32538849D01*
X69909255Y-32399698D01*
X70666950Y-31833401D01*
X70858576Y-31695163D01*
X71634928Y-31154806D01*
X71831161Y-31023088D01*
X72625296Y-30509276D01*
X72825834Y-30384278D01*
X73636922Y-29897549D01*
X73841572Y-29779395D01*
X74025324Y-29677404D01*
X81007575Y-29677404D01*
X81015077Y-29780375D01*
X81106238Y-30297382D01*
X82035667Y-30133499D01*
X82004142Y-30240866D01*
X82004142Y-30377456D01*
X82042623Y-30508512D01*
X82116469Y-30623419D01*
X82119868Y-30626364D01*
X81193063Y-30789786D01*
X81284224Y-31306783D01*
X81284227Y-31306793D01*
X81312395Y-31406124D01*
X81395606Y-31560447D01*
X81512159Y-31691417D01*
X81655779Y-31791981D01*
X81818712Y-31856711D01*
X81992191Y-31882121D01*
X82095154Y-31874621D01*
X82095175Y-31874618D01*
X82489070Y-31805164D01*
X82303192Y-30750997D01*
X82343943Y-30769607D01*
X82445167Y-30784161D01*
X82513117Y-30784161D01*
X82614341Y-30769607D01*
X82738587Y-30712866D01*
X82795488Y-30663560D01*
X82981473Y-31718338D01*
X83375369Y-31648885D01*
X83375379Y-31648882D01*
X83474710Y-31620714D01*
X83629033Y-31537503D01*
X83760003Y-31420950D01*
X83860567Y-31277330D01*
X83927730Y-31108273D01*
X83970775Y-31053238D01*
X84036741Y-31030211D01*
X84104685Y-31046504D01*
X84114083Y-31052474D01*
X84285037Y-31172177D01*
X84499204Y-31272045D01*
X84727459Y-31333206D01*
X84895606Y-31347916D01*
X84962864Y-31353801D01*
X84962866Y-31353801D01*
X84962867Y-31353801D01*
X85002100Y-31350368D01*
X85198274Y-31333205D01*
X85426530Y-31272044D01*
X85640697Y-31172177D01*
X85834267Y-31036637D01*
X86001362Y-30869543D01*
X86136902Y-30675972D01*
X86217902Y-30502263D01*
X86264070Y-30449830D01*
X86331263Y-30430677D01*
X86398145Y-30450892D01*
X86417962Y-30466992D01*
X86512354Y-30561384D01*
X86553486Y-30602516D01*
X86747057Y-30738056D01*
X86961224Y-30837924D01*
X87189479Y-30899085D01*
X87357626Y-30913795D01*
X87424884Y-30919680D01*
X87424886Y-30919680D01*
X87424887Y-30919680D01*
X87464120Y-30916247D01*
X87660294Y-30899084D01*
X87810561Y-30858820D01*
X87880410Y-30860483D01*
X87938273Y-30899645D01*
X87965777Y-30963874D01*
X87963547Y-31006181D01*
X87962230Y-31011948D01*
X87942035Y-31191196D01*
X87942035Y-31191203D01*
X87962230Y-31370449D01*
X87962231Y-31370454D01*
X88021811Y-31540723D01*
X88112268Y-31684683D01*
X88117784Y-31693462D01*
X88245338Y-31821016D01*
X88398078Y-31916989D01*
X88480887Y-31945965D01*
X88568345Y-31976568D01*
X88568350Y-31976569D01*
X88747596Y-31996765D01*
X88747600Y-31996765D01*
X88747604Y-31996765D01*
X88926849Y-31976569D01*
X88926852Y-31976568D01*
X88926855Y-31976568D01*
X89097122Y-31916989D01*
X89249862Y-31821016D01*
X89294752Y-31776124D01*
X89356074Y-31742638D01*
X89376021Y-31739971D01*
X91670652Y-31621283D01*
X91689372Y-31621731D01*
X92056311Y-31658425D01*
X92121057Y-31684683D01*
X92131651Y-31694129D01*
X92207738Y-31770216D01*
X92288584Y-31821015D01*
X92346391Y-31857338D01*
X92360478Y-31866189D01*
X92505653Y-31916988D01*
X92530745Y-31925768D01*
X92530750Y-31925769D01*
X92709996Y-31945965D01*
X92710000Y-31945965D01*
X92710004Y-31945965D01*
X92889249Y-31925769D01*
X92889252Y-31925768D01*
X92889255Y-31925768D01*
X93059522Y-31866189D01*
X93212262Y-31770216D01*
X93339816Y-31642662D01*
X93435789Y-31489922D01*
X93495368Y-31319655D01*
X93495369Y-31319649D01*
X93515565Y-31140403D01*
X93515565Y-31140396D01*
X93495369Y-30961150D01*
X93495368Y-30961145D01*
X93473652Y-30899084D01*
X93435789Y-30790878D01*
X93431568Y-30784161D01*
X93363589Y-30675973D01*
X93339816Y-30638138D01*
X93212262Y-30510584D01*
X93172437Y-30485560D01*
X93059523Y-30414611D01*
X92889254Y-30355031D01*
X92889249Y-30355030D01*
X92710004Y-30334835D01*
X92709996Y-30334835D01*
X92530750Y-30355030D01*
X92530737Y-30355033D01*
X92360479Y-30414609D01*
X92248963Y-30484679D01*
X92181726Y-30503679D01*
X92170653Y-30503070D01*
X91832319Y-30469236D01*
X91825551Y-30468179D01*
X91816124Y-30466168D01*
X91745877Y-30460592D01*
X91713907Y-30457395D01*
X91713888Y-30457394D01*
X91711350Y-30457473D01*
X91704538Y-30457309D01*
X91702019Y-30457110D01*
X91702014Y-30457110D01*
X91702011Y-30457110D01*
X91669948Y-30458768D01*
X91599479Y-30460970D01*
X91589957Y-30462527D01*
X91583153Y-30463257D01*
X90669128Y-30510534D01*
X90601162Y-30494339D01*
X90552740Y-30443969D01*
X90539237Y-30375417D01*
X90564941Y-30310446D01*
X90591594Y-30285129D01*
X90758306Y-30168396D01*
X90925401Y-30001302D01*
X91060941Y-29807731D01*
X91160808Y-29593563D01*
X91221970Y-29365309D01*
X91242565Y-29129902D01*
X91227128Y-28953460D01*
X91163238Y-28591117D01*
X91117396Y-28420036D01*
X91017529Y-28205869D01*
X90881989Y-28012299D01*
X90881988Y-28012298D01*
X90881981Y-28012290D01*
X90714899Y-27845208D01*
X90714898Y-27845207D01*
X90714895Y-27845204D01*
X90525646Y-27712690D01*
X90521323Y-27709663D01*
X90414240Y-27659730D01*
X90307157Y-27609796D01*
X90307153Y-27609795D01*
X90307149Y-27609793D01*
X90078906Y-27548636D01*
X90078904Y-27548635D01*
X90078902Y-27548635D01*
X90078900Y-27548634D01*
X90078896Y-27548634D01*
X89843497Y-27528040D01*
X89843493Y-27528040D01*
X89608092Y-27548634D01*
X89608085Y-27548635D01*
X89476294Y-27583949D01*
X89379831Y-27609797D01*
X89379829Y-27609797D01*
X89379825Y-27609799D01*
X89165667Y-27709662D01*
X89165657Y-27709668D01*
X88972094Y-27845203D01*
X88972085Y-27845211D01*
X88805003Y-28012293D01*
X88805000Y-28012296D01*
X88804999Y-28012298D01*
X88782862Y-28043913D01*
X88669458Y-28205869D01*
X88588461Y-28379570D01*
X88542289Y-28432009D01*
X88475095Y-28451161D01*
X88408214Y-28430945D01*
X88388398Y-28414846D01*
X88252880Y-28279328D01*
X88252879Y-28279327D01*
X88252876Y-28279324D01*
X88059305Y-28143784D01*
X88059306Y-28143784D01*
X88059304Y-28143783D01*
X87952221Y-28093850D01*
X87845138Y-28043916D01*
X87845134Y-28043915D01*
X87845130Y-28043913D01*
X87616887Y-27982756D01*
X87616885Y-27982755D01*
X87616883Y-27982755D01*
X87616881Y-27982754D01*
X87616877Y-27982754D01*
X87381478Y-27962160D01*
X87381474Y-27962160D01*
X87146073Y-27982754D01*
X87146066Y-27982755D01*
X87035810Y-28012299D01*
X86917812Y-28043917D01*
X86917810Y-28043917D01*
X86917806Y-28043919D01*
X86703648Y-28143782D01*
X86703638Y-28143788D01*
X86510075Y-28279323D01*
X86510066Y-28279331D01*
X86342984Y-28446413D01*
X86342981Y-28446416D01*
X86342980Y-28446418D01*
X86320838Y-28478040D01*
X86207439Y-28639990D01*
X86207438Y-28639992D01*
X86126442Y-28813691D01*
X86080270Y-28866131D01*
X86013077Y-28885283D01*
X85946195Y-28865068D01*
X85926379Y-28848968D01*
X85790860Y-28713449D01*
X85790859Y-28713448D01*
X85790856Y-28713445D01*
X85597285Y-28577905D01*
X85597286Y-28577905D01*
X85597284Y-28577904D01*
X85490201Y-28527971D01*
X85383118Y-28478037D01*
X85383114Y-28478036D01*
X85383110Y-28478034D01*
X85154867Y-28416877D01*
X85154865Y-28416876D01*
X85154863Y-28416876D01*
X85154861Y-28416875D01*
X85154857Y-28416875D01*
X84919458Y-28396281D01*
X84919454Y-28396281D01*
X84684053Y-28416875D01*
X84684046Y-28416876D01*
X84556097Y-28451161D01*
X84455792Y-28478038D01*
X84455790Y-28478038D01*
X84455786Y-28478040D01*
X84241628Y-28577903D01*
X84241618Y-28577909D01*
X84048055Y-28713444D01*
X84048046Y-28713452D01*
X83880960Y-28880538D01*
X83761261Y-29051484D01*
X83706684Y-29095109D01*
X83637185Y-29102301D01*
X83574831Y-29070778D01*
X83567056Y-29062794D01*
X83446126Y-28926906D01*
X83302504Y-28826340D01*
X83139571Y-28761610D01*
X82966091Y-28736199D01*
X82863120Y-28743701D01*
X82469212Y-28813157D01*
X82655090Y-29867324D01*
X82614341Y-29848715D01*
X82513117Y-29834161D01*
X82445167Y-29834161D01*
X82343943Y-29848715D01*
X82219697Y-29905456D01*
X82162794Y-29954761D01*
X81976809Y-28899982D01*
X81582914Y-28969436D01*
X81582904Y-28969439D01*
X81483573Y-28997607D01*
X81329250Y-29080818D01*
X81198280Y-29197371D01*
X81097716Y-29340991D01*
X81032986Y-29503924D01*
X81007575Y-29677404D01*
X74025324Y-29677404D01*
X74668610Y-29320351D01*
X74877144Y-29209170D01*
X75719240Y-28778307D01*
X75931372Y-28674252D01*
X76787545Y-28272075D01*
X77003029Y-28175260D01*
X77872361Y-27802200D01*
X78091004Y-27712715D01*
X78972377Y-27369253D01*
X79193939Y-27287195D01*
X80086484Y-26973671D01*
X80310662Y-26899154D01*
X81213205Y-26615979D01*
X81439816Y-26549062D01*
X82351408Y-26296531D01*
X82580136Y-26237309D01*
X83499726Y-26015713D01*
X83730390Y-25964235D01*
X84359773Y-25834894D01*
X84656918Y-25773830D01*
X84795655Y-25747752D01*
X84889135Y-25730181D01*
X85821658Y-25571160D01*
X86055155Y-25535389D01*
X86992504Y-25407956D01*
X87227104Y-25380089D01*
X88168209Y-25284388D01*
X88403628Y-25264459D01*
X89347441Y-25200597D01*
X89583397Y-25188631D01*
X90528769Y-25156683D01*
X90765105Y-25152692D01*
X91710895Y-25152692D01*
X91947233Y-25156683D01*
G37*
%TD.AperFunction*%
%TD*%
M02*
